<?xml version="1.0" encoding="iso-8859-1"?>
<!-- Generator: Adobe Illustrator 21.0.0, SVG Export Plug-In . SVG Version: 6.00 Build 0)  -->
<svg version="1.1" id="Capa_1" xmlns="http://www.w3.org/2000/svg" xmlns:xlink="http://www.w3.org/1999/xlink" x="0px" y="0px"
	 viewBox="0 0 512 512" style="enable-background:new 0 0 512 512;" xml:space="preserve">
<circle style="fill:#1195B2;" cx="256" cy="256" r="256"/>
<path style="fill:#FF5B47;" d="M235.221,202.626c0,0.659,0.006,1.318,0.018,1.975c1.147,62.156,94.683,62.156,95.831,0
	c0.013-0.656,0.018-1.314,0.018-1.975c0-36.937-19.087-69.413-47.934-88.112C254.308,133.213,235.221,165.688,235.221,202.626z"/>
<path style="fill:#E53E2D;" d="M283.154,251.221c-23.671,0-47.342-15.542-47.914-46.621c-0.015-0.654-0.02-1.312-0.02-1.971
	c0-36.938,19.086-69.417,47.934-88.115c-11.944,18.698-19.851,51.177-19.851,88.115c0,0.658,0.005,1.317,0.009,1.971
	C263.549,235.679,273.354,251.221,283.154,251.221z"/>
<path style="fill:#FC8980;" d="M320.586,210.579c-0.831,7.441-6.352,12.932-12.331,12.264s-10.153-7.241-9.323-14.682
	s8.339-30.737,14.318-30.069C319.23,178.76,321.417,203.138,320.586,210.579z"/>
<path style="fill:#FF5B47;" d="M330.825,92.917c0,0.659,0.006,1.318,0.018,1.975c1.147,62.156,94.683,62.156,95.831,0
	c0.013-0.656,0.018-1.314,0.018-1.975c0-36.937-19.087-69.413-47.934-88.112C349.912,23.504,330.825,55.979,330.825,92.917z"/>
<path style="fill:#E53E2D;" d="M378.757,141.513c-23.671,0-47.342-15.542-47.914-46.621c-0.015-0.654-0.02-1.312-0.02-1.971
	c0-36.938,19.086-69.417,47.934-88.115c-11.944,18.698-19.851,51.177-19.851,88.115c0,0.658,0.005,1.317,0.009,1.971
	C359.152,125.97,368.958,141.513,378.757,141.513z"/>
<path style="fill:#FC8980;" d="M416.189,100.87c-0.831,7.441-6.352,12.932-12.331,12.264c-5.98-0.668-10.153-7.241-9.323-14.682
	c0.831-7.441,8.339-30.737,14.318-30.069C414.834,69.051,417.02,93.43,416.189,100.87z"/>
<g>
	<path style="fill:#EFB691;" d="M439.997,273.983l-16.74-8.857c-19.108-10.109-42.304,2.753-43.848,24.316l-2.836,39.601"/>
	<path style="fill:#EFB691;" d="M477.323,314.607L361.036,428.135c-11.682,11.41-27.094,18.233-43.405,19.205l-163.798,9.822
		c-0.073,0.01-0.146,0.01-0.219,0.021c-9.707,0.648-18.432,6.186-23.615,14.42l-3.365,5.35c-3.814-2.226-7.555-4.556-11.233-6.98
		c-33.708-22.194-61.858-52.14-81.91-87.301l22.173-29.508l1.494,1.536l30.448-44.032c15.203-22.016,39.623-36.342,66.351-37.616
		c1.087-0.042,2.173-0.084,3.25-0.094l147.31-1.776c5.402-0.052,10.376,1.682,14.378,4.629c0.951,0.7,1.86,1.494,2.696,2.33
		c4.483,4.483,7.178,10.731,6.949,17.586c-0.408,12.361-10.23,22.34-22.58,22.925l-92.118,4.504
		c-5.705,0.272-10.773,2.696-14.493,6.416c-4.598,4.598-7.147,11.191-6.301,18.202c0.115,0.94,0.293,1.87,0.512,2.79h0.01
		c2.508,9.979,11.724,17.042,22.277,16.593l105.848-4.462c9.404-0.408,18.401-3.981,25.506-10.146l91.732-79.632
		c10.564-9.153,26.07-9.174,36.634-0.428c0.69,0.554,1.358,1.16,1.996,1.808l0.146,0.146
		C488.723,285.622,488.545,303.625,477.323,314.607z"/>
</g>
<path style="fill:#FFCDA8;" d="M468.556,301.933L352.27,415.471c-11.682,11.41-27.105,18.233-43.415,19.205l-163.788,9.822h-0.084
	c-8.443,0.261-16.311,4.389-20.814,11.546l-3.082,4.901l-5.684,9.028c-33.708-22.194-61.858-52.14-81.91-87.301l9.561-12.716
	l12.612-16.792l31.943-42.496c15.203-22.016,39.623-36.342,66.351-37.616c1.087-0.042,2.173-0.084,3.25-0.094l147.31-1.776
	c5.402-0.052,10.376,1.682,14.378,4.629c0.637,2.299,0.961,4.723,0.878,7.252c-0.408,12.351-10.23,22.329-22.58,22.925
	l-92.118,4.504c-5.705,0.272-10.773,2.685-14.503,6.416c-4.598,4.598-7.137,11.191-6.29,18.202
	c0.773,6.457,4.284,11.964,9.279,15.454h0.01c2.508,9.979,11.724,17.042,22.277,16.593l105.848-4.462
	c9.404-0.408,18.401-3.981,25.506-10.146l91.732-79.632c10.564-9.153,26.07-9.174,36.634-0.428
	C478.984,282.498,476.633,294.033,468.556,301.933z"/>
<g>
</g>
<g>
</g>
<g>
</g>
<g>
</g>
<g>
</g>
<g>
</g>
<g>
</g>
<g>
</g>
<g>
</g>
<g>
</g>
<g>
</g>
<g>
</g>
<g>
</g>
<g>
</g>
<g>
</g>
</svg>
