<?xml version="1.0" encoding="iso-8859-1"?>
<!-- Generator: Adobe Illustrator 21.0.0, SVG Export Plug-In . SVG Version: 6.00 Build 0)  -->
<svg version="1.1" id="Capa_1" xmlns="http://www.w3.org/2000/svg" xmlns:xlink="http://www.w3.org/1999/xlink" x="0px" y="0px"
	 viewBox="0 0 512 512" style="enable-background:new 0 0 512 512;" xml:space="preserve">
<circle style="fill:#384E99;" cx="256" cy="256" r="256"/>
<path style="fill:#FF5B47;" d="M92.572,323.367c0,2.249,0.021,4.493,0.062,6.732c3.911,211.923,322.825,211.923,326.736,0
	c0.042-2.239,0.062-4.483,0.062-6.732c0-125.937-65.078-236.664-163.43-300.421C157.65,86.702,92.572,197.428,92.572,323.367z"/>
<path style="fill:#FFFFFF;" d="M358.989,252.86h-47.15c-8.909,0-16.131-7.222-16.131-16.131v-47.15
	c0-8.909-7.222-16.131-16.131-16.131h-47.15c-8.909,0-16.131,7.222-16.131,16.131v47.15c0,8.909-7.222,16.131-16.131,16.131h-47.15
	c-8.909,0-16.131,7.222-16.131,16.131v47.15c0,8.909,7.222,16.131,16.131,16.131h47.15c8.909,0,16.131,7.222,16.131,16.131v47.15
	c0,8.909,7.222,16.131,16.131,16.131h47.15c8.909,0,16.131-7.222,16.131-16.131v-47.15c0-8.909,7.222-16.131,16.131-16.131h47.15
	c8.909,0,16.131-7.222,16.131-16.131v-47.15C375.12,260.082,367.898,252.86,358.989,252.86z"/>
<g>
</g>
<g>
</g>
<g>
</g>
<g>
</g>
<g>
</g>
<g>
</g>
<g>
</g>
<g>
</g>
<g>
</g>
<g>
</g>
<g>
</g>
<g>
</g>
<g>
</g>
<g>
</g>
<g>
</g>
</svg>
