<?xml version="1.0" encoding="iso-8859-1"?>
<!-- Generator: Adobe Illustrator 21.0.0, SVG Export Plug-In . SVG Version: 6.00 Build 0)  -->
<svg version="1.1" id="Capa_1" xmlns="http://www.w3.org/2000/svg" xmlns:xlink="http://www.w3.org/1999/xlink" x="0px" y="0px"
	 viewBox="0 0 512 512" style="enable-background:new 0 0 512 512;" xml:space="preserve">
<path style="fill:#1195B2;" d="M512,256c0,50.918-14.869,98.366-40.5,138.239c-1.202,1.881-2.435,3.751-3.699,5.59
	c-22.862,33.604-53.509,61.492-89.37,81.052c-14.19,7.743-29.194,14.179-44.857,19.142c-24.461,7.784-50.531,11.974-77.573,11.974
	c-18.86,0-37.25-2.038-54.951-5.914c-16.426-3.594-32.256-8.756-47.334-15.339C63.24,451.269,0.003,361.022,0.003,256
	c0-141.384,114.614-255.998,255.998-255.998c119.954,0,220.639,82.505,248.402,193.859c3.124,12.507,5.318,25.38,6.52,38.536
	C511.634,240.17,512,248.038,512,256z"/>
<g>
	<path style="fill:#91C6E0;" d="M201.051,506.084c-16.426-3.594-32.256-8.756-47.334-15.339
		c-15.182-20.605-24.147-46.048-24.147-73.55v-71.053h20.898v71.053C150.468,454.937,170.78,488.018,201.051,506.084z"/>
	<path style="fill:#91C6E0;" d="M396.017,417.195c0,23.259-6.416,45.056-17.586,63.686c-14.19,7.743-29.194,14.179-44.857,19.142
		c25.213-18.881,41.545-48.985,41.545-82.829L396.017,417.195L396.017,417.195z"/>
</g>
<path style="fill:#E53E2D;" d="M512,256c0,50.918-14.869,98.366-40.5,138.239c-1.202,1.881-2.435,3.751-3.699,5.59
	c-20.961,16.248-45.641,30.5-73.675,41.346c-2.811,1.097-5.663,2.163-8.558,3.187c0,0,0,0-0.01-0.01
	c-0.01-0.021-0.031-0.021-0.052-0.031c-1.442-0.512-2.884-1.034-4.305-1.567c-1.421-0.533-2.842-1.076-4.253-1.62
	c-143.934-55.797-199.553-201.152-116.641-244.16c43.551-22.58,75.473-9.446,96.193,8.61c18.641,16.248,28.212,36.477,29.027,38.233
	c0.01,0.031,0.031,0.063,0.031,0.084l0.01,0.042l0.021-0.042c0.063-0.125,0.261-0.596,0.658-1.379
	c5.475-11.055,44.105-82.024,118.156-48.661c3.124,12.507,5.318,25.38,6.52,38.536C511.634,240.17,512,248.038,512,256z"/>
<path style="fill:#FF5B47;" d="M512,256c0,50.918-14.869,98.366-40.5,138.239c-20.94,18.61-46.926,35.014-77.374,46.937
	c-2.811,1.097-5.663,2.163-8.558,3.187c0,0,0,0-0.01-0.01c-0.01-0.021-0.031-0.021-0.052-0.031
	c-1.442-0.512,1.484-1.034,0.063-1.567c-1.421-0.533-7.21-1.076-8.62-1.62C249.022,391,199.745,261.642,273.65,223.316
	c38.912-20.166,67.437-8.432,85.942,7.701c16.666,14.514,25.213,32.59,25.934,34.158c0.021,0.031,0.031,0.063,0.031,0.073
	l0.01,0.042l0.021-0.042c0.052-0.115,0.23-0.533,0.585-1.233c5.036-10.156,41.409-76.956,111.323-40.699
	c5.047,2.623,9.519,5.663,13.427,9.08C511.634,240.17,512,248.038,512,256z"/>
<rect x="111.824" y="316.675" style="fill:#91C6E0;" width="54.322" height="35.428"/>
<g>
	<rect x="123.245" y="336.684" style="fill:#A4D8F2;" width="42.903" height="15.415"/>
	<path style="fill:#A4D8F2;" d="M236.632,324.928c-65.097,8.159-130.192,8.159-195.289,0c-19.04-2.387-33.859-17.763-35.638-36.869
		c-7.607-81.689-7.607-163.378,0-245.067C7.485,23.887,22.303,8.51,41.342,6.125c65.097-8.159,130.192-8.159,195.289,0
		c19.04,2.387,33.859,17.763,35.638,36.869c7.607,81.689,7.607,163.378,0,245.067C270.49,307.166,255.671,322.543,236.632,324.928z"
		/>
</g>
<path style="fill:#91C6E0;" d="M72.876,324.928c22.036,4.078,44.071,6.117,66.116,6.117c-32.554,0-65.1-2.039-97.646-6.117
	c-19.044-2.385-33.861-17.769-35.64-36.868c-7.605-81.689-7.605-163.384,0-245.072C7.485,23.88,22.301,8.505,41.345,6.119
	c32.546-4.078,65.093-6.117,97.646-6.117c-22.044,0-44.08,2.039-66.116,6.117C59.988,8.505,49.95,23.88,48.745,42.987
	c-5.149,81.689-5.149,163.384,0,245.072C49.95,307.159,59.988,322.543,72.876,324.928z"/>
<path style="fill:#FF5B47;" d="M248.752,285.866c-0.748,8.054-7.085,14.627-15.061,15.627c-31.42,3.936-63.289,5.936-94.702,5.936
	c-29.027,0-58.424-1.708-87.514-5.07c-2.401-0.276-4.802-0.566-7.196-0.866c-7.976-1-14.305-7.573-15.061-15.627
	c-5.511-59.228-6.936-119.069-4.267-178.618l20.989-5.929l82.137-23.178l124.949,29.105
	C255.696,166.799,254.271,226.64,248.752,285.866z"/>
<path style="fill:#E53E2D;" d="M51.476,302.36c-2.401-0.276-4.802-0.566-7.196-0.866c-7.976-1-14.305-7.573-15.061-15.627
	c-5.511-59.228-6.936-119.069-4.267-178.618l20.989-5.929c-2.055,62.25-1.118,124.501,2.802,186.743
	C49.067,293.149,50.012,297.974,51.476,302.36z"/>
<path style="fill:#FC8980;" d="M214.461,285.87h-31.055c-8.381,0-15.175-6.794-15.175-15.175V72.061
	c0-8.381,6.794-15.175,15.175-15.175h31.055c8.381,0,15.175,6.794,15.175,15.175v198.634
	C229.636,279.076,222.842,285.87,214.461,285.87z"/>
<path style="fill:#00A6F9;" d="M253.027,107.248H24.952c0.922-20.737,2.346-41.442,4.267-62.069
	c0.755-8.046,7.085-14.62,15.061-15.62c2.393-0.299,4.795-0.59,7.196-0.866c29.09-3.361,58.487-5.07,87.514-5.07
	c31.413,0,63.282,2,94.702,5.936c7.976,1,14.313,7.573,15.061,15.62C250.674,65.806,252.098,86.511,253.027,107.248z"/>
<path style="fill:#E7F5FC;" d="M229.637,72.065v35.184h-61.408V72.065c0-8.384,6.794-15.179,15.179-15.179h31.05
	C222.843,56.886,229.637,63.68,229.637,72.065z"/>
<g>
	<rect x="185.949" y="117.111" style="fill:#414142;" width="60.226" height="22.437"/>
	<rect x="185.949" y="169.063" style="fill:#414142;" width="60.226" height="22.437"/>
	<rect x="185.949" y="221.025" style="fill:#414142;" width="60.226" height="22.437"/>
</g>
<g>
	<rect x="185.949" y="117.111" style="fill:#5D5D5E;" width="43.694" height="22.437"/>
	<rect x="185.949" y="169.063" style="fill:#5D5D5E;" width="43.694" height="22.437"/>
	<rect x="185.949" y="221.025" style="fill:#5D5D5E;" width="43.694" height="22.437"/>
</g>
<path style="fill:#C5DEEA;" d="M51.476,28.693c-1.464,4.385-2.41,9.203-2.732,14.297c-1.346,21.422-2.346,42.836-2.984,64.258
	H24.952c0.922-20.737,2.346-41.442,4.267-62.069c0.755-8.046,7.085-14.62,15.061-15.62C46.673,29.261,49.074,28.969,51.476,28.693z"
	/>
<g>
</g>
<g>
</g>
<g>
</g>
<g>
</g>
<g>
</g>
<g>
</g>
<g>
</g>
<g>
</g>
<g>
</g>
<g>
</g>
<g>
</g>
<g>
</g>
<g>
</g>
<g>
</g>
<g>
</g>
</svg>
