<?xml version="1.0" encoding="iso-8859-1"?>
<!-- Generator: Adobe Illustrator 21.0.0, SVG Export Plug-In . SVG Version: 6.00 Build 0)  -->
<svg version="1.1" id="Capa_1" xmlns="http://www.w3.org/2000/svg" xmlns:xlink="http://www.w3.org/1999/xlink" x="0px" y="0px"
	 viewBox="0 0 512 512" style="enable-background:new 0 0 512 512;" xml:space="preserve">
<circle style="fill:#91C6E0;" cx="256" cy="255.99" r="255.99"/>
<path style="fill:#FFFFFF;" d="M429.449,183.507v260.776c-0.063,0.063-0.125,0.115-0.188,0.167
	c-13.332,12.277-27.971,23.144-43.696,32.38c-6.771,3.991-13.74,7.669-20.897,11.023c-7.805,3.657-15.819,6.938-24.032,9.811
	c-11.159,3.918-22.673,7.074-34.48,9.414c-6.865,1.369-13.834,2.455-20.897,3.25c-3.772,0.439-7.575,0.794-11.399,1.055
	c-5.172,0.355-10.407,0.564-15.673,0.596C257.466,512,256.734,512,256.003,512c-4.524,0-9.017-0.115-13.489-0.355
	c-5.297-0.272-10.553-0.711-15.767-1.306c-7.053-0.805-14.022-1.891-20.897-3.26c-11.807-2.33-23.321-5.496-34.48-9.404
	c-8.213-2.873-16.227-6.154-24.032-9.832c-0.669-0.303-1.327-0.616-1.985-0.93c-5.329-2.56-10.553-5.297-15.673-8.213
	c-1.087-0.616-2.163-1.233-3.239-1.87c-4.221-2.476-8.369-5.078-12.434-7.795c-11.055-7.377-21.514-15.61-31.262-24.586
	c-0.063-0.052-0.125-0.115-0.188-0.167V183.507l43.884-39.213l20.897-18.672l38.524-34.428l19.988-17.867l20.897-18.672
	l29.256-26.142l29.256,26.142l20.897,18.682l20.019,17.888l38.493,34.397l20.897,18.672L429.449,183.507z"/>
<polygon style="fill:#DFE0E2;" points="429.449,183.507 429.449,255.226 256.003,114.15 82.557,255.226 82.557,183.507 
	126.441,144.294 147.338,125.622 185.862,91.194 205.85,73.327 226.747,54.655 256.003,28.513 285.259,54.655 306.156,73.338 
	326.176,91.225 364.668,125.622 385.565,144.294 "/>
<polygon style="fill:#384E99;" points="58.115,255.246 11.964,198.504 256,0.021 500.034,198.504 453.883,255.246 256,94.298 "/>
<g>
	<rect x="216.295" y="198.168" style="fill:#FF5B47;" width="79.409" height="238.227"/>
	<rect x="136.886" y="277.577" style="fill:#FF5B47;" width="238.227" height="79.409"/>
	<path style="fill:#FF5B47;" d="M369.385,123.897c0,0.831,0.007,1.658,0.023,2.486c1.444,78.235,119.176,78.235,120.619,0
		c0.016-0.826,0.023-1.655,0.023-2.486c0-46.492-24.024-87.368-60.333-110.905C393.41,36.529,369.385,77.406,369.385,123.897z"/>
</g>
<path style="fill:#E53E2D;" d="M429.717,185.064c-29.795,0-59.589-19.563-60.308-58.681c-0.019-0.822-0.024-1.652-0.024-2.48
	c0-46.493,24.023-87.373,60.333-110.908c-15.034,23.535-24.987,64.417-24.987,110.908c0,0.829,0.006,1.657,0.013,2.48
	C405.041,165.501,417.382,185.064,429.717,185.064z"/>
<path style="fill:#FC8980;" d="M476.832,133.909c-1.046,9.366-7.994,16.278-15.52,15.437c-7.526-0.84-12.78-9.114-11.734-18.48
	s10.497-38.687,18.023-37.847C475.125,93.86,477.878,124.543,476.832,133.909z"/>
<g>
</g>
<g>
</g>
<g>
</g>
<g>
</g>
<g>
</g>
<g>
</g>
<g>
</g>
<g>
</g>
<g>
</g>
<g>
</g>
<g>
</g>
<g>
</g>
<g>
</g>
<g>
</g>
<g>
</g>
</svg>
