<?xml version="1.0" encoding="iso-8859-1"?>
<!-- Generator: Adobe Illustrator 21.0.0, SVG Export Plug-In . SVG Version: 6.00 Build 0)  -->
<svg version="1.1" id="Capa_1" xmlns="http://www.w3.org/2000/svg" xmlns:xlink="http://www.w3.org/1999/xlink" x="0px" y="0px"
	 viewBox="0 0 512 512" style="enable-background:new 0 0 512 512;" xml:space="preserve">
<circle style="fill:#1195B2;" cx="255.998" cy="256" r="255.998"/>
<path style="fill:#FF5B47;" d="M512,256.001c0,25.015-3.584,49.193-10.282,72.045c-27.324,51.722-81.648,86.977-144.216,86.977
	c-90.028,0-163.003-72.975-163.003-162.993S267.474,89.038,357.502,89.038c58.054,0,109.024,30.354,137.894,76.068
	C506.128,193.36,512,223.996,512,256.001z"/>
<path style="fill:#FFFFFF;" d="M438.173,227.59h-30.288c-5.135,0-9.296-4.162-9.296-9.296v-30.288c0-5.135-4.162-9.296-9.296-9.296
	h-30.288c-5.135,0-9.296,4.162-9.296,9.296v30.288c0,5.135-4.162,9.296-9.296,9.296h-30.288c-5.135,0-9.296,4.162-9.296,9.296
	v30.288c0,5.135,4.162,9.296,9.296,9.296h30.288c5.135,0,9.296,4.162,9.296,9.296v30.288c0,5.135,4.162,9.296,9.296,9.296h30.288
	c5.135,0,9.296-4.162,9.296-9.296v-30.288c0-5.135,4.162-9.296,9.296-9.296h30.288c5.135,0,9.296-4.162,9.296-9.296v-30.288
	C447.47,231.752,443.308,227.59,438.173,227.59z"/>
<path style="fill:#E53E2D;" d="M259.283,252.03c0-78.928,56.102-144.749,130.603-159.771c-10.47-2.112-21.3-3.223-32.392-3.223
	c-90.02,0-162.995,72.975-162.995,162.995s72.975,162.995,162.995,162.995c11.092,0,21.922-1.113,32.392-3.223
	C315.385,396.779,259.283,330.958,259.283,252.03z"/>
<circle style="fill:#E7F5FC;" cx="166.294" cy="162.994" r="162.993"/>
<path style="fill:#384E99;" d="M328.736,501.509c-4.587,1.369-9.237,2.602-13.928,3.699c-9.895-13.207-23.374-23.061-40.301-29.414
	c-35.652-13.385-64.919-30.856-84.647-50.521c-21.431-21.368-29.727-43.582-23.991-64.229c1.003-3.615,4.744-5.726,8.359-4.723
	c3.615,1.003,5.726,4.744,4.723,8.359c-8.986,32.37,32.266,72.839,100.341,98.408C303.304,472.106,318.779,486.64,328.736,501.509z"
	/>
<path style="fill:#C5DEEA;" d="M68.082,162.998c0-78.928,56.102-144.749,130.603-159.771c-10.47-2.112-21.3-3.223-32.392-3.223
	c-90.02,0-162.995,72.975-162.995,162.995s72.975,162.995,162.995,162.995c11.092,0,21.922-1.113,32.392-3.223
	C124.184,307.747,68.082,241.926,68.082,162.998z"/>
<path style="fill:#384E99;" d="M407.03,462.733c-3.688,2.696-7.461,5.308-11.306,7.805c-15.736-19.038-35.338-27.052-35.652-27.178
	c-3.49-1.379-5.193-5.329-3.803-8.819c1.379-3.49,5.329-5.193,8.819-3.803C366.541,431.313,389.163,440.56,407.03,462.733z"/>
<path style="fill:#E7F5FC;" d="M166.293,319.027c-54.608,38.471-26.946,71.631,0,59.827
	C193.239,390.659,220.902,357.499,166.293,319.027z"/>
<path style="fill:#E53E2D;" d="M357.494,404.575c-54.608,38.471-26.946,71.631,0,59.827
	C384.44,476.208,412.102,443.047,357.494,404.575z"/>
<g>
	<path style="fill:#384E99;" d="M189.106,335.694h-45.623c-3.751,0-6.792-3.041-6.792-6.792s3.041-6.792,6.792-6.792h45.623
		c3.751,0,6.792,3.041,6.792,6.792S192.857,335.694,189.106,335.694z"/>
	<path style="fill:#384E99;" d="M380.306,424.726h-45.622c-3.751,0-6.792-3.041-6.792-6.792c0-3.751,3.041-6.792,6.792-6.792h45.622
		c3.751,0,6.792,3.041,6.792,6.792C387.098,421.685,384.056,424.726,380.306,424.726z"/>
</g>
<path style="fill:#FF5B47;" d="M94.796,192.473c0,0.984,0.009,1.965,0.027,2.946c1.712,92.713,141.232,92.713,142.942,0
	c0.018-0.979,0.027-1.961,0.027-2.946c0-55.096-28.471-103.537-71.499-131.43C123.266,88.936,94.796,137.378,94.796,192.473z"/>
<g>
</g>
<g>
</g>
<g>
</g>
<g>
</g>
<g>
</g>
<g>
</g>
<g>
</g>
<g>
</g>
<g>
</g>
<g>
</g>
<g>
</g>
<g>
</g>
<g>
</g>
<g>
</g>
<g>
</g>
</svg>
