<?xml version="1.0" encoding="iso-8859-1"?>
<!-- Generator: Adobe Illustrator 21.0.0, SVG Export Plug-In . SVG Version: 6.00 Build 0)  -->
<svg version="1.1" id="Capa_1" xmlns="http://www.w3.org/2000/svg" xmlns:xlink="http://www.w3.org/1999/xlink" x="0px" y="0px"
	 viewBox="0 0 512 512" style="enable-background:new 0 0 512 512;" xml:space="preserve">
<path style="fill:#C5DEEA;" d="M512,256c0,65.703-24.754,125.649-65.463,170.966c-33.259,37.063-77.197,64.366-126.966,77.072
	c-8.067,2.069-16.3,3.751-24.66,5.026c-0.01,0-0.01,0-0.021,0C282.216,510.997,269.218,512,256,512C114.615,512,0,397.385,0,256
	S114.615,0,256,0S512,114.615,512,256z"/>
<path style="fill:#FF5B47;" d="M446.955,415.065c0,1.421-0.021,2.842-0.042,4.253c-0.052,2.602-0.167,5.151-0.376,7.649
	c-38.661,43.071-91.732,72.965-151.625,82.098c-30.678-14.796-53.99-44.711-54.815-89.746c-0.021-1.411-0.031-2.832-0.031-4.253
	c0-79.715,41.19-149.807,103.445-190.161C405.765,265.258,446.955,335.35,446.955,415.065z"/>
<path style="fill:#E53E2D;" d="M300.68,419.318c0.313,40.417,8.108,68.65,18.892,84.72c-8.067,2.069-16.3,3.751-24.66,5.026
	c-0.01,0-0.01,0-0.021,0c-30.678-14.806-53.969-44.722-54.794-89.746c-0.031-1.411-0.042-2.832-0.042-4.253
	c0-79.715,41.19-149.807,103.445-190.161c-25.778,40.354-42.841,110.446-42.841,190.161
	C300.659,416.486,300.669,417.907,300.68,419.318z"/>
<path style="fill:#FC8980;" d="M424.287,432.225c-1.793,16.058-13.707,27.908-26.611,26.468
	c-12.904-1.44-21.912-15.626-20.118-31.685c1.793-16.058,17.997-66.332,30.901-64.891S426.08,416.166,424.287,432.225z"/>
<path style="fill:#FF5B47;" d="M41.549,246.747c0,1.821,0.017,3.639,0.05,5.453c3.168,171.672,261.509,171.672,264.677,0
	c0.033-1.814,0.05-3.631,0.05-5.453c0-102.018-52.717-191.713-132.389-243.36C94.268,55.035,41.549,144.73,41.549,246.747z"/>
<path style="fill:#E53E2D;" d="M173.935,380.966c-65.379,0-130.757-42.926-132.335-128.765c-0.04-1.806-0.053-3.624-0.053-5.443
	c0-102.02,52.715-191.723,132.389-243.368c-32.99,51.645-54.827,141.349-54.827,243.368c0,1.819,0.014,3.637,0.027,5.443
	C119.789,338.039,146.869,380.966,173.935,380.966z"/>
<path style="fill:#FC8980;" d="M277.32,268.714c-2.295,20.552-17.543,35.718-34.057,33.874
	c-16.515-1.844-28.043-19.999-25.748-40.55c2.295-20.552,23.033-84.892,39.547-83.047
	C273.576,180.834,279.615,248.163,277.32,268.714z"/>
<g>
</g>
<g>
</g>
<g>
</g>
<g>
</g>
<g>
</g>
<g>
</g>
<g>
</g>
<g>
</g>
<g>
</g>
<g>
</g>
<g>
</g>
<g>
</g>
<g>
</g>
<g>
</g>
<g>
</g>
</svg>
