<?xml version="1.0" encoding="iso-8859-1"?>
<!-- Generator: Adobe Illustrator 21.0.0, SVG Export Plug-In . SVG Version: 6.00 Build 0)  -->
<svg version="1.1" id="Capa_1" xmlns="http://www.w3.org/2000/svg" xmlns:xlink="http://www.w3.org/1999/xlink" x="0px" y="0px"
	 viewBox="0 0 512 512" style="enable-background:new 0 0 512 512;" xml:space="preserve">
<path style="fill:#384E99;" d="M512,256c0,46.383-12.33,89.882-33.907,127.404c-1.808,3.156-3.688,6.269-5.642,9.341
	C427.081,464.415,347.094,512,256,512S84.919,464.415,39.549,392.746c-4.65-7.335-8.934-14.921-12.831-22.737
	C9.624,335.673,0,296.96,0,256s9.624-79.673,26.718-114.009c9.373-18.808,20.992-36.3,34.503-52.12
	c11.18-13.103,23.667-25.057,37.24-35.662C141.908,20.24,196.587,0,256,0c59.423,0,114.103,20.24,157.55,54.209
	c26.018,20.344,48.003,45.599,64.543,74.386C499.67,166.118,512,209.617,512,256z"/>
<path style="fill:#E7F5FC;" d="M478.093,91.094v292.31c-1.808,3.156-3.688,6.269-5.642,9.341h-21.002
	c0-39.821-32.277-72.098-72.087-72.098c-39.821,0-72.098,32.277-72.098,72.098H186.587c0-39.821-32.277-72.098-72.098-72.098
	s-72.098,32.277-72.098,72.098h-2.842c-4.65-7.335-8.934-14.921-12.831-22.737V91.094c0-20.365,16.52-36.885,36.885-36.885h377.616
	C461.584,54.209,478.093,70.729,478.093,91.094z"/>
<path style="fill:#C5DEEA;" d="M98.085,54.209c-19.958,0-36.216,15.862-36.864,35.662c-0.01,0.408-0.021,0.815-0.021,1.223v253.095
	C49.518,357,42.392,374.042,42.392,392.746h-2.842c-4.65-7.335-8.934-14.921-12.831-22.737V91.094
	c0-20.365,16.52-36.885,36.885-36.885H98.085z"/>
<path style="fill:#00A6F9;" d="M380.926,272.063h97.17V109.067h-50.908c-25.55,0-46.262,20.712-46.262,46.262V272.063z"/>
<path style="fill:#E53E2D;" d="M416.977,22.403v31.807h-72.098V22.403C344.879,10.031,354.91,0,367.282,0h27.293
	C406.946,0,416.977,10.031,416.977,22.403z"/>
<path style="fill:#FF5B47;" d="M416.977,22.403v31.807h-48.588V22.403C368.389,10.031,378.42,0,390.781,0h3.793
	C406.946,0,416.977,10.031,416.977,22.403z"/>
<g>
	<circle style="fill:#414142;" cx="114.489" cy="392.746" r="57.741"/>
	<circle style="fill:#414142;" cx="379.361" cy="392.746" r="59.141"/>
</g>
<g>
	<circle style="fill:#E7F5FC;" cx="379.361" cy="392.746" r="30.222"/>
	<circle style="fill:#E7F5FC;" cx="114.489" cy="392.746" r="29.508"/>
</g>
<g>
	<path style="fill:#FF5B47;" d="M458.545,353.561h19.548v-48.586h-19.548c-5.649,0-10.227,4.579-10.227,10.227v28.131
		C448.319,348.982,452.897,353.561,458.545,353.561z"/>
	<path style="fill:#FF5B47;" d="M122.812,232.934c0,0.984,0.009,1.965,0.027,2.946c1.712,92.714,141.233,92.714,142.943,0
		c0.018-0.979,0.027-1.961,0.027-2.946c0-55.096-28.471-103.538-71.499-131.43C151.283,129.396,122.812,177.837,122.812,232.934z"/>
</g>
<path style="fill:#FFFFFF;" d="M244.675,202.587H220.85c-4.039,0-7.313-3.274-7.313-7.313v-23.826c0-4.039-3.274-7.313-7.313-7.313
	h-23.826c-4.039,0-7.313,3.274-7.313,7.313v23.826c0,4.039-3.274,7.313-7.313,7.313h-23.826c-4.039,0-7.313,3.274-7.313,7.313
	v23.826c0,4.039,3.274,7.313,7.313,7.313h23.826c4.039,0,7.313,3.274,7.313,7.313v23.826c0,4.039,3.274,7.313,7.313,7.313h23.826
	c4.039,0,7.313-3.274,7.313-7.313v-23.826c0-4.039,3.274-7.313,7.313-7.313h23.826c4.039,0,7.313-3.274,7.313-7.313v-23.827
	C251.989,205.861,248.714,202.587,244.675,202.587z"/>
<path style="fill:#E7F5FC;" d="M460.225,250.121h-12.317c-4.389,0-7.946-3.558-7.946-7.946v-98.517c0-4.389,3.558-7.946,7.946-7.946
	h12.317c4.389,0,7.946,3.558,7.946,7.946v98.517C468.172,246.564,464.614,250.121,460.225,250.121z"/>
<g>
</g>
<g>
</g>
<g>
</g>
<g>
</g>
<g>
</g>
<g>
</g>
<g>
</g>
<g>
</g>
<g>
</g>
<g>
</g>
<g>
</g>
<g>
</g>
<g>
</g>
<g>
</g>
<g>
</g>
</svg>
