<?xml version="1.0" encoding="iso-8859-1"?>
<!-- Generator: Adobe Illustrator 21.0.0, SVG Export Plug-In . SVG Version: 6.00 Build 0)  -->
<svg version="1.1" id="Capa_1" xmlns="http://www.w3.org/2000/svg" xmlns:xlink="http://www.w3.org/1999/xlink" x="0px" y="0px"
	 viewBox="0 0 512 512" style="enable-background:new 0 0 512 512;" xml:space="preserve">
<circle style="fill:#1195B2;" cx="256" cy="255.999" r="255.999"/>
<path style="fill:#384E99;" d="M450.337,24.87V422.64C403.39,477.341,333.737,512,255.997,512s-147.393-34.659-194.34-89.359V24.87
	c0-13.73,11.128-24.869,24.869-24.869h338.943C439.198,0.001,450.337,11.14,450.337,24.87z"/>
<path style="fill:#C5DEEA;" d="M430.753,95.911v347.155c-6.416,5.987-13.134,11.661-20.135,16.98
	c-42.956,32.601-96.527,51.952-154.613,51.952s-111.658-19.351-154.613-51.952c-7.001-5.319-13.719-10.992-20.135-16.98V95.911
	c0-8.192,6.635-14.827,14.827-14.827h319.843c0.899,0,1.776,0.084,2.623,0.24C425.486,82.557,430.753,88.618,430.753,95.911z"/>
<path style="fill:#414142;" d="M321.822,53.915H190.172c-6.059,0-10.97-4.912-10.97-10.97l0,0c0-6.059,4.912-10.97,10.97-10.97
	h131.651c6.059,0,10.97,4.912,10.97,10.97l0,0C332.794,49.002,327.882,53.915,321.822,53.915z"/>
<path style="fill:#FF5B47;" d="M147.175,358.989c0,1.497,0.014,2.992,0.042,4.483c2.605,141.12,214.97,141.12,217.574,0
	c0.027-1.491,0.042-2.985,0.042-4.483c0-83.862-43.336-157.594-108.828-200.051C190.511,201.394,147.175,275.127,147.175,358.989z"
	/>
<path style="fill:#FFFFFF;" d="M332.664,312.798h-36.265c-6.147,0-11.131-4.983-11.131-11.131v-36.265
	c0-6.147-4.983-11.131-11.131-11.131h-36.265c-6.147,0-11.131,4.983-11.131,11.131v36.265c0,6.147-4.983,11.131-11.131,11.131
	h-36.265c-6.147,0-11.131,4.983-11.131,11.131v36.265c0,6.147,4.983,11.131,11.131,11.131h36.265
	c6.147,0,11.131,4.983,11.131,11.131v36.265c0,6.147,4.983,11.131,11.131,11.131h36.265c6.147,0,11.131-4.983,11.131-11.131v-36.265
	c0-6.147,4.983-11.131,11.131-11.131h36.265c6.147,0,11.131-4.983,11.131-11.131v-36.266
	C343.794,317.781,338.811,312.798,332.664,312.798z"/>
<g>
</g>
<g>
</g>
<g>
</g>
<g>
</g>
<g>
</g>
<g>
</g>
<g>
</g>
<g>
</g>
<g>
</g>
<g>
</g>
<g>
</g>
<g>
</g>
<g>
</g>
<g>
</g>
<g>
</g>
</svg>
