<?xml version="1.0" encoding="iso-8859-1"?>
<!-- Generator: Adobe Illustrator 21.0.0, SVG Export Plug-In . SVG Version: 6.00 Build 0)  -->
<svg version="1.1" id="Capa_1" xmlns="http://www.w3.org/2000/svg" xmlns:xlink="http://www.w3.org/1999/xlink" x="0px" y="0px"
	 viewBox="0 0 512 512" style="enable-background:new 0 0 512 512;" xml:space="preserve">
<circle style="fill:#C5DEEA;" cx="256" cy="256" r="256"/>
<path style="fill:#1195B2;" d="M357.891,312.382c-1.285,13.406-5.151,26.07-11.118,37.46c-17.074,32.705-51.315,55.024-90.77,55.024
	c-27.606,0-52.652-10.919-71.064-28.682c-19.31-18.62-31.316-44.753-31.316-73.686c0-56.55,45.84-102.379,102.379-102.379
	c29.09,0,55.338,12.131,73.979,31.598c3.657,3.824,7.022,7.941,10.052,12.298c11.557,16.583,18.338,36.739,18.338,58.483
	C358.372,305.83,358.215,309.132,357.891,312.382z M464,157.737c-7.523-10.783-15.851-20.95-24.91-30.417
	c-46.132-48.201-111.104-78.221-183.087-78.221c-136.997,0-248.592,108.701-253.241,244.569
	c10.083,68.389,47.208,127.979,100.164,167.549c42.695,31.89,95.681,50.782,153.078,50.782c83.843,0,158.271-40.302,204.957-102.599
	c18.463-24.618,32.58-52.663,41.242-83.017c3.041-10.627,5.402-21.546,7.032-32.695C507.521,243.23,491.042,196.523,464,157.737z"/>
<path style="fill:#E7F5FC;" d="M464,157.737l-123.967,86.277c-3.03-4.357-6.395-8.474-10.052-12.298
	c-18.641-19.466-44.889-31.598-73.979-31.598V49.099c71.983,0,136.955,30.02,183.087,78.221
	C448.149,136.787,456.477,146.953,464,157.737z"/>
<path style="fill:#384E99;" d="M509.234,293.688c-1.63,11.149-3.992,22.068-7.032,32.695c-8.662,30.354-22.779,58.399-41.242,83.017
	l-114.186-59.559c5.966-11.389,9.833-24.054,11.118-37.46c0.324-3.25,0.481-6.552,0.481-9.885c0-27.46-10.815-52.391-28.39-70.781
	L439.09,127.32C480.75,170.85,507.04,229.218,509.234,293.688z"/>
<g>
	<path style="fill:#FF5B47;" d="M502.202,326.383c-30.574,107.165-129.223,185.616-246.199,185.616
		c-57.396,0-110.383-18.892-153.078-50.782l82.014-85.034c18.411,17.763,43.457,28.682,71.064,28.682
		c53.206,0,96.925-40.584,101.888-92.484L502.202,326.383z"/>
	<path style="fill:#FF5B47;" d="M200.588,325.747c0,0.763,0.007,1.523,0.021,2.282c1.326,71.852,109.453,71.852,110.779,0
		c0.014-0.76,0.021-1.52,0.021-2.282c0-42.699-22.065-80.24-55.411-101.857C222.653,245.506,200.588,283.047,200.588,325.747z"/>
</g>
<path style="fill:#E53E2D;" d="M255.998,381.923c-27.364,0-54.728-17.966-55.388-53.894c-0.017-0.755-0.022-1.517-0.022-2.278
	c0-42.7,22.063-80.244,55.411-101.86c-13.807,21.616-22.948,59.16-22.948,101.86c0,0.762,0.005,1.522,0.011,2.278
	C233.335,363.956,244.669,381.923,255.998,381.923z"/>
<path style="fill:#FC8980;" d="M299.268,334.941c-0.96,8.602-7.342,14.949-14.254,14.177s-11.737-8.371-10.777-16.972
	c0.96-8.602,9.64-35.531,16.552-34.759C297.702,298.158,300.228,326.339,299.268,334.941z"/>
<g>
</g>
<g>
</g>
<g>
</g>
<g>
</g>
<g>
</g>
<g>
</g>
<g>
</g>
<g>
</g>
<g>
</g>
<g>
</g>
<g>
</g>
<g>
</g>
<g>
</g>
<g>
</g>
<g>
</g>
</svg>
