<?xml version="1.0" encoding="iso-8859-1"?>
<!-- Generator: Adobe Illustrator 21.0.0, SVG Export Plug-In . SVG Version: 6.00 Build 0)  -->
<svg version="1.1" id="Capa_1" xmlns="http://www.w3.org/2000/svg" xmlns:xlink="http://www.w3.org/1999/xlink" x="0px" y="0px"
	 viewBox="0 0 512 512" style="enable-background:new 0 0 512 512;" xml:space="preserve">
<path style="fill:#FFCDA8;" d="M512,256c0,56.822-18.516,109.328-49.842,151.792c-10.971,14.89-23.521,28.536-37.407,40.709
	c-0.01,0.021-0.031,0.031-0.042,0.042c-41.012,35.965-93.612,59.037-151.468,62.882C267.546,511.812,261.789,512,256,512
	c-5.13,0-10.23-0.146-15.287-0.46c-76.194-4.472-143.433-42.287-187.34-99.067C19.905,369.204,0,314.922,0,256
	C0,114.615,114.615,0,256,0S512,114.615,512,256z"/>
<rect x="315.82" y="293.898" style="fill:#384E99;" width="28.212" height="59.559"/>
<rect x="315.82" y="293.898" style="fill:#263E82;" width="14.106" height="59.559"/>
<rect x="353.959" y="293.898" style="fill:#384E99;" width="28.212" height="59.559"/>
<rect x="353.959" y="293.898" style="fill:#263E82;" width="14.106" height="59.559"/>
<rect x="308.245" y="42.078" style="fill:#91C6E0;" width="81.502" height="106.58"/>
<path style="fill:#C5DEEA;" d="M389.747,148.658h-50.851V87.823c0-8.336,6.757-15.094,15.094-15.094h35.757V148.658z"/>
<rect x="308.245" y="244.788" style="fill:#91C6E0;" width="81.502" height="65.829"/>
<path style="fill:#C5DEEA;" d="M315.82,118.617v114.939c-16.906,0-33.165,2.832-48.327,8.035
	c-58.598,20.125-100.833,75.786-100.833,141.124c0,54.878,29.79,102.922,74.052,128.825c-76.194-4.472-143.433-42.287-187.34-99.067
	c-1.097-9.812-1.651-19.738-1.651-29.759c0-70.541,27.47-136.861,77.354-186.744c38.296-38.296,86.277-63.384,138.418-72.965
	C283.272,120.101,299.436,118.617,315.82,118.617z"/>
<path style="fill:#91C6E0;" d="M135.314,382.715c0,11.525,1.108,22.988,3.281,34.22c2.56,13.291-12.79,22.653-23.343,14.169
	c-10.125-8.14-32.183-26.446-32.183-48.389c0-62.171,24.21-120.613,68.169-164.582c19.01-19.001,40.714-34.309,64.261-45.568
	c8.905-4.258,19.494,0.636,22.083,10.162l5.53,20.343c1.973,7.256-1.425,14.904-8.143,18.283
	C175.912,251.047,135.314,312.229,135.314,382.715z"/>
<path style="fill:#C5DEEA;" d="M389.747,310.617h-50.851v-20.084c0-8.336,6.757-15.094,15.094-15.094h35.757V310.617z"/>
<path style="fill:#263E82;" d="M396.685,24.377v10.825c0,13.093-10.616,23.709-23.719,23.709h-74.794
	c-13.103,0-23.719-10.616-23.719-23.709V24.377c0-13.103,10.616-23.719,23.719-23.719h74.794
	C386.069,0.658,396.685,11.274,396.685,24.377z"/>
<path style="fill:#384E99;" d="M419.734,24.377v10.825c0,13.093-10.616,23.709-23.719,23.709h-64.939
	c-13.093,0-23.709-10.616-23.709-23.709V24.377c0-13.103,10.616-23.719,23.709-23.719h64.939
	C409.118,0.658,419.734,11.274,419.734,24.377z"/>
<path style="fill:#91C6E0;" d="M403.853,109.286v138.303c0,5.381-4.357,9.738-9.738,9.738h-90.237c-5.381,0-9.738-4.357-9.738-9.738
	V109.286c0-5.381,4.357-9.738,9.738-9.738h90.237C399.496,99.547,403.853,103.905,403.853,109.286z"/>
<path style="fill:#C5DEEA;" d="M403.853,109.286v138.303c0,5.381-4.357,9.738-9.738,9.738h-63.07c-5.381,0-9.738-4.357-9.738-9.738
	V109.286c0-5.381,4.357-9.738,9.738-9.738h63.07C399.496,99.547,403.853,103.905,403.853,109.286z"/>
<path style="fill:#384E99;" d="M424.751,430.78v17.763h-0.042c-41.012,35.965-93.612,59.037-151.468,62.882V430.78H424.751z"/>
<path style="fill:#FF5B47;" d="M393.537,373.833h-89.082c-6.851,0-12.406,5.555-12.406,12.406v13.716h113.894v-13.716
	C405.943,379.388,400.388,373.833,393.537,373.833z"/>
<rect x="260.702" y="390.029" style="fill:#FFFFFF;" width="176.588" height="26.122"/>
<path style="fill:#91C6E0;" d="M462.158,407.792c-10.971,14.89-23.521,28.536-37.407,40.709v0.042H234.339
	c-6.51,0-11.776-5.266-11.776-11.776v-17.199c0-6.51,5.266-11.776,11.776-11.776L462.158,407.792L462.158,407.792z"/>
<path style="fill:#C5DEEA;" d="M462.158,407.792c-10.971,14.89-23.521,28.536-37.407,40.709v0.042H283.449
	c-4.368,0-8.182-2.372-10.209-5.914c-1.003-1.724-1.567-3.73-1.567-5.862v-17.199c0-6.51,5.266-11.776,11.776-11.776
	L462.158,407.792L462.158,407.792z"/>
<path style="fill:#91C6E0;" d="M315.82,118.617v114.939c-16.906,0-33.165,2.832-48.327,8.035V123.005
	C283.272,120.101,299.436,118.617,315.82,118.617z"/>
<path style="fill:#FFFFFF;" d="M382.039,236.429h-12.796c-4.257,0-7.708-3.451-7.708-7.708V128.154c0-4.257,3.451-7.708,7.708-7.708
	h12.796c4.257,0,7.708,3.451,7.708,7.708v100.567C389.747,232.978,386.296,236.429,382.039,236.429z"/>
<g>
	<circle style="fill:#384E99;" cx="203.755" cy="210.307" r="15.673"/>
	<circle style="fill:#384E99;" cx="109.714" cy="380.625" r="15.673"/>
</g>
<g>
</g>
<g>
</g>
<g>
</g>
<g>
</g>
<g>
</g>
<g>
</g>
<g>
</g>
<g>
</g>
<g>
</g>
<g>
</g>
<g>
</g>
<g>
</g>
<g>
</g>
<g>
</g>
<g>
</g>
</svg>
