<?xml version="1.0" encoding="iso-8859-1"?>
<!-- Generator: Adobe Illustrator 21.0.0, SVG Export Plug-In . SVG Version: 6.00 Build 0)  -->
<svg version="1.1" id="Capa_1" xmlns="http://www.w3.org/2000/svg" xmlns:xlink="http://www.w3.org/1999/xlink" x="0px" y="0px"
	 viewBox="0 0 512 512" style="enable-background:new 0 0 512 512;" xml:space="preserve">
<circle style="fill:#FF5B47;" cx="256" cy="256" r="256"/>
<circle style="fill:#FFFFFF;" cx="243.012" cy="250.075" r="93.163"/>
<circle style="fill:#C5DEEA;" cx="243.012" cy="250.075" r="65.87"/>
<g>
	<path style="fill:#FFFFFF;" d="M266.105,283.76c-11.092,8.244-23.848,8.801-27.787,3.766c-1.97-2.518-2.677-8.053,0.111-10.234
		c3.417-2.674,10.688,1.06,19.305-4.232l-14.002-17.894c-10.575,3.345-22.58,7.085-31.586-4.424
		c-8.935-11.42-4.352-22.979,3.724-31.184l-1.97-2.517c-0.915-1.169-0.411-3.303,1.298-4.64c1.529-1.196,3.902-1.313,4.817-0.144
		l1.83,2.337c5.984-4.393,16.853-10.143,20.935-4.928c1.619,2.068,3.416,7.33,0.089,9.933c-2.518,1.97-6.838,0.712-13.214,4.976
		l12.383,15.826c10.325-3.295,22.482-6.284,32.051,5.945c8.654,11.06,6.726,22.862-2.078,32.36l2.181,2.788
		c0.914,1.169,0.23,3.445-1.299,4.64c-1.708,1.336-3.902,1.312-4.816,0.144L266.105,283.76z M235.093,242.643l-10.625-13.577
		c-3.933,4.237-4.942,8.505-2.268,11.923C225.297,244.945,229.691,244.262,235.093,242.643z M250.815,253.102l12.242,15.645
		c3.324-3.906,4.282-8.424,0.975-12.651C260.584,251.692,256.019,251.785,250.815,253.102z"/>
	<circle style="fill:#FFFFFF;" cx="372.266" cy="100.373" r="93.163"/>
</g>
<circle style="fill:#C5DEEA;" cx="372.266" cy="100.373" r="65.87"/>
<path style="fill:#FFFFFF;" d="M358.13,138.689c-13.139-4.286-20.966-14.373-19.134-20.499c0.916-3.063,5.024-6.839,8.416-5.825
	c4.157,1.243,5.313,9.334,14.612,13.307l6.51-21.768c-8.842-6.696-18.833-14.331-14.646-28.332
	c4.155-13.892,16.236-16.833,27.6-14.985l0.915-3.063c0.425-1.422,2.459-2.244,4.537-1.623c1.86,0.556,3.327,2.425,2.902,3.847
	l-0.851,2.844c7.044,2.345,18.018,7.89,16.121,14.235c-0.752,2.516-4.007,7.024-8.054,5.814c-3.063-0.916-4.533-5.169-11.698-7.907
	l-5.757,19.252c8.656,6.521,18.123,14.714,13.675,29.592c-4.023,13.455-14.77,18.703-27.608,17.009l-1.014,3.391
	c-0.425,1.422-2.678,2.179-4.538,1.623c-2.078-0.622-3.326-2.425-2.901-3.847L358.13,138.689z M373.757,89.618l4.939-16.518
	c-5.73-0.761-9.798,0.884-11.04,5.041C366.217,82.953,369.314,86.143,373.757,89.618z M374.31,108.493l-5.692,19.033
	c5.109,0.455,9.349-1.375,10.887-6.516C381.108,115.649,378.392,111.976,374.31,108.493z"/>
<g>
	<path style="fill:#EFB691;" d="M439.997,273.983l-16.74-8.857c-19.108-10.109-42.304,2.753-43.848,24.316l-2.836,39.601"/>
	<path style="fill:#EFB691;" d="M477.323,314.607L361.036,428.135c-11.682,11.41-27.094,18.233-43.405,19.205l-163.798,9.822
		c-0.073,0.01-0.146,0.01-0.219,0.021c-9.707,0.648-18.432,6.186-23.615,14.42l-3.365,5.35c-3.814-2.226-7.555-4.556-11.233-6.98
		c-33.708-22.194-61.858-52.14-81.91-87.301l22.173-29.508l1.494,1.536l30.448-44.032c15.203-22.016,39.623-36.342,66.351-37.616
		c1.087-0.042,2.173-0.084,3.25-0.094l147.31-1.776c5.402-0.052,10.376,1.682,14.378,4.629c0.951,0.7,1.86,1.494,2.696,2.33
		c4.483,4.483,7.178,10.731,6.949,17.586c-0.408,12.361-10.23,22.34-22.58,22.925l-92.118,4.504
		c-5.705,0.272-10.773,2.696-14.493,6.416c-4.598,4.598-7.147,11.191-6.301,18.202c0.115,0.94,0.293,1.87,0.512,2.79h0.01
		c2.508,9.979,11.724,17.042,22.277,16.593l105.848-4.462c9.404-0.408,18.401-3.981,25.506-10.146l91.732-79.632
		c10.564-9.153,26.07-9.174,36.634-0.428c0.69,0.554,1.358,1.16,1.996,1.808l0.146,0.146
		C488.723,285.622,488.545,303.625,477.323,314.607z"/>
</g>
<path style="fill:#FFCDA8;" d="M468.556,301.933L352.27,415.471c-11.682,11.41-27.105,18.233-43.415,19.205l-163.788,9.822h-0.084
	c-8.443,0.261-16.311,4.389-20.814,11.546l-3.082,4.901l-5.684,9.028c-33.708-22.194-61.858-52.14-81.91-87.301l9.561-12.716
	l12.612-16.792l31.943-42.496c15.203-22.016,39.623-36.342,66.351-37.616c1.087-0.042,2.173-0.084,3.25-0.094l147.31-1.776
	c5.402-0.052,10.376,1.682,14.378,4.629c0.637,2.299,0.961,4.723,0.878,7.252c-0.408,12.351-10.23,22.329-22.58,22.925
	l-92.118,4.504c-5.705,0.272-10.773,2.685-14.503,6.416c-4.598,4.598-7.137,11.191-6.29,18.202
	c0.773,6.457,4.284,11.964,9.279,15.454h0.01c2.508,9.979,11.724,17.042,22.277,16.593l105.848-4.462
	c9.404-0.408,18.401-3.981,25.506-10.146l91.732-79.632c10.564-9.153,26.07-9.174,36.634-0.428
	C478.984,282.498,476.633,294.033,468.556,301.933z"/>
<g>
</g>
<g>
</g>
<g>
</g>
<g>
</g>
<g>
</g>
<g>
</g>
<g>
</g>
<g>
</g>
<g>
</g>
<g>
</g>
<g>
</g>
<g>
</g>
<g>
</g>
<g>
</g>
<g>
</g>
</svg>
