<?xml version="1.0" encoding="iso-8859-1"?>
<!-- Generator: Adobe Illustrator 21.0.0, SVG Export Plug-In . SVG Version: 6.00 Build 0)  -->
<svg version="1.1" id="Capa_1" xmlns="http://www.w3.org/2000/svg" xmlns:xlink="http://www.w3.org/1999/xlink" x="0px" y="0px"
	 viewBox="0 0 512 512" style="enable-background:new 0 0 512 512;" xml:space="preserve">
<circle style="fill:#384E99;" cx="256" cy="256" r="256"/>
<g>
	<path style="fill:#FFFFFF;" d="M288.917,228.152v147.54c0,12.058-9.78,21.838-21.838,21.838H42.656
		c-9.874-14.848-18.244-30.793-24.879-47.606V228.152c0-12.058,9.77-21.828,21.838-21.828h227.464
		C279.137,206.324,288.917,216.094,288.917,228.152z"/>
	<path style="fill:#FFFFFF;" d="M177.636,383.424l-88.137,67.03c-8.182-7.001-15.903-14.514-23.134-22.486v-42.977L177.636,383.424z
		"/>
</g>
<path style="fill:#C5DEEA;" d="M472.388,13.019H244.924c-12.06,0-21.837,9.776-21.837,21.836v184.107
	c0,12.06,9.777,21.837,21.837,21.837h107.985l72.635,55.244c8.241,6.268,20.095,0.391,20.095-9.963v-45.28h26.748
	c12.06,0,21.836-9.777,21.836-21.837V34.857C494.225,22.797,484.448,13.019,472.388,13.019z"/>
<path style="fill:#FF5B47;" d="M304.561,149.21c0,0.744,0.007,1.487,0.021,2.229c1.295,70.147,106.856,70.147,108.151,0
	c0.014-0.741,0.021-1.484,0.021-2.229c0-41.686-21.542-78.336-54.096-99.441C326.101,70.874,304.561,107.525,304.561,149.21z"/>
<g>
	<rect x="65.306" y="243.942" style="fill:#414142;" width="176.086" height="21.942"/>
	<rect x="65.306" y="290.952" style="fill:#414142;" width="176.086" height="21.942"/>
	<rect x="65.306" y="337.972" style="fill:#414142;" width="176.086" height="21.942"/>
</g>
<g>
</g>
<g>
</g>
<g>
</g>
<g>
</g>
<g>
</g>
<g>
</g>
<g>
</g>
<g>
</g>
<g>
</g>
<g>
</g>
<g>
</g>
<g>
</g>
<g>
</g>
<g>
</g>
<g>
</g>
</svg>
