<?xml version="1.0" encoding="iso-8859-1"?>
<!-- Generator: Adobe Illustrator 21.0.0, SVG Export Plug-In . SVG Version: 6.00 Build 0)  -->
<svg version="1.1" id="Capa_1" xmlns="http://www.w3.org/2000/svg" xmlns:xlink="http://www.w3.org/1999/xlink" x="0px" y="0px"
	 viewBox="0 0 512 512" style="enable-background:new 0 0 512 512;" xml:space="preserve">
<circle style="fill:#C5DEEA;" cx="256" cy="256" r="256"/>
<path style="fill:#1195B2;" d="M498.232,339.048c-15.997,46.686-45.119,87.27-82.954,117.384
	c-43.719,34.785-99.056,55.568-159.274,55.568s-115.566-20.783-159.284-55.578c-37.836-30.104-66.947-70.698-82.944-117.373H498.232
	z"/>
<path style="fill:#088196;" d="M415.277,456.432c-43.719,34.785-99.056,55.568-159.274,55.568s-115.566-20.783-159.284-55.578
	c6.781-32.392,75.504-57.846,159.284-57.846C339.794,398.576,408.517,424.029,415.277,456.432z"/>
<path style="fill:#384E99;" d="M424.336,143.718c-29.535-191.624-307.136-191.624-336.672,0
	c-2.321,15.055-3.524,30.479-3.524,46.182c0,119.972,70.254,223.525,171.861,271.796C357.606,413.425,427.861,309.872,427.861,189.9
	C427.861,174.196,426.656,158.773,424.336,143.718z"/>
<circle style="fill:#263E82;" cx="256" cy="172.21" r="139.797"/>
<path style="fill:#FFFFFF;" d="M367.65,172.209c0,30.102-11.907,57.412-31.263,77.496c-20.318,21.045-48.825,34.149-80.382,34.149
	c-31.568,0-60.075-13.104-80.393-34.161c-19.344-20.084-31.252-47.393-31.252-77.484c0-61.659,49.987-111.645,111.645-111.645
	S367.65,110.551,367.65,172.209z"/>
<path style="fill:#FF5B47;" d="M194.028,197.758c0,0.853,0.008,1.704,0.024,2.553c1.483,80.365,122.42,80.365,123.904,0
	c0.016-0.85,0.024-1.7,0.024-2.553c0-47.757-24.678-89.746-61.975-113.924C218.707,108.012,194.028,150.001,194.028,197.758z"/>
<path style="fill:#FFFFFF;" d="M299.659,171.454h-20.652c-3.5,0-6.338-2.838-6.338-6.338v-20.652c0-3.5-2.838-6.338-6.338-6.338
	h-20.652c-3.5,0-6.338,2.838-6.338,6.338v20.652c0,3.5-2.838,6.338-6.338,6.338h-20.652c-3.5,0-6.338,2.838-6.338,6.338v20.652
	c0,3.5,2.838,6.338,6.338,6.338h20.652c3.5,0,6.338,2.838,6.338,6.338v20.652c0,3.5,2.838,6.338,6.338,6.338h20.652
	c3.5,0,6.338-2.838,6.338-6.338v-20.651c0-3.5,2.838-6.338,6.338-6.338h20.652c3.5,0,6.338-2.838,6.338-6.338v-20.652
	C305.999,174.292,303.161,171.454,299.659,171.454z"/>
<g>
</g>
<g>
</g>
<g>
</g>
<g>
</g>
<g>
</g>
<g>
</g>
<g>
</g>
<g>
</g>
<g>
</g>
<g>
</g>
<g>
</g>
<g>
</g>
<g>
</g>
<g>
</g>
<g>
</g>
</svg>
