<?xml version="1.0" encoding="iso-8859-1"?>
<!-- Generator: Adobe Illustrator 21.0.0, SVG Export Plug-In . SVG Version: 6.00 Build 0)  -->
<svg version="1.1" id="Capa_1" xmlns="http://www.w3.org/2000/svg" xmlns:xlink="http://www.w3.org/1999/xlink" x="0px" y="0px"
	 viewBox="0 0 512 512" style="enable-background:new 0 0 512 512;" xml:space="preserve">
<path style="fill:#1195B2;" d="M512,256c0,22.413-2.884,44.157-8.296,64.878c-15.736,60.249-52.872,111.856-102.807,146.192
	C359.696,495.417,309.791,512,256,512s-103.696-16.583-144.896-44.931C61.158,432.724,24.012,381.106,8.286,320.846
	C2.873,300.136,0,278.403,0,256s2.873-44.136,8.286-64.846c6.865-26.29,17.795-50.939,32.099-73.216C85.901,47,165.46,0,256,0
	s170.099,47,215.615,117.938c14.294,22.267,25.234,46.905,32.089,73.185C509.116,211.843,512,233.587,512,256z"/>
<path style="fill:#E7F5FC;" d="M503.703,117.938v202.94c-15.736,60.249-52.872,111.856-102.807,146.192H111.104
	C61.158,432.724,24.012,381.106,8.286,320.846V117.938H503.703z"/>
<path style="fill:#C5DEEA;" d="M503.708,145.267H8.285V95.108c0-10.967,8.891-19.857,19.857-19.857H483.85
	c10.967,0,19.857,8.891,19.857,19.857V145.267z"/>
<rect x="8.285" y="144.227" style="fill:#91C6E0;" width="495.417" height="13.049"/>
<circle style="fill:#FB5939;" cx="38.413" cy="110.258" r="20.557"/>
<circle style="fill:#FDCB2E;" cx="95.284" cy="110.258" r="20.557"/>
<circle style="fill:#107BA3;" cx="152.168" cy="110.258" r="20.557"/>
<path style="fill:#FFFFFF;" d="M234.143,197.497v210.014H57.931c-14.023-19.048-25.454-40.114-33.802-62.683V197.497
	L234.143,197.497L234.143,197.497z"/>
<g>
	<rect x="262.353" y="197.496" style="fill:#384E99;" width="214.716" height="21.942"/>
	<rect x="262.353" y="244.517" style="fill:#384E99;" width="214.716" height="21.942"/>
	<rect x="262.353" y="291.537" style="fill:#384E99;" width="214.716" height="21.942"/>
	<rect x="262.353" y="338.547" style="fill:#384E99;" width="214.716" height="21.942"/>
	<rect x="262.353" y="385.567" style="fill:#384E99;" width="136.808" height="21.942"/>
</g>
<path style="fill:#FF5B47;" d="M70.654,326.613c0,0.805,0.007,1.608,0.022,2.408c1.399,75.835,115.52,75.835,116.919,0
	c0.015-0.801,0.022-1.604,0.022-2.408c0-45.065-23.288-84.688-58.482-107.502C93.942,241.925,70.654,281.548,70.654,326.613z"/>
<path style="fill:#FFFFFF;" d="M170.331,301.791h-19.488c-3.304,0-5.981-2.678-5.981-5.981v-19.488c0-3.303-2.678-5.981-5.981-5.981
	h-19.488c-3.304,0-5.981,2.678-5.981,5.981v19.488c0,3.303-2.678,5.981-5.981,5.981H87.941c-3.304,0-5.981,2.678-5.981,5.981v19.488
	c0,3.303,2.678,5.981,5.981,5.981h19.488c3.304,0,5.981,2.678,5.981,5.981v19.488c0,3.304,2.678,5.981,5.981,5.981h19.488
	c3.303,0,5.981-2.678,5.981-5.981v-19.488c0-3.304,2.678-5.981,5.981-5.981h19.488c3.304,0,5.981-2.678,5.981-5.981v-19.488
	C176.313,304.469,173.635,301.791,170.331,301.791z"/>
<g>
</g>
<g>
</g>
<g>
</g>
<g>
</g>
<g>
</g>
<g>
</g>
<g>
</g>
<g>
</g>
<g>
</g>
<g>
</g>
<g>
</g>
<g>
</g>
<g>
</g>
<g>
</g>
<g>
</g>
</svg>
