<?xml version="1.0" encoding="iso-8859-1"?>
<!-- Generator: Adobe Illustrator 21.0.0, SVG Export Plug-In . SVG Version: 6.00 Build 0)  -->
<svg version="1.1" id="Capa_1" xmlns="http://www.w3.org/2000/svg" xmlns:xlink="http://www.w3.org/1999/xlink" x="0px" y="0px"
	 viewBox="0 0 512 512" style="enable-background:new 0 0 512 512;" xml:space="preserve">
<circle style="fill:#C5DEEA;" cx="256" cy="256" r="256"/>
<g>
	<rect x="245.551" y="42.383" style="fill:#384E99;" width="20.898" height="87.767"/>
	<rect x="245.551" y="381.848" style="fill:#384E99;" width="20.898" height="87.767"/>
	
		<rect x="160.682" y="65.13" transform="matrix(0.866 -0.5 0.5 0.866 -31.579 100.1728)" style="fill:#384E99;" width="20.897" height="87.765"/>
	
		<rect x="330.423" y="359.117" transform="matrix(0.866 -0.5 0.5 0.866 -155.8338 224.4336)" style="fill:#384E99;" width="20.897" height="87.765"/>
	
		<rect x="98.546" y="127.259" transform="matrix(0.5 -0.866 0.866 0.5 -93.7155 179.9608)" style="fill:#384E99;" width="20.897" height="87.765"/>
	
		<rect x="392.553" y="296.973" transform="matrix(0.5 -0.866 0.866 0.5 -93.6914 519.4314)" style="fill:#384E99;" width="20.897" height="87.765"/>
	<rect x="42.383" y="245.551" style="fill:#384E99;" width="87.767" height="20.898"/>
	<rect x="381.848" y="245.551" style="fill:#384E99;" width="87.767" height="20.898"/>
	
		<rect x="65.116" y="330.428" transform="matrix(0.866 -0.5 0.5 0.866 -155.8385 100.1714)" style="fill:#384E99;" width="87.765" height="20.897"/>
	
		<rect x="359.122" y="160.672" transform="matrix(0.866 -0.5 0.5 0.866 -31.5673 224.4338)" style="fill:#384E99;" width="87.765" height="20.897"/>
	
		<rect x="127.256" y="392.55" transform="matrix(0.5 -0.866 0.866 0.5 -263.4373 349.7049)" style="fill:#384E99;" width="87.765" height="20.897"/>
	
		<rect x="296.976" y="98.563" transform="matrix(0.5 -0.866 0.866 0.5 76.019 349.6951)" style="fill:#384E99;" width="87.765" height="20.897"/>
</g>
<circle style="fill:#FF5B47;" cx="256" cy="256" r="160.465"/>
<path style="fill:#FFFFFF;" d="M211.299,280.126v-48.251c0-31.318,19.483-42.971,44.609-42.971
	c25.128,0,44.792,11.653,44.792,42.971v48.251c0,31.318-19.664,42.97-44.792,42.97C230.782,323.096,211.299,311.443,211.299,280.126
	z M272.296,231.874c0-12.564-6.191-18.208-16.388-18.208c-10.196,0-16.205,5.645-16.205,18.208v48.251
	c0,12.563,6.009,18.207,16.205,18.207c10.197,0,16.388-5.645,16.388-18.207V231.874z"/>
<g>
</g>
<g>
</g>
<g>
</g>
<g>
</g>
<g>
</g>
<g>
</g>
<g>
</g>
<g>
</g>
<g>
</g>
<g>
</g>
<g>
</g>
<g>
</g>
<g>
</g>
<g>
</g>
<g>
</g>
</svg>
