<?xml version="1.0" encoding="iso-8859-1"?>
<!-- Generator: Adobe Illustrator 21.0.0, SVG Export Plug-In . SVG Version: 6.00 Build 0)  -->
<svg version="1.1" id="Capa_1" xmlns="http://www.w3.org/2000/svg" xmlns:xlink="http://www.w3.org/1999/xlink" x="0px" y="0px"
	 viewBox="0 0 512 512" style="enable-background:new 0 0 512 512;" xml:space="preserve">
<circle style="fill:#C5DEEA;" cx="256" cy="256" r="256"/>
<rect x="245.551" y="42.383" style="fill:#384E99;" width="20.898" height="87.767"/>
<circle style="fill:#E53E2D;" cx="256" cy="42.383" r="28.995"/>
<rect x="245.551" y="381.848" style="fill:#384E99;" width="20.898" height="87.767"/>
<circle style="fill:#E53E2D;" cx="256" cy="469.619" r="28.995"/>
<rect x="160.682" y="65.13" transform="matrix(0.866 -0.5 0.5 0.866 -31.579 100.1728)" style="fill:#384E99;" width="20.897" height="87.765"/>
<circle style="fill:#E53E2D;" cx="149.191" cy="71.003" r="28.995"/>
<rect x="330.423" y="359.117" transform="matrix(0.866 -0.5 0.5 0.866 -155.8338 224.4336)" style="fill:#384E99;" width="20.897" height="87.765"/>
<circle style="fill:#E53E2D;" cx="362.809" cy="440.999" r="28.995"/>
<rect x="98.546" y="127.259" transform="matrix(0.5 -0.866 0.866 0.5 -93.7155 179.9608)" style="fill:#384E99;" width="20.897" height="87.765"/>
<circle style="fill:#E53E2D;" cx="71.003" cy="149.191" r="28.995"/>
<rect x="392.553" y="296.973" transform="matrix(0.5 -0.866 0.866 0.5 -93.6914 519.4314)" style="fill:#384E99;" width="20.897" height="87.765"/>
<circle style="fill:#E53E2D;" cx="440.999" cy="362.809" r="28.995"/>
<rect x="42.383" y="245.551" style="fill:#384E99;" width="87.767" height="20.898"/>
<circle style="fill:#E53E2D;" cx="42.383" cy="256" r="28.995"/>
<rect x="381.848" y="245.551" style="fill:#384E99;" width="87.767" height="20.898"/>
<circle style="fill:#E53E2D;" cx="469.619" cy="256" r="28.995"/>
<rect x="65.116" y="330.428" transform="matrix(0.866 -0.5 0.5 0.866 -155.8385 100.1714)" style="fill:#384E99;" width="87.765" height="20.897"/>
<circle style="fill:#E53E2D;" cx="71.003" cy="362.809" r="28.995"/>
<rect x="359.122" y="160.672" transform="matrix(0.866 -0.5 0.5 0.866 -31.5673 224.4338)" style="fill:#384E99;" width="87.765" height="20.897"/>
<circle style="fill:#E53E2D;" cx="440.999" cy="149.191" r="28.995"/>
<rect x="127.256" y="392.55" transform="matrix(0.5 -0.866 0.866 0.5 -263.4373 349.7049)" style="fill:#384E99;" width="87.765" height="20.897"/>
<circle style="fill:#E53E2D;" cx="149.191" cy="440.999" r="28.995"/>
<rect x="296.976" y="98.563" transform="matrix(0.5 -0.866 0.866 0.5 76.019 349.6951)" style="fill:#384E99;" width="87.765" height="20.897"/>
<circle style="fill:#E53E2D;" cx="362.809" cy="71.003" r="28.995"/>
<circle style="fill:#FF5B47;" cx="256" cy="256" r="160.465"/>
<path style="fill:#FFFFFF;" d="M203.106,311.443c0-0.547,0.182-1.275,0.365-2.003l33.866-111.067
	c2.003-6.373,10.196-9.469,18.572-9.469s16.568,3.095,18.571,9.469l34.049,111.067c0.183,0.728,0.365,1.457,0.365,2.003
	c0,6.736-10.379,11.653-18.208,11.653c-4.552,0-8.194-1.457-9.286-5.28l-6.191-22.76H236.79l-6.191,22.76
	c-1.093,3.823-4.734,5.28-9.286,5.28C213.485,323.096,203.106,318.18,203.106,311.443z M269.201,273.206l-13.292-48.797
	l-13.292,48.797H269.201z"/>
<g>
</g>
<g>
</g>
<g>
</g>
<g>
</g>
<g>
</g>
<g>
</g>
<g>
</g>
<g>
</g>
<g>
</g>
<g>
</g>
<g>
</g>
<g>
</g>
<g>
</g>
<g>
</g>
<g>
</g>
</svg>
