<?xml version="1.0" encoding="iso-8859-1"?>
<!-- Generator: Adobe Illustrator 21.0.0, SVG Export Plug-In . SVG Version: 6.00 Build 0)  -->
<svg version="1.1" id="Capa_1" xmlns="http://www.w3.org/2000/svg" xmlns:xlink="http://www.w3.org/1999/xlink" x="0px" y="0px"
	 viewBox="0 0 512 512" style="enable-background:new 0 0 512 512;" xml:space="preserve">
<circle style="fill:#FFCDA8;" cx="256" cy="256" r="256"/>
<path style="fill:#E53E2D;" d="M252.876,460.036c0,0,0,0-0.024-0.024c-0.024-0.024-0.048-0.024-0.096-0.048
	C23.551,378.73-67.166,149.524,61.791,82.645c66.426-34.443,115.128-14.403,146.729,13.136
	c28.448,24.793,43.041,55.653,44.284,58.328c0.024,0.048,0.048,0.096,0.048,0.119l0.024,0.072l0.024-0.072
	c0.096-0.191,0.405-0.908,1.003-2.101c8.6-17.341,70.701-131.394,190.058-69.483c11.871,6.163,21.879,13.686,30.072,22.357h0.024
	c5.996,6.33,11.035,13.281,15.144,20.733c4.92,8.933,8.503,18.606,10.749,28.854C521.373,251.062,427.168,398.316,252.876,460.036z"
	/>
<path style="fill:#FF5B47;" d="M252.875,460.036c0,0,0,0-0.021-0.021c-0.021-0.021-0.043-0.021-0.086-0.043
	C47.972,387.389-33.085,182.593,82.14,122.836c59.351-30.774,102.867-12.869,131.102,11.738
	c25.418,22.153,38.457,49.727,39.568,52.116c0.021,0.043,0.043,0.086,0.043,0.107l0.021,0.064l0.021-0.064
	c0.086-0.17,0.363-0.811,0.897-1.878c7.683-15.494,63.171-117.402,169.817-62.084c10.607,5.507,19.549,12.228,26.87,19.976h0.021
	c5.357,5.656,9.86,11.866,13.53,18.525c4.397,7.982,7.597,16.625,9.604,25.781C492.777,273.317,408.605,404.889,252.875,460.036z"/>
<g>
</g>
<g>
</g>
<g>
</g>
<g>
</g>
<g>
</g>
<g>
</g>
<g>
</g>
<g>
</g>
<g>
</g>
<g>
</g>
<g>
</g>
<g>
</g>
<g>
</g>
<g>
</g>
<g>
</g>
</svg>
