<?xml version="1.0" encoding="iso-8859-1"?>
<!-- Generator: Adobe Illustrator 21.0.0, SVG Export Plug-In . SVG Version: 6.00 Build 0)  -->
<svg version="1.1" id="Capa_1" xmlns="http://www.w3.org/2000/svg" xmlns:xlink="http://www.w3.org/1999/xlink" x="0px" y="0px"
	 viewBox="0 0 512 512" style="enable-background:new 0 0 512 512;" xml:space="preserve">
<circle style="fill:#C5DEEA;" cx="256" cy="256" r="256"/>
<g>
	<rect x="245.551" y="42.383" style="fill:#384E99;" width="20.898" height="87.767"/>
	<rect x="245.551" y="381.848" style="fill:#384E99;" width="20.898" height="87.767"/>
</g>
<g>
	
		<rect x="229.292" y="15.673" transform="matrix(0.7071 -0.7071 0.7071 0.7071 45.013 193.4319)" style="fill:#1195B2;" width="53.415" height="53.415"/>
	
		<rect x="229.293" y="442.906" transform="matrix(0.7071 -0.7071 0.7071 0.7071 -257.0858 318.5662)" style="fill:#1195B2;" width="53.415" height="53.415"/>
</g>
<g>
	
		<rect x="125.532" y="92.098" transform="matrix(0.7071 -0.7071 0.7071 0.7071 -56.3257 135.9808)" style="fill:#384E99;" width="20.898" height="87.766"/>
	
		<rect x="365.568" y="332.128" transform="matrix(0.7071 -0.7071 0.7071 0.7071 -155.747 376.0155)" style="fill:#384E99;" width="20.898" height="87.766"/>
</g>
<g>
	<rect x="78.241" y="78.241" style="fill:#1195B2;" width="53.415" height="53.415"/>
	<rect x="380.343" y="380.343" style="fill:#1195B2;" width="53.415" height="53.415"/>
</g>
<g>
	<rect x="42.383" y="245.551" style="fill:#384E99;" width="87.767" height="20.898"/>
	<rect x="381.848" y="245.551" style="fill:#384E99;" width="87.767" height="20.898"/>
</g>
<g>
	
		<rect x="15.673" y="229.292" transform="matrix(0.7071 -0.7071 0.7071 0.7071 -168.606 104.9481)" style="fill:#1195B2;" width="53.415" height="53.415"/>
	
		<rect x="442.906" y="229.293" transform="matrix(0.7071 -0.7071 0.7071 0.7071 -43.4732 407.0475)" style="fill:#1195B2;" width="53.415" height="53.415"/>
</g>
<g>
	
		<rect x="92.101" y="365.563" transform="matrix(0.7071 -0.7071 0.7071 0.7071 -226.052 206.2864)" style="fill:#384E99;" width="87.766" height="20.898"/>
	
		<rect x="332.13" y="125.532" transform="matrix(0.7071 -0.7071 0.7071 0.7071 13.979 305.7093)" style="fill:#384E99;" width="87.766" height="20.898"/>
</g>
<g>
	<rect x="78.241" y="380.343" style="fill:#1195B2;" width="53.415" height="53.415"/>
	<rect x="380.343" y="78.241" style="fill:#1195B2;" width="53.415" height="53.415"/>
</g>
<circle style="fill:#FF5B47;" cx="256" cy="256" r="160.465"/>
<path style="fill:#FFFFFF;" d="M211.3,198.19c0-5.826,6.19-8.74,12.381-8.74h37.327c18.208,0,36.417,6.555,36.417,32.411
	c0,14.749-5.826,24.398-15.478,28.586c11.107,4.188,18.754,10.924,18.754,29.133v3.823c0,28.768-16.022,39.147-36.598,39.147
	h-40.422c-7.647,0-12.381-4.005-12.381-8.558L211.3,198.19L211.3,198.19z M239.521,239.522h19.118
	c6.919,0,10.379-6.373,10.379-12.563c0-6.373-3.46-12.746-10.379-12.746h-19.118L239.521,239.522L239.521,239.522z M257.729,297.788
	c9.104,0,14.566-5.098,14.566-16.752v-2.913c0-12.381-5.463-16.751-14.566-16.751h-18.208v36.416H257.729z"/>
<g>
</g>
<g>
</g>
<g>
</g>
<g>
</g>
<g>
</g>
<g>
</g>
<g>
</g>
<g>
</g>
<g>
</g>
<g>
</g>
<g>
</g>
<g>
</g>
<g>
</g>
<g>
</g>
<g>
</g>
</svg>
