<?xml version="1.0" encoding="iso-8859-1"?>
<!-- Generator: Adobe Illustrator 21.0.0, SVG Export Plug-In . SVG Version: 6.00 Build 0)  -->
<svg version="1.1" id="Capa_1" xmlns="http://www.w3.org/2000/svg" xmlns:xlink="http://www.w3.org/1999/xlink" x="0px" y="0px"
	 viewBox="0 0 512 512" style="enable-background:new 0 0 512 512;" xml:space="preserve">
<circle style="fill:#C5DEEA;" cx="256" cy="256" r="256"/>
<rect x="160.682" y="65.13" transform="matrix(0.866 -0.5 0.5 0.866 -31.579 100.1728)" style="fill:#384E99;" width="20.897" height="87.765"/>
<circle style="fill:#E53E2D;" cx="149.191" cy="71.003" r="28.995"/>
<rect x="330.423" y="359.117" transform="matrix(0.866 -0.5 0.5 0.866 -155.8338 224.4336)" style="fill:#384E99;" width="20.897" height="87.765"/>
<circle style="fill:#E53E2D;" cx="362.809" cy="440.999" r="28.995"/>
<rect x="42.383" y="245.551" style="fill:#384E99;" width="87.767" height="20.898"/>
<circle style="fill:#E53E2D;" cx="42.383" cy="256" r="28.995"/>
<rect x="381.848" y="245.551" style="fill:#384E99;" width="87.767" height="20.898"/>
<circle style="fill:#E53E2D;" cx="469.619" cy="256" r="28.995"/>
<rect x="127.256" y="392.55" transform="matrix(0.5 -0.866 0.866 0.5 -263.4373 349.7049)" style="fill:#384E99;" width="87.765" height="20.897"/>
<circle style="fill:#E53E2D;" cx="149.191" cy="440.999" r="28.995"/>
<rect x="296.976" y="98.563" transform="matrix(0.5 -0.866 0.866 0.5 76.019 349.6951)" style="fill:#384E99;" width="87.765" height="20.897"/>
<circle style="fill:#E53E2D;" cx="362.809" cy="71.003" r="28.995"/>
<g>
	<rect x="245.551" y="42.383" style="fill:#384E99;" width="20.898" height="87.767"/>
	<rect x="245.551" y="381.848" style="fill:#384E99;" width="20.898" height="87.767"/>
</g>
<g>
	
		<rect x="229.292" y="15.673" transform="matrix(0.7071 -0.7071 0.7071 0.7071 45.013 193.4319)" style="fill:#1195B2;" width="53.415" height="53.415"/>
	
		<rect x="229.293" y="442.906" transform="matrix(0.7071 -0.7071 0.7071 0.7071 -257.0858 318.5662)" style="fill:#1195B2;" width="53.415" height="53.415"/>
</g>
<g>
	
		<rect x="98.546" y="127.259" transform="matrix(0.5 -0.866 0.866 0.5 -93.7155 179.9608)" style="fill:#384E99;" width="20.897" height="87.765"/>
	
		<rect x="392.553" y="296.973" transform="matrix(0.5 -0.866 0.866 0.5 -93.6914 519.4314)" style="fill:#384E99;" width="20.897" height="87.765"/>
</g>
<g>
	
		<rect x="44.289" y="122.481" transform="matrix(0.9659 -0.2588 0.2588 0.9659 -36.1921 23.4573)" style="fill:#1195B2;" width="53.414" height="53.414"/>
	
		<rect x="414.27" y="336.106" transform="matrix(0.9659 -0.2588 0.2588 0.9659 -78.8742 126.4897)" style="fill:#1195B2;" width="53.414" height="53.414"/>
</g>
<g>
	
		<rect x="65.116" y="330.428" transform="matrix(0.866 -0.5 0.5 0.866 -155.8385 100.1714)" style="fill:#384E99;" width="87.765" height="20.897"/>
	
		<rect x="359.122" y="160.672" transform="matrix(0.866 -0.5 0.5 0.866 -31.5673 224.4338)" style="fill:#384E99;" width="87.765" height="20.897"/>
</g>
<g>
	
		<rect x="44.289" y="336.1" transform="matrix(0.2588 -0.9659 0.9659 0.2588 -297.8241 337.4867)" style="fill:#1195B2;" width="53.414" height="53.414"/>
	
		<rect x="414.28" y="122.487" transform="matrix(0.2588 -0.9659 0.9659 0.2588 182.7448 536.5429)" style="fill:#1195B2;" width="53.414" height="53.414"/>
</g>
<circle style="fill:#FF5B47;" cx="256" cy="256" r="160.465"/>
<g>
	<path style="fill:#FFFFFF;" d="M153.125,311.443c0-0.547,0.182-1.275,0.365-2.003l33.867-111.067
		c2.003-6.373,10.196-9.469,18.572-9.469c8.376,0,16.568,3.095,18.571,9.469l34.049,111.067c0.183,0.728,0.365,1.457,0.365,2.003
		c0,6.736-10.379,11.653-18.208,11.653c-4.552,0-8.194-1.457-9.286-5.28l-6.191-22.76h-38.419l-6.191,22.76
		c-1.093,3.823-4.734,5.28-9.286,5.28C163.504,323.096,153.125,318.18,153.125,311.443z M219.22,273.206l-13.292-48.797
		l-13.292,48.797H219.22z"/>
	<path style="fill:#FFFFFF;" d="M269.475,198.736c0-5.826,6.191-8.74,12.381-8.74h37.327c18.208,0,36.417,6.555,36.417,32.411
		c0,14.749-5.826,24.398-15.478,28.586c11.107,4.188,18.754,10.924,18.754,29.133v3.823c0,28.768-16.022,39.147-36.596,39.147
		h-40.423c-7.647,0-12.381-4.005-12.381-8.558V198.736z M297.697,240.068h19.118c6.919,0,10.379-6.373,10.379-12.563
		c0-6.373-3.46-12.746-10.379-12.746h-19.118V240.068z M315.905,298.333c9.104,0,14.566-5.098,14.566-16.752v-2.913
		c0-12.381-5.463-16.751-14.566-16.751h-18.208v36.416H315.905z"/>
</g>
<g>
</g>
<g>
</g>
<g>
</g>
<g>
</g>
<g>
</g>
<g>
</g>
<g>
</g>
<g>
</g>
<g>
</g>
<g>
</g>
<g>
</g>
<g>
</g>
<g>
</g>
<g>
</g>
<g>
</g>
</svg>
