<?xml version="1.0" encoding="iso-8859-1"?>
<!-- Generator: Adobe Illustrator 21.0.0, SVG Export Plug-In . SVG Version: 6.00 Build 0)  -->
<svg version="1.1" id="Capa_1" xmlns="http://www.w3.org/2000/svg" xmlns:xlink="http://www.w3.org/1999/xlink" x="0px" y="0px"
	 viewBox="0 0 512 512" style="enable-background:new 0 0 512 512;" xml:space="preserve">
<path style="fill:#00A6F9;" d="M512,256c0,63.582-23.176,121.761-61.565,166.524c-31.639,36.916-73.623,64.721-121.458,78.921
	c-12.466,3.699-25.328,6.478-38.515,8.244c-11.274,1.526-22.779,2.309-34.461,2.309c-11.692,0-23.197-0.784-34.471-2.309
	c-13.187-1.766-26.049-4.545-38.515-8.244c-47.835-14.2-89.808-42.005-121.448-78.921C23.179,377.761,0.003,319.582,0.003,256
	c0-141.384,114.614-255.998,255.998-255.998S512,114.616,512,256z"/>
<path style="fill:#DEAB85;" d="M450.435,354.889v67.636c-31.639,36.916-73.623,64.721-121.458,78.921
	c-12.466,3.699-25.328,6.478-38.515,8.244l0.01-154.801L450.435,354.889L450.435,354.889z"/>
<path style="fill:#BD8062;" d="M328.977,354.889v146.556c-12.466,3.699-25.328,6.478-38.515,8.244l0.01-154.801H328.977z"/>
<path style="fill:#DEAB85;" d="M508.518,252.668c-7.114,12.827-7.124,41.619-7.124,41.784c0,0-0.525,110.973-80.676,110.973
	c-29.966,0-72.153,0-72.153,0c-59.151,0-92.566-60.541-92.566-112.63V177.108c0-13.373,10.85-24.223,24.223-24.223
	c6.691,0,12.745,2.718,17.13,7.093c4.385,4.385,7.093,10.449,7.093,17.129v-49.052c0-13.383,10.85-24.223,24.223-24.223
	c6.691,0,12.745,2.707,17.13,7.093c4.385,4.385,7.093,10.438,7.093,17.13V90.286c0-13.383,10.85-24.223,24.233-24.223
	c6.681,0,12.745,2.707,17.13,7.093c4.375,4.385,7.093,10.438,7.093,17.13v30.501c0-13.383,10.84-24.223,24.212-24.223
	c6.691,0,12.745,2.707,17.13,7.093c4.385,4.385,7.093,10.438,7.093,17.129v129.945c2.481-8.565,5.94-16.903,10.377-24.891
	c7.402-13.362,24.233-18.18,37.595-10.769C511.112,222.485,515.93,239.316,508.518,252.668z"/>
<g>
	<path style="fill:#BD8062;" d="M365.036,405.425c-9.851,0-16.471,0-16.471,0c-59.151,0-92.566-60.541-92.566-112.63V177.108
		c0-13.373,10.85-24.223,24.223-24.223c2.892,0,5.662,0.505,8.236,1.441c-9.316,3.367-15.987,12.301-15.987,22.781v115.687
		C272.469,344.884,305.885,405.425,365.036,405.425z"/>
	<path style="fill:#BD8062;" d="M304.444,241.339V128.621c0-13.234,10.377-24.453,23.606-24.78c3.116-0.077,6.096,0.431,8.852,1.434
		c-9.316,3.367-15.987,12.302-15.987,22.781v113.284c0,4.548-3.687,8.236-8.236,8.236l0,0
		C308.13,249.575,304.444,245.888,304.444,241.339z"/>
	<path style="fill:#BD8062;" d="M352.888,231.2V90.286c0-13.234,10.377-24.453,23.606-24.78c3.116-0.077,6.096,0.43,8.852,1.434
		c-9.316,3.367-15.987,12.302-15.987,22.781v141.478c0,4.548-3.687,8.236-8.236,8.236l0,0
		C356.576,239.434,352.888,235.748,352.888,231.2z"/>
	<path style="fill:#BD8062;" d="M401.344,239.086V120.788c0-13.234,10.377-24.453,23.606-24.78c3.116-0.077,6.096,0.43,8.852,1.434
		c-9.316,3.367-15.987,12.302-15.987,22.781v118.863c0,4.548-3.687,8.236-8.236,8.236l0,0
		C405.031,247.321,401.344,243.634,401.344,239.086z"/>
	<path style="fill:#BD8062;" d="M502.485,218.388c-11.601-2.491-23.934,2.718-29.977,13.63
		c-10.201,18.374-15.267,38.644-15.019,59.109c-31.278,0-57.288,22.498-62.738,52.188c-0.576,3.135-3.275,5.428-6.461,5.428l0,0
		c-3.933,0-6.977-3.435-6.53-7.342c3.64-31.778,30.622-56.451,63.376-56.451c-0.247-20.465,4.818-40.735,15.019-59.11
		c7.402-13.362,24.233-18.18,37.595-10.769C499.469,216.031,501.054,217.143,502.485,218.388z"/>
</g>
<path style="fill:#DEAB85;" d="M221.531,509.689c-13.187-1.766-26.049-4.545-38.515-8.244
	c-47.835-14.2-89.808-42.005-121.448-78.921v-67.636H221.52L221.531,509.689z"/>
<path style="fill:#BD8062;" d="M221.531,509.689c-13.187-1.766-26.049-4.545-38.515-8.244V354.889h38.504L221.531,509.689z"/>
<path style="fill:#DEAB85;" d="M3.48,252.668c7.114,12.827,7.124,41.619,7.124,41.784c0,0,0.525,110.973,80.676,110.973
	c29.966,0,72.153,0,72.153,0c59.151,0,92.566-60.541,92.566-112.63V177.108c0-13.373-10.85-24.223-24.223-24.223
	c-6.691,0-12.745,2.718-17.13,7.093c-4.385,4.385-7.093,10.449-7.093,17.129v-49.052c0-13.383-10.85-24.223-24.223-24.223
	c-6.691,0-12.745,2.707-17.13,7.093s-7.093,10.438-7.093,17.13V90.286c0-13.383-10.85-24.223-24.233-24.223
	c-6.681,0-12.745,2.707-17.13,7.093c-4.375,4.385-7.093,10.438-7.093,17.13v30.501c0-13.383-10.84-24.223-24.212-24.223
	c-6.691,0-12.745,2.707-17.13,7.093c-4.385,4.385-7.093,10.438-7.093,17.129v129.945c-2.481-8.565-5.94-16.903-10.377-24.891
	c-7.402-13.362-24.233-18.18-37.595-10.769C0.885,222.485-3.933,239.316,3.48,252.668z"/>
<g>
	<path style="fill:#BD8062;" d="M146.961,405.425c9.851,0,16.471,0,16.471,0c59.151,0,92.566-60.541,92.566-112.63V177.108
		c0-13.373-10.85-24.223-24.223-24.223c-2.892,0-5.662,0.505-8.236,1.441c9.316,3.367,15.987,12.301,15.987,22.781v115.687
		C239.528,344.884,206.112,405.425,146.961,405.425z"/>
	<path style="fill:#BD8062;" d="M207.553,241.339V128.621c0-13.234-10.377-24.453-23.606-24.78
		c-3.116-0.077-6.096,0.431-8.852,1.434c9.316,3.367,15.987,12.302,15.987,22.781v113.284c0,4.548,3.687,8.236,8.236,8.236l0,0
		C203.867,249.575,207.553,245.888,207.553,241.339z"/>
	<path style="fill:#BD8062;" d="M159.109,231.2V90.286c0-13.234-10.377-24.453-23.606-24.78c-3.116-0.077-6.096,0.43-8.852,1.434
		c9.316,3.367,15.987,12.302,15.987,22.781v141.478c0,4.548,3.687,8.236,8.236,8.236l0,0
		C155.422,239.434,159.109,235.748,159.109,231.2z"/>
	<path style="fill:#BD8062;" d="M110.653,239.086V120.788c0-13.234-10.377-24.453-23.606-24.78c-3.116-0.077-6.096,0.43-8.852,1.434
		c9.316,3.367,15.987,12.302,15.987,22.781v118.863c0,4.548,3.687,8.236,8.236,8.236l0,0
		C106.967,247.321,110.653,243.634,110.653,239.086z"/>
	<path style="fill:#BD8062;" d="M9.512,218.388c11.601-2.491,23.934,2.718,29.977,13.63c10.202,18.374,15.267,38.644,15.019,59.109
		c31.278,0,57.288,22.498,62.738,52.188c0.576,3.135,3.275,5.428,6.461,5.428l0,0c3.933,0,6.977-3.435,6.53-7.342
		c-3.64-31.778-30.622-56.451-63.376-56.451c0.247-20.465-4.818-40.735-15.019-59.11c-7.402-13.362-24.233-18.18-37.595-10.769
		C12.528,216.031,10.943,217.143,9.512,218.388z"/>
</g>
<path style="fill:#FF5B47;" d="M175.523,176.154c0,1.108,0.01,2.212,0.03,3.315c1.926,104.362,158.974,104.362,160.901,0
	c0.02-1.102,0.03-2.208,0.03-3.315c0-62.017-32.048-116.544-80.481-147.942C207.571,59.609,175.523,114.135,175.523,176.154z"/>
<path style="fill:#E53E2D;" d="M256.002,257.746c-39.745,0-79.489-26.095-80.448-78.278c-0.024-1.097-0.032-2.203-0.032-3.309
	c0-62.019,32.046-116.551,80.481-147.946c-20.055,31.396-33.33,85.928-33.33,147.946c0,1.105,0.008,2.211,0.017,3.309
	C223.086,231.651,239.548,257.746,256.002,257.746z"/>
<path style="fill:#FC8980;" d="M318.851,189.507c-1.395,12.494-10.664,21.713-20.703,20.593
	c-10.039-1.121-17.047-12.157-15.652-24.651c1.395-12.494,14.002-51.606,24.041-50.486
	C316.575,136.084,320.246,177.015,318.851,189.507z"/>
<g>
</g>
<g>
</g>
<g>
</g>
<g>
</g>
<g>
</g>
<g>
</g>
<g>
</g>
<g>
</g>
<g>
</g>
<g>
</g>
<g>
</g>
<g>
</g>
<g>
</g>
<g>
</g>
<g>
</g>
</svg>
