<?xml version="1.0" encoding="iso-8859-1"?>
<!-- Generator: Adobe Illustrator 21.0.0, SVG Export Plug-In . SVG Version: 6.00 Build 0)  -->
<svg version="1.1" id="Capa_1" xmlns="http://www.w3.org/2000/svg" xmlns:xlink="http://www.w3.org/1999/xlink" x="0px" y="0px"
	 viewBox="0 0 512 512" style="enable-background:new 0 0 512 512;" xml:space="preserve">
<circle style="fill:#1195B2;" cx="256" cy="256" r="256"/>
<path style="fill:#E6EDFF;" d="M450.354,106.861v315.768c-46.947,54.711-116.6,89.37-194.351,89.37
	c-77.761,0-147.425-34.67-194.361-89.391V106.861L450.354,106.861L450.354,106.861z"/>
<rect x="61.642" y="106.862" style="fill:#C0CDEA;" width="388.712" height="49.309"/>
<path style="fill:#FF5B47;" d="M448.497,128.804H63.503c-9.211,0-16.678-7.467-16.678-16.678v-63.82
	c0-9.211,7.467-16.678,16.678-16.678h384.995c9.211,0,16.678,7.467,16.678,16.678v63.82
	C465.175,121.337,457.708,128.804,448.497,128.804z"/>
<path style="fill:#384E99;" d="M354.743,176.869H157.257c-6.925,0-12.539-5.614-12.539-12.539l0,0
	c0-6.925,5.614-12.539,12.539-12.539h197.486c6.925,0,12.539,5.614,12.539,12.539l0,0
	C367.282,171.255,361.667,176.869,354.743,176.869z"/>
<g>
	<circle style="fill:#C5DEEA;" cx="192.564" cy="235.384" r="24.033"/>
	<circle style="fill:#C5DEEA;" cx="256" cy="235.384" r="24.033"/>
</g>
<circle style="fill:#384E99;" cx="382.861" cy="235.384" r="24.033"/>
<g>
	<circle style="fill:#C5DEEA;" cx="192.564" cy="303.303" r="24.033"/>
	<circle style="fill:#C5DEEA;" cx="256" cy="303.303" r="24.033"/>
	<circle style="fill:#C5DEEA;" cx="319.425" cy="303.303" r="24.033"/>
</g>
<circle style="fill:#384E99;" cx="382.861" cy="303.303" r="24.033"/>
<g>
	<circle style="fill:#C5DEEA;" cx="129.139" cy="371.221" r="24.033"/>
	<circle style="fill:#C5DEEA;" cx="192.564" cy="371.221" r="24.033"/>
	<circle style="fill:#C5DEEA;" cx="256" cy="371.221" r="24.033"/>
	<circle style="fill:#C5DEEA;" cx="319.425" cy="371.221" r="24.033"/>
</g>
<circle style="fill:#384E99;" cx="382.861" cy="371.221" r="24.033"/>
<g>
	<circle style="fill:#C5DEEA;" cx="129.139" cy="439.139" r="24.033"/>
	<circle style="fill:#C5DEEA;" cx="192.564" cy="439.139" r="24.033"/>
</g>
<g>
	<circle style="fill:#263E82;" cx="168.615" cy="80.386" r="23.509"/>
	<circle style="fill:#263E82;" cx="343.385" cy="80.05" r="23.509"/>
</g>
<g>
	<path style="fill:#FF5B47;" d="M107.387,305.338c0,0.289,0.003,0.578,0.008,0.865c0.503,27.235,41.488,27.235,41.99,0
		c0.005-0.287,0.008-0.576,0.008-0.865c0-16.184-8.363-30.415-21.002-38.608C115.751,274.924,107.387,289.154,107.387,305.338z"/>
	<path style="fill:#FF5B47;" d="M297.679,237.42c0,0.289,0.003,0.578,0.008,0.865c0.503,27.235,41.488,27.235,41.99,0
		c0.005-0.287,0.008-0.576,0.008-0.865c0-16.184-8.363-30.415-21.002-38.608C306.042,207.006,297.679,221.235,297.679,237.42z"/>
	<path style="fill:#FF5B47;" d="M234.248,441.175c0,0.289,0.003,0.578,0.008,0.865c0.503,27.235,41.488,27.235,41.99,0
		c0.005-0.287,0.008-0.576,0.008-0.865c0-16.184-8.363-30.415-21.002-38.608C242.612,410.761,234.248,424.99,234.248,441.175z"/>
</g>
<g>
</g>
<g>
</g>
<g>
</g>
<g>
</g>
<g>
</g>
<g>
</g>
<g>
</g>
<g>
</g>
<g>
</g>
<g>
</g>
<g>
</g>
<g>
</g>
<g>
</g>
<g>
</g>
<g>
</g>
</svg>
