<?xml version="1.0" encoding="iso-8859-1"?>
<!-- Generator: Adobe Illustrator 21.0.0, SVG Export Plug-In . SVG Version: 6.00 Build 0)  -->
<svg version="1.1" id="Capa_1" xmlns="http://www.w3.org/2000/svg" xmlns:xlink="http://www.w3.org/1999/xlink" x="0px" y="0px"
	 viewBox="0 0 512 512" style="enable-background:new 0 0 512 512;" xml:space="preserve">
<circle style="fill:#384E99;" cx="256" cy="256" r="256"/>
<path style="fill:#EFB691;" d="M176.216,423.448l-58.675,47.872c-53.244-34.185-89.746-85.096-106.719-141.711l56.467-46.061
	l5.134,6.594L176.216,423.448z"/>
<path style="fill:#F9E6B3;" d="M176.22,423.446l-28.735,23.441c0,0-68.823-18.427-102.712-86.253
	c-6.703-13.424-12.037-28.773-15.204-46.309l37.722-30.773l5.132,6.588L176.22,423.446z"/>
<path style="fill:#FFCDA8;" d="M176.22,423.446l-28.735,23.441c0,0-68.823-18.427-102.712-86.253
	c-6.703-13.424-12.037-28.773-15.204-46.309l37.722-30.773l5.132,6.588L176.22,423.446z"/>
<path style="fill:#EFB691;" d="M77.919,333.594l-33.147,27.041c-6.703-13.424-12.037-28.773-15.204-46.309l37.722-30.773
	l5.132,6.588L77.919,333.594z"/>
<path style="fill:#FFCDA8;" d="M319.046,376.178c-15.975,2.879-40.652,22.994-40.793,23.109c0,0-95.487,77.146-151.526,8.451
	c-20.945-25.674-50.447-61.839-50.447-61.839c-41.357-50.696-12.832-121.664,31.82-158.09l47.881-39.06
	c5.726-4.671,12.816-6.59,19.64-5.897c6.816,0.7,13.377,3.987,18.056,9.722c9.357,11.47,7.643,28.355-3.817,37.705l20.76-16.936
	c5.734-4.678,12.816-6.59,19.64-5.897c6.824,0.693,13.377,3.987,18.056,9.722c4.671,5.726,6.59,12.816,5.897,19.64
	c-0.7,6.816-3.987,13.377-9.722,18.056l5.293-4.319c5.734-4.678,12.816-6.59,19.64-5.897c6.824,0.693,13.377,3.987,18.056,9.722
	c9.35,11.46,7.636,28.346-3.824,37.696l73.503-59.963c11.459-9.333,28.328-7.621,37.678,3.839
	c4.671,5.726,6.583,12.806,5.882,19.639c-0.693,6.824-3.98,13.386-9.706,18.057L279.643,324.49c0,0,7.859-4.795,28.581-8.519
	c16.627-2.999,32.525,8.058,35.514,24.693C346.728,357.298,335.671,373.195,319.046,376.178z"/>
<g>
	<path style="fill:#EFB691;" d="M73.668,337.061l-2.462,2.008c-33.731-50.061-5.778-116.447,36.898-151.262l47.875-39.055
		c5.732-4.676,12.811-6.594,19.641-5.909c6.82,0.706,13.371,3.993,18.054,9.733c1.843,2.259,3.263,4.727,4.25,7.308
		c-3.569-2.293-7.61-3.676-11.742-4.095c-6.829-0.685-13.915,1.225-19.647,5.901l-47.875,39.055
		C80.112,232.192,53.581,289.395,73.668,337.061z"/>
	<path style="fill:#EFB691;" d="M184.295,205.593c-2.915-3.575-2.382-8.836,1.192-11.751l25.131-20.502
		c5.726-4.671,12.816-6.59,19.64-5.897c6.816,0.7,13.377,3.987,18.056,9.723c1.842,2.258,3.258,4.732,4.251,7.318
		c-3.579-2.298-7.614-3.678-11.748-4.097c-6.824-0.692-13.914,1.227-19.64,5.897l-25.131,20.501
		C192.471,209.702,187.21,209.168,184.295,205.593L184.295,205.593z"/>
	<path style="fill:#EFB691;" d="M219.048,246.394c-2.915-3.575-2.382-8.836,1.192-11.751l29.543-24.101
		c5.726-4.671,12.816-6.59,19.64-5.897c6.816,0.7,13.377,3.987,18.056,9.723c1.842,2.258,3.258,4.732,4.251,7.318
		c-3.579-2.298-7.614-3.678-11.748-4.097c-6.824-0.692-13.914,1.227-19.64,5.897l-29.543,24.101
		C227.225,250.502,221.963,249.969,219.048,246.394L219.048,246.394z"/>
	<path style="fill:#EFB691;" d="M253.969,287.059c-2.915-3.575-2.382-8.836,1.192-11.751l101.998-83.206
		c5.726-4.671,12.816-6.59,19.64-5.897c6.816,0.7,13.377,3.987,18.056,9.723c1.842,2.258,3.258,4.732,4.251,7.318
		c-3.579-2.298-7.614-3.678-11.748-4.097c-6.824-0.692-13.914,1.227-19.64,5.897L265.72,288.252
		C262.145,291.167,256.884,290.633,253.969,287.059L253.969,287.059z"/>
	<path style="fill:#EFB691;" d="M343.739,340.664c-9.632-21.815-50.531-4.951-85.281,21.671c-3.396,2.601-8.223,2.119-10.982-1.15
		l0,0c-2.871-3.402-2.397-8.498,1.053-11.312l31.114-25.383c0,0,7.859-4.795,28.581-8.519
		C324.851,312.972,340.749,324.029,343.739,340.664z"/>
</g>
<polygon style="fill:#C5DEEA;" points="477.773,48.031 423.954,8.163 343.739,116.449 372.787,189.758 "/>
<path style="fill:#FF5B47;" d="M358.13,304.27c0,0.374,0.003,0.748,0.01,1.121c0.651,35.283,53.747,35.283,54.399,0
	c0.007-0.373,0.01-0.746,0.01-1.121c0-20.968-10.835-39.403-27.21-50.017C368.966,264.868,358.13,283.303,358.13,304.27z"/>
<path style="fill:#E53E2D;" d="M385.34,331.856c-13.437,0-26.875-8.822-27.199-26.465c-0.008-0.371-0.011-0.745-0.011-1.119
	c0-20.968,10.835-39.405,27.21-50.019c-6.78,10.614-11.269,29.051-11.269,50.019c0,0.374,0.003,0.747,0.005,1.119
	C374.211,323.033,379.778,331.856,385.34,331.856z"/>
<path style="fill:#FC8980;" d="M406.589,308.785c-0.471,4.223-3.606,7.341-7,6.962c-3.394-0.379-5.764-4.111-5.292-8.334
	c0.471-4.223,4.733-17.448,8.128-17.068S407.06,304.562,406.589,308.785z"/>
<path style="fill:#FF5B47;" d="M403.061,381.593c0,0.374,0.003,0.748,0.01,1.121c0.651,35.283,53.747,35.283,54.399,0
	c0.007-0.373,0.01-0.746,0.01-1.121c0-20.968-10.835-39.403-27.21-50.017C413.897,342.19,403.061,360.626,403.061,381.593z"/>
<path style="fill:#E53E2D;" d="M430.27,409.179c-13.437,0-26.875-8.822-27.199-26.465c-0.008-0.371-0.011-0.745-0.011-1.119
	c0-20.968,10.835-39.405,27.21-50.019c-6.78,10.614-11.269,29.051-11.269,50.019c0,0.374,0.003,0.747,0.005,1.119
	C419.142,400.356,424.708,409.179,430.27,409.179z"/>
<path style="fill:#FC8980;" d="M451.519,386.108c-0.471,4.223-3.606,7.341-7,6.962c-3.394-0.379-5.764-4.111-5.292-8.334
	c0.471-4.224,4.733-17.448,8.128-17.068S451.99,381.884,451.519,386.108z"/>
<polygon style="fill:#FFFFFF;" points="372.787,189.758 477.773,48.031 461.969,36.323 363.194,165.547 "/>
<g>
</g>
<g>
</g>
<g>
</g>
<g>
</g>
<g>
</g>
<g>
</g>
<g>
</g>
<g>
</g>
<g>
</g>
<g>
</g>
<g>
</g>
<g>
</g>
<g>
</g>
<g>
</g>
<g>
</g>
</svg>
