<?xml version="1.0" encoding="iso-8859-1"?>
<!-- Generator: Adobe Illustrator 21.0.0, SVG Export Plug-In . SVG Version: 6.00 Build 0)  -->
<svg version="1.1" id="Capa_1" xmlns="http://www.w3.org/2000/svg" xmlns:xlink="http://www.w3.org/1999/xlink" x="0px" y="0px"
	 viewBox="0 0 512 512" style="enable-background:new 0 0 512 512;" xml:space="preserve">
<path style="fill:#384E99;" d="M512,256c0,141.385-114.615,256-256,256c-63.216,0-121.062-22.904-165.721-60.876
	c-0.01-0.01-0.021-0.021-0.031-0.021c-20.501-17.429-38.212-38.024-52.37-61.043c0,0-0.01,0,0-0.01C13.855,351.065,0,305.152,0,256
	C0,114.615,114.615,0,256,0S512,114.615,512,256z"/>
<path style="fill:#C5DEEA;" d="M483.309,256.006c0,125.534-101.773,227.307-227.307,227.307c-16.917,0-33.395-1.849-49.256-5.35
	C104.889,455.467,28.685,364.634,28.685,256.006c0-111.303,79.987-203.922,185.626-223.493c13.511-2.518,27.449-3.824,41.691-3.824
	C381.536,28.689,483.309,130.462,483.309,256.006z"/>
<path style="fill:#91C6E0;" d="M172.013,443.231l34.732,34.732C104.889,455.467,28.685,364.634,28.685,256.006
	c0-111.303,79.987-203.922,185.626-223.493l-38.118,33.51l-30.302,49.11l-19.853,79.412V295.9l13.584,81.502L172.013,443.231z"/>
<path style="fill:#384E99;" d="M127.27,371.323c-17.585,6.649-34.62,14.658-50.955,23.92c3.917,5.048,8.042,9.929,12.362,14.624
	c14.322-7.928,29.2-14.843,44.517-20.672c2.778,7.634,5.807,15.054,9.09,22.23c10.934,23.906,24.338,44.016,39.375,59.441
	c8.164,2.824,16.532,5.207,25.088,7.097c8.08,1.784,16.322,3.132,24.699,4.032c-0.399-0.149-0.798-0.294-1.196-0.45
	c-33.057-12.977-60.925-49.577-78.727-98.74c13.415-4.256,27.114-7.711,41.033-10.29c17.678-3.295,35.815-5.19,54.042-5.679v116.265
	c3.121,0.127,6.254,0.212,9.406,0.212c3.151,0,6.282-0.082,9.402-0.208V366.829c32.741,0.867,64.705,6.28,95.187,15.905
	c-4.988,13.707-10.817,26.572-17.455,38.37c-17.638,31.348-39.257,52.216-62.514,60.877c17.307-1.864,34.03-5.672,49.95-11.2
	c10.661-10.99,20.546-24.437,29.414-40.196c7.191-12.78,13.492-26.702,18.864-41.519c15.316,5.809,30.189,12.738,44.547,20.698
	c4.309-4.688,8.422-9.559,12.33-14.598c-12.171-6.894-24.758-13.115-37.75-18.611c-4.39-1.857-8.814-3.597-13.255-5.275
	c9.701-32.445,15.191-68.448,15.98-105.871h82.399c0.127-3.12,0.209-6.253,0.209-9.404c0-3.151-0.082-6.284-0.209-9.404h-82.399
	c-0.785-37.209-6.218-73.012-15.815-105.312c4.385-1.659,8.754-3.378,13.089-5.212c13.112-5.546,25.814-11.828,38.09-18.799
	c-3.892-5.046-7.986-9.928-12.281-14.624c-14.414,8.016-29.35,14.993-44.732,20.837c-5.415-15.026-11.786-29.135-19.067-42.075
	c-8.867-15.76-18.752-29.207-29.414-40.198c-15.921-5.528-32.644-9.335-49.95-11.2c23.257,8.662,44.876,29.53,62.514,60.878
	c6.729,11.961,12.629,25.017,17.662,38.936c-30.543,9.666-62.579,15.102-95.393,15.971V28.897c-3.12-0.126-6.251-0.209-9.402-0.209
	c-3.151,0-6.285,0.074-9.406,0.202V145.81c-22.109-0.595-44.121-3.283-65.561-8.014c-10.056-2.22-19.985-4.911-29.766-8.026
	c3.012-8.363,6.331-16.407,9.95-24.062c18.37-38.859,43.212-65.597,70.223-75.696c-5.777,0.622-11.494,1.448-17.131,2.499
	c-11.21,2.076-22.126,4.984-32.693,8.64c-14.348,14.715-27.206,33.716-37.879,56.292c-3.906,8.261-7.484,16.935-10.722,25.952
	c-15.388-5.874-30.333-12.854-44.72-20.85c-4.305,4.702-8.412,9.587-12.314,14.639c16.408,9.333,33.523,17.408,51.191,24.102
	c-9.606,32.44-15.084,68.448-15.883,105.314H28.884c-0.127,3.12-0.2,6.253-0.2,9.404c0,3.15,0.071,6.285,0.197,9.404h82.404
	C112.064,302.917,117.502,338.779,127.27,371.323z M265.404,164.627c34.674-0.869,68.566-6.573,101.22-16.974
	c8.908,30.28,13.97,63.907,14.74,98.95H265.404V164.627z M265.404,265.41h115.96c-0.774,35.261-5.894,69.092-14.908,99.518
	c-32.602-10.366-66.438-16.053-101.052-16.92V265.41z M145.44,147.651c10.363,3.304,20.883,6.158,31.539,8.511
	c22.77,5.025,46.145,7.861,69.616,8.461v81.98H130.628C131.412,211.894,136.517,178.079,145.44,147.651z M246.596,265.41v82.608
	c-19.382,0.494-38.678,2.501-57.478,6.006c-14.745,2.731-29.255,6.396-43.464,10.912c-8.9-30.11-14.225-64-15.028-99.525
	L246.596,265.41L246.596,265.41z"/>
<path style="fill:#FF5B47;" d="M168.95,385.818c0,0.899-0.01,1.797-0.021,2.696c-0.888,48.295-42.559,69.162-78.681,62.589
	c-20.501-17.429-38.212-38.024-52.37-61.043c0,0-0.01,0,0-0.01c-0.031-0.502-0.042-1.024-0.052-1.536
	c-0.021-0.899-0.031-1.797-0.031-2.696c0-50.531,26.122-94.96,65.578-120.55C142.838,290.858,168.95,335.287,168.95,385.818z"/>
<path style="fill:#E53E2D;" d="M103.372,452.305c-4.389,0-8.777-0.387-13.093-1.181c-20.511-17.429-38.233-38.034-52.402-61.064
	c-0.031-0.512-0.042-1.024-0.052-1.546c-0.021-0.888-0.031-1.787-0.031-2.696c0-50.531,26.112-94.96,65.578-120.539
	c-16.342,25.579-27.157,70.008-27.157,120.539c0,0.909,0.01,1.808,0.01,2.696C76.549,431.041,89.966,452.305,103.372,452.305z"/>
<path style="fill:#FC8980;" d="M154.583,396.699c-1.137,10.179-8.689,17.692-16.87,16.779c-8.181-0.913-13.891-9.906-12.754-20.086
	c1.137-10.179,11.409-42.05,19.589-41.137C152.727,353.168,155.72,386.519,154.583,396.699z"/>
<path style="fill:#FF5B47;" d="M367.143,120.545c0,0.903,0.008,1.802,0.025,2.701c1.569,85.035,129.534,85.035,131.103,0
	c0.017-0.899,0.025-1.799,0.025-2.701c0-50.532-26.113-94.961-65.577-120.544C393.255,25.583,367.143,70.012,367.143,120.545z"/>
<path style="fill:#E53E2D;" d="M432.717,187.027c-32.385,0-64.768-21.263-65.55-63.782c-0.02-0.894-0.026-1.795-0.026-2.696
	c0-50.533,26.111-94.967,65.577-120.548C416.377,25.583,405.56,70.017,405.56,120.55c0,0.901,0.006,1.801,0.014,2.696
	C405.897,165.765,419.31,187.027,432.717,187.027z"/>
<path style="fill:#FC8980;" d="M483.927,131.426c-1.137,10.179-8.689,17.692-16.87,16.779c-8.181-0.913-13.891-9.906-12.754-20.086
	c1.137-10.18,11.408-42.05,19.589-41.137C482.073,87.896,485.064,121.247,483.927,131.426z"/>
<g>
</g>
<g>
</g>
<g>
</g>
<g>
</g>
<g>
</g>
<g>
</g>
<g>
</g>
<g>
</g>
<g>
</g>
<g>
</g>
<g>
</g>
<g>
</g>
<g>
</g>
<g>
</g>
<g>
</g>
</svg>
