<?xml version="1.0" encoding="iso-8859-1"?>
<!-- Generator: Adobe Illustrator 21.0.0, SVG Export Plug-In . SVG Version: 6.00 Build 0)  -->
<svg version="1.1" id="Capa_1" xmlns="http://www.w3.org/2000/svg" xmlns:xlink="http://www.w3.org/1999/xlink" x="0px" y="0px"
	 viewBox="0 0 512 512" style="enable-background:new 0 0 512 512;" xml:space="preserve">
<circle style="fill:#00A6F9;" cx="256" cy="256" r="256"/>
<path style="fill:#E53E2D;" d="M463.436,406.057c-7.68,10.595-16.144,20.574-25.318,29.853c-9.07,9.185-18.819,17.68-29.184,25.412
	L229.473,281.86l54.899-54.878l125.942,125.952L463.436,406.057z"/>
<circle style="fill:#384E99;" cx="208.739" cy="208.739" r="208.739"/>
<path style="fill:#FF5B47;" d="M463.436,406.057c-7.68,10.595-16.144,20.574-25.318,29.853l-55.4-55.4l27.596-27.575
	L463.436,406.057z"/>
<circle style="fill:#FFCDA8;" cx="208.739" cy="208.739" r="147.602"/>
<path style="fill:#EFB691;" d="M223.893,355.578c-4.974,0.512-10.031,0.773-15.151,0.773c-81.523,0-147.602-66.09-147.602-147.613
	c0-81.512,66.079-147.602,147.602-147.602c5.12,0,10.177,0.261,15.151,0.773c-74.407,7.586-132.451,70.437-132.451,146.829
	C91.442,285.141,149.486,347.992,223.893,355.578z"/>
<path style="fill:#FF5B47;" d="M285.762,287.601c-13.155,15.868-45.258,10.958-71.706-10.968
	c-9.212-7.636-16.522-16.33-21.582-25.083l-0.001-0.007c-9.47-16.389-11.063-33.003-2.491-43.343
	c13.155-15.868,45.265-10.959,71.713,10.967C288.144,241.092,298.917,271.733,285.762,287.601z"/>
<g>
	<path style="fill:#E53E2D;" d="M238.504,247.14c-14.453-11.981-21.657-27.99-18.386-38.841c-1.83,0.951-3.429,2.207-4.737,3.785
		c-8.496,10.249-1.537,30.037,15.545,44.197c17.082,14.16,37.817,17.332,46.313,7.082c1.307-1.578,2.247-3.382,2.841-5.356
		C270.023,263.233,252.956,259.121,238.504,247.14z"/>
	<path style="fill:#E53E2D;" d="M222.955,227.891l-9.049,5.757c0,0-23.374-2.947-21.433,17.894
		c-9.47-16.389-11.063-33.003-2.491-43.343c13.155-15.868,45.265-10.959,71.713,10.967
		C261.696,219.166,224.433,209.124,222.955,227.891z"/>
</g>
<path style="fill:#FF5B47;" d="M254.329,187.868c-4.632,20.085-35.524,30.107-69,22.385c-11.659-2.69-22.094-7.176-30.544-12.727
	l-0.004-0.006c-15.819-10.395-24.7-24.526-21.682-37.613c4.632-20.085,35.531-30.111,69.006-22.389
	C235.581,145.239,258.961,167.783,254.329,187.868z"/>
<g>
	<path style="fill:#E53E2D;" d="M193.937,172.925c-18.293-4.219-31.915-15.291-33.864-26.456c-1.208,1.671-2.073,3.512-2.534,5.508
		c-2.992,12.972,12.109,27.531,33.729,32.517s41.572-1.487,44.565-14.459c0.461-1.997,0.489-4.03,0.135-6.061
		C229.326,173.157,212.23,177.145,193.937,172.925z"/>
	<path style="fill:#E53E2D;" d="M171.403,162.703l-5.501,9.207c0,0-22.21,7.859-11.121,25.61
		c-15.819-10.395-24.7-24.526-21.682-37.613c4.632-20.085,35.531-30.111,69.006-22.389
		C202.105,137.518,164.3,145.269,171.403,162.703z"/>
</g>
<path style="fill:#FF5B47;" d="M179.966,236.896c6.128,19.68-15.495,43.912-48.296,54.126c-11.424,3.557-22.698,4.944-32.794,4.413
	l-0.006-0.003c-18.902-0.999-33.697-8.723-37.691-21.548c-6.128-19.68,15.498-43.919,48.299-54.132
	C142.28,209.538,173.838,217.215,179.966,236.896z"/>
<g>
	<path style="fill:#E53E2D;" d="M120.28,254.445c-17.924,5.581-35.271,2.89-42.584-5.769c-0.201,2.052-0.02,4.078,0.589,6.034
		c3.958,12.711,24.34,17.667,45.524,11.071c21.184-6.596,35.149-22.248,31.192-34.959c-0.609-1.956-1.61-3.727-2.94-5.302
		C150.956,236.801,138.204,248.864,120.28,254.445z"/>
	<path style="fill:#E53E2D;" d="M95.666,256.982l-0.109,10.725c0,0-15.217,17.986,3.311,27.724
		c-18.902-0.999-33.697-8.723-37.691-21.548c-6.128-19.68,15.498-43.919,48.299-54.132
		C109.478,219.751,80.74,245.509,95.666,256.982z"/>
</g>
<path style="fill:#FF5B47;" d="M358,165.484c-11.064,17.39-43.529,16.539-72.516-1.903c-10.095-6.423-18.437-14.132-24.553-22.183
	l-0.002-0.007c-11.448-15.075-15.109-31.357-7.898-42.69c11.064-17.39,43.537-16.54,72.523,1.902S369.064,148.093,358,165.484z"/>
<g>
	<path style="fill:#E53E2D;" d="M306.047,131.259c-15.839-10.077-24.991-25.058-23.105-36.233c-1.696,1.172-3.125,2.62-4.226,4.348
		c-7.146,11.232,2.236,29.993,20.956,41.904c18.72,11.911,39.689,12.46,46.835,1.228c1.1-1.728,1.805-3.637,2.148-5.67
		C339.334,143.277,321.887,141.336,306.047,131.259z"/>
	<path style="fill:#E53E2D;" d="M288.211,114.108l-8.257,6.845c0,0-23.559,0.003-19.024,20.437
		c-11.448-15.075-15.109-31.357-7.898-42.69c11.064-17.39,43.537-16.54,72.523,1.902
		C325.555,100.601,287.327,95.303,288.211,114.108z"/>
</g>
<path style="fill:#263E82;" d="M208.743,383.482c-96.351,0-174.738-78.388-174.738-174.738S112.392,34.005,208.743,34.005
	s174.739,78.387,174.739,174.738S305.095,383.482,208.743,383.482z M208.743,70.091c-76.453,0-138.653,62.2-138.653,138.653
	s62.2,138.653,138.653,138.653s138.653-62.2,138.653-138.653S285.198,70.091,208.743,70.091z"/>
<g>
</g>
<g>
</g>
<g>
</g>
<g>
</g>
<g>
</g>
<g>
</g>
<g>
</g>
<g>
</g>
<g>
</g>
<g>
</g>
<g>
</g>
<g>
</g>
<g>
</g>
<g>
</g>
<g>
</g>
</svg>
