<?xml version="1.0" encoding="iso-8859-1"?>
<!-- Generator: Adobe Illustrator 21.0.0, SVG Export Plug-In . SVG Version: 6.00 Build 0)  -->
<svg version="1.1" id="Capa_1" xmlns="http://www.w3.org/2000/svg" xmlns:xlink="http://www.w3.org/1999/xlink" x="0px" y="0px"
	 viewBox="0 0 512 512" style="enable-background:new 0 0 512 512;" xml:space="preserve">
<path style="fill:#1195B2;" d="M512,256c0,56.048-18.014,107.895-48.567,150.057c-7.68,10.595-16.144,20.574-25.318,29.853
	c-9.07,9.185-18.819,17.68-29.184,25.412c-42.673,31.838-95.597,50.677-152.93,50.677C114.617,511.998,0.003,397.384,0.003,256
	S114.617,0.002,256.002,0.002S512,114.616,512,256z"/>
<path style="fill:#E53E2D;" d="M463.433,406.056c-7.68,10.595-16.144,20.574-25.318,29.853c-9.07,9.185-18.819,17.68-29.184,25.412
	l-179.46-179.46l54.899-54.878l125.941,125.951L463.433,406.056z"/>
<path style="fill:#FF5B47;" d="M463.433,406.056c-7.68,10.595-16.144,20.574-25.318,29.853l-55.4-55.4l27.596-27.575
	L463.433,406.056z"/>
<circle style="fill:#384E99;" cx="208.738" cy="208.748" r="208.738"/>
<circle style="fill:#C5DEEA;" cx="208.738" cy="208.748" r="147.601"/>
<path style="fill:#91C6E0;" d="M223.891,355.578c-4.974,0.512-10.031,0.773-15.151,0.773c-81.522,0-147.601-66.089-147.601-147.612
	c0-81.512,66.079-147.601,147.601-147.601c5.12,0,10.177,0.261,15.151,0.773c-74.407,7.586-132.45,70.436-132.45,146.828
	C91.441,285.142,149.485,347.992,223.891,355.578z"/>
<path style="fill:#263E82;" d="M208.742,383.482c-96.35,0-174.737-78.388-174.737-174.737S112.392,34.008,208.742,34.008
	S383.48,112.394,383.48,208.745S305.093,383.482,208.742,383.482z M208.742,70.093c-76.453,0-138.652,62.199-138.652,138.652
	s62.199,138.652,138.652,138.652s138.652-62.199,138.652-138.652S285.195,70.093,208.742,70.093z"/>
<path style="fill:#FF5B47;" d="M143.167,235.775c0,0.903,0.008,1.802,0.025,2.701c1.569,85.034,129.533,85.034,131.103,0
	c0.017-0.899,0.025-1.799,0.025-2.701c0-50.532-26.113-94.961-65.576-120.543C169.28,140.814,143.167,185.242,143.167,235.775z"/>
<path style="fill:#E53E2D;" d="M208.741,302.257c-32.384,0-64.768-21.263-65.549-63.781c-0.02-0.894-0.026-1.795-0.026-2.696
	c0-50.533,26.111-94.966,65.576-120.547c-16.341,25.581-27.158,70.014-27.158,120.547c0,0.901,0.006,1.801,0.014,2.696
	C181.922,280.995,195.335,302.257,208.741,302.257z"/>
<path style="fill:#FC8980;" d="M259.951,246.656c-1.137,10.179-8.689,17.692-16.87,16.779c-8.18-0.913-13.891-9.906-12.754-20.086
	c1.137-10.18,11.409-42.05,19.589-41.136C258.097,203.126,261.087,236.476,259.951,246.656z"/>
<g>
</g>
<g>
</g>
<g>
</g>
<g>
</g>
<g>
</g>
<g>
</g>
<g>
</g>
<g>
</g>
<g>
</g>
<g>
</g>
<g>
</g>
<g>
</g>
<g>
</g>
<g>
</g>
<g>
</g>
</svg>
