<?xml version="1.0" encoding="iso-8859-1"?>
<!-- Generator: Adobe Illustrator 21.0.0, SVG Export Plug-In . SVG Version: 6.00 Build 0)  -->
<svg version="1.1" id="Capa_1" xmlns="http://www.w3.org/2000/svg" xmlns:xlink="http://www.w3.org/1999/xlink" x="0px" y="0px"
	 viewBox="0 0 512 512" style="enable-background:new 0 0 512 512;" xml:space="preserve">
<path style="fill:#FF5B47;" d="M512,256c0,59.935-20.595,115.064-55.097,158.678C410.018,473.966,337.45,512,256,512
	s-154.018-38.034-200.903-97.322C20.595,371.064,0,315.935,0,256S20.595,140.936,55.097,97.322
	c17.627-22.298,38.891-41.576,62.892-56.968C157.811,14.806,205.176,0,256,0s98.189,14.806,138.01,40.354
	c24.001,15.391,45.265,34.67,62.892,56.968C491.405,140.936,512,196.065,512,256z"/>
<path style="fill:#384E99;" d="M456.902,74.01v340.668C410.018,473.966,337.45,512,256,512s-154.018-38.034-200.903-97.322V74.01
	c0-18.589,15.067-33.656,33.656-33.656h334.493C441.835,40.354,456.902,55.421,456.902,74.01z"/>
<polygon style="fill:#FFFFFF;" points="398.618,70.134 398.618,367.898 328.077,438.439 113.371,438.439 113.371,70.134 "/>
<path style="fill:#00A6F9;" d="M327.801,96.779H184.193c-11.412,0-20.664-9.252-20.664-20.664V20.665
	c0-11.412,9.252-20.664,20.664-20.664h143.61c11.412,0,20.664,9.252,20.664,20.664v55.45
	C348.465,87.528,339.214,96.779,327.801,96.779z"/>
<g>
	<path style="fill:#C5DEEA;" d="M306.934,21.55H205.061c-8.656,0-15.672,7.016-15.672,15.672l0,0
		c0,8.656,7.016,15.672,15.672,15.672h101.872c8.656,0,15.672-7.016,15.672-15.672l0,0C322.606,28.568,315.588,21.55,306.934,21.55z
		"/>
	<polygon style="fill:#C5DEEA;" points="328.077,438.439 328.077,367.898 398.618,367.898 	"/>
	<circle style="fill:#C5DEEA;" cx="256.616" cy="153.203" r="47.018"/>
</g>
<polygon style="fill:#FFFFFF;" points="285.492,140.257 269.561,140.257 269.561,124.325 243.672,124.325 243.672,140.257 
	227.741,140.257 227.741,166.145 243.672,166.145 243.672,182.077 269.561,182.077 269.561,166.145 285.492,166.145 "/>
<g>
	<rect x="146.286" y="220.599" style="fill:#414142;" width="219.418" height="21.942"/>
	<rect x="146.286" y="270.743" style="fill:#414142;" width="219.418" height="21.942"/>
	<rect x="146.286" y="319.321" style="fill:#414142;" width="219.418" height="21.942"/>
</g>
<g>
</g>
<g>
</g>
<g>
</g>
<g>
</g>
<g>
</g>
<g>
</g>
<g>
</g>
<g>
</g>
<g>
</g>
<g>
</g>
<g>
</g>
<g>
</g>
<g>
</g>
<g>
</g>
<g>
</g>
</svg>
