<?xml version="1.0" encoding="iso-8859-1"?>
<!-- Generator: Adobe Illustrator 21.0.0, SVG Export Plug-In . SVG Version: 6.00 Build 0)  -->
<svg version="1.1" id="Capa_1" xmlns="http://www.w3.org/2000/svg" xmlns:xlink="http://www.w3.org/1999/xlink" x="0px" y="0px"
	 viewBox="0 0 512 512" style="enable-background:new 0 0 512 512;" xml:space="preserve">
<path style="fill:#384E99;" d="M512,256c0,60.28-20.835,115.702-55.703,159.441c-6.06,7.607-12.539,14.858-19.414,21.703
	c-1.787,1.787-3.594,3.542-5.434,5.266c-14.503,13.657-30.595,25.631-47.971,35.631c-18.536,10.679-38.536,19.09-59.622,24.869
	c-3.605,0.993-7.252,1.902-10.919,2.738c-8.14,1.849-16.426,3.312-24.837,4.357C277.588,511.321,266.867,512,256,512
	c-8.568,0-17.042-0.418-25.401-1.243c-8.411-0.826-16.697-2.069-24.848-3.689c-0.805-0.157-1.599-0.324-2.403-0.502h-0.01
	c-15.6-3.25-30.678-7.931-45.087-13.897c-21.692-8.965-41.89-20.835-60.092-35.129c-3.73-2.905-7.367-5.935-10.919-9.049
	c-8.84-7.743-17.136-16.091-24.837-24.984C23.521,378.619,0,320.052,0,256C0,114.615,114.615,0,256,0
	c67.365,0,128.648,26.018,174.352,68.556c3.5,3.25,6.896,6.593,10.209,10.031c5.517,5.747,10.773,11.745,15.736,17.983
	C491.165,140.298,512,195.72,512,256z"/>
<path style="fill:#00A6F9;" d="M230.599,198.374v312.383c-8.411-0.826-16.697-2.069-24.848-3.689
	c-44.837-8.923-85.441-29.55-118.512-58.577c-8.84-7.743-17.136-16.091-24.837-24.984V198.374H230.599z"/>
<path style="fill:#FF5B47;" d="M205.751,316.886v190.182c-44.837-8.923-85.441-29.55-118.512-58.577V316.886H205.751z"/>
<path style="fill:#008ACF;" d="M230.599,208.405v26.081H127.645c-16.28,0-29.487,13.208-29.487,29.487V457.54
	c-3.73-2.905-7.367-5.935-10.919-9.049c-8.84-7.743-17.136-16.091-24.837-24.984V198.374h35.756v10.031L230.599,208.405
	L230.599,208.405z"/>
<path style="fill:#E53E2D;" d="M98.158,316.886V457.54c-3.73-2.905-7.367-5.935-10.919-9.049V316.886H98.158z"/>
<path style="fill:#008ACF;" d="M263.454,193.291c0,5.316-2.154,10.128-5.639,13.614c-3.487,3.487-8.298,5.639-13.614,5.639H48.793
	c-10.633,0-19.253-8.62-19.253-19.253c0-5.316,2.154-10.128,5.639-13.614c3.487-3.487,8.298-5.639,13.614-5.639h195.408
	C254.834,174.038,263.454,182.659,263.454,193.291z"/>
<path style="fill:#00A6F9;" d="M263.454,193.291c0,5.316-2.154,10.128-5.639,13.614c-3.487,3.487-8.298,5.639-13.614,5.639H103.547
	c-10.633,0-19.253-8.62-19.253-19.253c0-5.316,2.154-10.128,5.639-13.614c3.487-3.487,8.298-5.639,13.614-5.639h140.654
	C254.834,174.038,263.454,182.659,263.454,193.291z"/>
<path style="fill:#E7F5FC;" d="M211.184,276.511v211.163c0,7.377-2.988,14.054-7.837,18.892h-0.01
	c-15.6-3.25-30.678-7.931-45.087-13.897c-0.313-1.62-0.47-3.291-0.47-4.995V276.511c0-14.744,11.954-26.697,26.697-26.697
	c7.377,0,14.054,2.988,18.881,7.816C208.196,262.468,211.184,269.134,211.184,276.511z"/>
<path style="fill:#FC8980;" d="M205.751,316.886v186.932c-0.742,0.972-1.546,1.902-2.414,2.748
	c-15.6-3.25-30.678-7.931-45.087-13.897c-0.313-1.62-0.47-3.291-0.47-4.995V316.886H205.751z"/>
<path style="fill:#00A6F9;" d="M456.296,68.556v346.885c-7.638,9.582-15.935,18.599-24.848,26.969
	c-32.622,30.72-73.289,52.966-118.512,63.237c-8.14,1.849-16.426,3.312-24.837,4.357V68.556H456.296z"/>
<path style="fill:#FF5B47;" d="M431.449,187.068V442.41c-32.622,30.72-73.289,52.966-118.512,63.237V187.068H431.449z"/>
<path style="fill:#008ACF;" d="M456.296,78.587v26.091H353.343c-16.279,0-29.487,13.197-29.487,29.477v368.755
	c-3.605,0.993-7.252,1.902-10.919,2.738c-8.14,1.849-16.426,3.312-24.837,4.357V68.556h35.756v10.031H456.296z"/>
<path style="fill:#E53E2D;" d="M323.856,187.068v315.841c-3.605,0.993-7.252,1.902-10.919,2.738V187.068H323.856z"/>
<path style="fill:#008ACF;" d="M489.152,63.474c0,5.316-2.154,10.128-5.639,13.614c-3.486,3.487-8.298,5.639-13.614,5.639H274.491
	c-10.633,0-19.253-8.62-19.253-19.253c0-5.316,2.154-10.128,5.639-13.614c3.487-3.486,8.298-5.639,13.614-5.639h195.408
	C480.532,44.221,489.152,52.842,489.152,63.474z"/>
<path style="fill:#00A6F9;" d="M489.152,63.474c0,5.316-2.154,10.128-5.639,13.614c-3.486,3.487-8.298,5.639-13.614,5.639H329.245
	c-10.633,0-19.253-8.62-19.253-19.253c0-5.316,2.154-10.128,5.639-13.614c3.487-3.486,8.298-5.639,13.614-5.639h140.654
	C480.532,44.221,489.152,52.842,489.152,63.474z"/>
<path style="fill:#E7F5FC;" d="M436.882,146.693v290.45c-1.787,1.787-3.594,3.542-5.434,5.266
	c-14.503,13.657-30.595,25.631-47.971,35.631V146.693c0-14.744,11.954-26.697,26.697-26.697c7.377,0,14.054,2.988,18.881,7.816
	C433.894,132.65,436.882,139.316,436.882,146.693z"/>
<path style="fill:#FC8980;" d="M431.449,187.068V442.41c-14.503,13.657-30.595,25.631-47.971,35.631V187.068H431.449z"/>
<g>
</g>
<g>
</g>
<g>
</g>
<g>
</g>
<g>
</g>
<g>
</g>
<g>
</g>
<g>
</g>
<g>
</g>
<g>
</g>
<g>
</g>
<g>
</g>
<g>
</g>
<g>
</g>
<g>
</g>
</svg>
