<?xml version="1.0" encoding="iso-8859-1"?>
<!-- Generator: Adobe Illustrator 21.0.0, SVG Export Plug-In . SVG Version: 6.00 Build 0)  -->
<svg version="1.1" id="Capa_1" xmlns="http://www.w3.org/2000/svg" xmlns:xlink="http://www.w3.org/1999/xlink" x="0px" y="0px"
	 viewBox="0 0 512 512" style="enable-background:new 0 0 512 512;" xml:space="preserve">
<circle style="fill:#FFCDA8;" cx="256" cy="256" r="256"/>
<path style="fill:#00A6F9;" d="M420.676,46.811v97.176H91.324V46.811c0-14.012,11.358-25.37,25.37-25.37h278.612
	C409.307,21.441,420.676,32.799,420.676,46.811z"/>
<path style="fill:#E6E5E5;" d="M413.665,136.788v320.909c-4.566,3.574-9.247,6.99-14.054,10.25C358.661,495.752,309.238,512,256,512
	c-35.631,0-69.548-7.272-100.373-20.428c-3.657-1.557-7.272-3.208-10.846-4.932c-11.285-5.454-22.11-11.713-32.402-18.704
	c-4.807-3.26-9.488-6.677-14.054-10.261V136.788H413.665z"/>
<path style="fill:#FFFFFF;" d="M413.665,190.58v267.117c-4.566,3.574-9.247,6.99-14.054,10.25C358.661,495.752,309.238,512,256,512
	c-35.631,0-69.548-7.272-100.373-20.428c-3.657-1.557-7.272-3.208-10.846-4.932V246.179c0-30.71,24.889-55.599,55.599-55.599
	L413.665,190.58L413.665,190.58z"/>
<g>
	<path style="fill:#008ACF;" d="M439.254,130.706v17.23c0,7.325-5.935,13.26-13.26,13.26H86.006c-7.325,0-13.26-5.935-13.26-13.26
		v-17.23c0-7.325,5.935-13.26,13.26-13.26h339.989C433.319,117.447,439.254,123.382,439.254,130.706z"/>
	<path style="fill:#008ACF;" d="M175.407,104.908c-18.04,0-32.666-14.624-32.666-32.666V46.806c0-14.005,11.362-25.367,25.38-25.367
		h-51.436c-14.017,0-25.367,11.362-25.367,25.367v97.178h26.388c0.001,0.001,0.001,0.002,0.002,0.002h302.968v-39.079H175.407
		V104.908z"/>
</g>
<path style="fill:#00A6F9;" d="M439.254,130.706v17.23c0,7.325-5.935,13.26-13.26,13.26H127.801c-7.325,0-13.26-5.935-13.26-13.26
	v-17.23c0-7.325,5.935-13.26,13.26-13.26h298.193C433.319,117.447,439.254,123.382,439.254,130.706z"/>
<path style="fill:#FF5B47;" d="M179.705,353.634c0,1.01,0.009,2.019,0.028,3.024c1.758,95.21,145.034,95.21,146.791,0
	c0.019-1.006,0.028-2.015,0.028-3.024c0-56.579-29.237-106.325-73.424-134.969C208.942,247.309,179.705,297.054,179.705,353.634z"/>
<path style="fill:#FFFFFF;" d="M304.849,322.47h-24.467c-4.147,0-7.51-3.362-7.51-7.51v-24.467c0-4.147-3.362-7.51-7.51-7.51
	h-24.467c-4.147,0-7.51,3.362-7.51,7.51v24.467c0,4.147-3.362,7.51-7.51,7.51h-24.467c-4.147,0-7.51,3.362-7.51,7.51v24.467
	c0,4.147,3.362,7.51,7.51,7.51h24.467c4.147,0,7.51,3.362,7.51,7.51v24.467c0,4.147,3.362,7.51,7.51,7.51h24.467
	c4.147,0,7.51-3.362,7.51-7.51v-24.467c0-4.147,3.362-7.51,7.51-7.51h24.467c4.147,0,7.51-3.362,7.51-7.51V329.98
	C312.359,325.832,308.996,322.47,304.849,322.47z"/>
<g>
</g>
<g>
</g>
<g>
</g>
<g>
</g>
<g>
</g>
<g>
</g>
<g>
</g>
<g>
</g>
<g>
</g>
<g>
</g>
<g>
</g>
<g>
</g>
<g>
</g>
<g>
</g>
<g>
</g>
</svg>
