<?xml version="1.0" encoding="iso-8859-1"?>
<!-- Generator: Adobe Illustrator 21.0.0, SVG Export Plug-In . SVG Version: 6.00 Build 0)  -->
<svg version="1.1" id="Capa_1" xmlns="http://www.w3.org/2000/svg" xmlns:xlink="http://www.w3.org/1999/xlink" x="0px" y="0px"
	 viewBox="0 0 512 512" style="enable-background:new 0 0 512 512;" xml:space="preserve">
<circle style="fill:#FF5B47;" cx="256" cy="256" r="256"/>
<path style="fill:#00A6F9;" d="M466.028,154.592V402.41c-46.268,66.247-123.089,109.589-210.024,109.589
	S92.247,468.657,45.979,402.41V60.363c0-12.56,10.188-22.747,22.747-22.747h280.325L466.028,154.592z"/>
<g>
	<rect x="146.286" y="277.713" style="fill:#414142;" width="219.418" height="21.942"/>
	<rect x="146.286" y="327.868" style="fill:#414142;" width="219.418" height="21.942"/>
	<rect x="146.286" y="376.445" style="fill:#414142;" width="219.418" height="21.942"/>
</g>
<path style="fill:#FFFFFF;" d="M349.051,131.844V37.615l116.976,116.976h-94.218C359.239,154.592,349.051,144.404,349.051,131.844z"
	/>
<path style="fill:#FF5B47;" d="M197.587,178.254c0,0.804,0.007,1.606,0.022,2.406c1.398,75.75,115.39,75.75,116.788,0
	c0.015-0.8,0.022-1.603,0.022-2.406c0-45.015-23.262-84.593-58.416-107.382C220.849,93.662,197.587,133.239,197.587,178.254z"/>
<path style="fill:#FFFFFF;" d="M297.152,153.46h-19.466c-3.3,0-5.975-2.675-5.975-5.975v-19.466c0-3.3-2.675-5.975-5.975-5.975
	H246.27c-3.3,0-5.975,2.675-5.975,5.975v19.466c0,3.3-2.675,5.975-5.975,5.975h-19.466c-3.3,0-5.975,2.675-5.975,5.975v19.466
	c0,3.3,2.675,5.975,5.975,5.975h19.466c3.3,0,5.975,2.675,5.975,5.975v19.466c0,3.3,2.675,5.975,5.975,5.975h19.466
	c3.3,0,5.975-2.675,5.975-5.975v-19.466c0-3.3,2.675-5.975,5.975-5.975h19.466c3.3,0,5.975-2.675,5.975-5.975v-19.466
	C303.127,156.135,300.452,153.46,297.152,153.46z"/>
<g>
</g>
<g>
</g>
<g>
</g>
<g>
</g>
<g>
</g>
<g>
</g>
<g>
</g>
<g>
</g>
<g>
</g>
<g>
</g>
<g>
</g>
<g>
</g>
<g>
</g>
<g>
</g>
<g>
</g>
</svg>
