<?xml version="1.0" encoding="iso-8859-1"?>
<!-- Generator: Adobe Illustrator 21.0.0, SVG Export Plug-In . SVG Version: 6.00 Build 0)  -->
<svg version="1.1" id="Capa_1" xmlns="http://www.w3.org/2000/svg" xmlns:xlink="http://www.w3.org/1999/xlink" x="0px" y="0px"
	 viewBox="0 0 512 512" style="enable-background:new 0 0 512 512;" xml:space="preserve">
<path style="fill:#384E99;" d="M512,256c0,66.727-25.527,127.488-67.354,173.056c-3.542,3.856-7.199,7.607-10.971,11.243
	c-11.348,10.94-23.709,20.856-36.916,29.55c-1.473,0.982-2.957,1.933-4.451,2.873c-4.274,2.706-8.641,5.277-13.093,7.711h-0.01
	c-0.627,0.355-1.243,0.7-1.87,1.034c-8.004,4.315-16.259,8.223-24.743,11.682c-4.441,1.818-8.955,3.511-13.531,5.078
	c-22.612,7.753-46.644,12.424-71.617,13.51c-0.512,0.021-1.014,0.042-1.526,0.063C262.625,511.937,259.323,512,256,512
	c-3.323,0-6.635-0.063-9.937-0.199c-0.575-0.021-1.16-0.042-1.735-0.073c-20.793-0.92-40.96-4.336-60.176-9.947
	c-3.783-1.108-7.523-2.288-11.233-3.563c-0.219-0.073-0.449-0.157-0.669-0.23c-4.409-1.526-8.777-3.176-13.082-4.932
	c-8.077-3.302-15.935-7.011-23.573-11.086c-0.773-0.418-1.546-0.836-2.32-1.254c-13.584-7.429-26.415-16.06-38.358-25.746
	c-3.856-3.114-7.617-6.343-11.274-9.686c-1.358-1.233-2.706-2.487-4.044-3.762c-3.845-3.657-7.586-7.44-11.201-11.327
	C25.955,384.502,0,323.291,0,256C0,114.615,114.615,0,256,0S512,114.615,512,256z"/>
<path style="fill:#C5DEEA;" d="M444.646,429.056c-3.542,3.856-7.199,7.607-10.971,11.243c-12.612,12.163-26.478,23.05-41.367,32.423
	c-4.274,2.706-8.641,5.277-13.093,7.711l-26.624-31.702v44.419c-4.441,1.818-8.955,3.511-13.531,5.078
	c-23.071,7.91-47.626,12.612-73.143,13.573C262.625,511.937,259.323,512,256,512s-6.635-0.063-9.937-0.199
	c-21.41-0.805-42.162-4.253-61.91-10.021c-3.783-1.108-7.523-2.288-11.233-3.563c-4.639-1.588-9.226-3.312-13.751-5.162v-44.325
	l-25.893,31.984c-13.584-7.429-26.415-16.06-38.358-25.746c-5.287-4.274-10.397-8.756-15.318-13.448
	c-3.845-3.657-7.586-7.44-11.201-11.327l84.281-118.45c4.075-5.653,10.616-8.997,17.586-8.997h171.238
	c6.969,0,13.511,3.344,17.586,8.997L444.646,429.056z"/>
<g>
	<path style="fill:#91C6E0;" d="M225.029,302.749l-2.842,6.092c-51.012-4.932-98.638,69.601-138.543,136.443
		c-1.358-1.233-2.706-2.487-4.044-3.762c-3.845-3.657-7.586-7.44-11.201-11.327l84.281-118.45
		c4.075-5.653,10.616-8.997,17.586-8.997H225.029z"/>
	<path style="fill:#91C6E0;" d="M267.442,321.149v190.589c-0.512,0.021-1.014,0.042-1.526,0.063
		C262.625,511.937,259.323,512,256,512s-6.635-0.063-9.937-0.199c-0.575-0.021-1.16-0.042-1.735-0.073V321.149H267.442z"/>
	<path style="fill:#91C6E0;" d="M301.757,302.748v6.094c0,25.303-20.571,45.874-45.874,45.874
		c-25.291,0-45.862-20.571-45.862-45.874v-6.094L301.757,302.748L301.757,302.748z"/>
</g>
<path style="fill:#CF9A74;" d="M255.887,342.553L255.887,342.553c-18.616,0-33.706-15.09-33.706-33.706v-38.85h67.413v38.85
	C289.593,327.463,274.503,342.553,255.887,342.553z"/>
<g>
	<circle style="fill:#BD8062;" cx="169.336" cy="183.839" r="29.073"/>
	<circle style="fill:#BD8062;" cx="341.953" cy="183.839" r="29.073"/>
</g>
<path style="fill:#DEAB85;" d="M255.887,289.278L255.887,289.278c-47.803,0-86.554-38.751-86.554-86.554v-63.861
	c0-47.802,38.751-86.554,86.554-86.554l0,0c47.802,0,86.554,38.751,86.554,86.554v63.861
	C342.441,250.527,303.69,289.278,255.887,289.278z"/>
<path style="fill:#BD8062;" d="M198.59,202.724v-63.861c0-42.814,31.093-78.344,71.926-85.298c-4.757-0.811-9.64-1.256-14.629-1.256
	l0,0c-47.802,0-86.554,38.751-86.554,86.554v63.861c0,47.803,38.751,86.554,86.554,86.554l0,0c4.988,0,9.871-0.445,14.629-1.256
	C229.684,281.068,198.59,245.537,198.59,202.724z"/>
<g>
	<path style="fill:#332131;" d="M234.811,175.119c0-8.936-7.244-16.18-16.18-16.18c-8.936,0-16.18,7.244-16.18,16.18H234.811z"/>
	<path style="fill:#332131;" d="M308.969,175.119c0-8.936-7.244-16.18-16.18-16.18s-16.18,7.244-16.18,16.18H308.969z"/>
</g>
<path style="fill:#BD8062;" d="M269.619,190.447h-27.464c-4.703,0-8.516,3.813-8.516,8.516l0,0c0,4.703,3.813,8.516,8.516,8.516
	h27.464c4.703,0,8.516-3.813,8.516-8.516l0,0C278.135,194.259,274.322,190.447,269.619,190.447z"/>
<path style="fill:#FFFFFF;" d="M215.437,216.465c0,22.34,18.11,40.45,40.45,40.45s40.45-18.11,40.45-40.45H215.437z"/>
<g>
	<path style="fill:#91C6E0;" d="M172.251,435.639v62.349c-4.409-1.526-8.777-3.176-13.082-4.932v-44.325L172.251,435.639z"/>
	<path style="fill:#91C6E0;" d="M396.758,469.849c-1.473,0.982-2.957,1.933-4.451,2.873c-4.274,2.706-8.641,5.277-13.093,7.711
		h-0.01l-26.614-31.702V415.88L396.758,469.849z"/>
</g>
<path style="fill:#332131;" d="M255.887,43.794L255.887,43.794c47.802,0,86.554,38.751,86.554,86.554v8.516
	c-70.364,0-86.554-46.41-86.554-46.41s-16.189,46.41-86.554,46.41v-8.516C169.333,82.545,208.085,43.794,255.887,43.794
	L255.887,43.794z"/>
<rect x="179.513" style="fill:#C5DEEA;" width="152.754" height="89.088"/>
<rect x="179.513" style="fill:#91C6E0;" width="41.106" height="89.088"/>
<g>
	<rect x="285.09" y="390.489" style="fill:#FFFFFF;" width="62.036" height="32.845"/>
	<circle style="fill:#FFFFFF;" cx="330.104" cy="83.937" r="43.794"/>
</g>
<circle style="fill:#C5DEEA;" cx="330.104" cy="83.937" r="17.199"/>
<g>
</g>
<g>
</g>
<g>
</g>
<g>
</g>
<g>
</g>
<g>
</g>
<g>
</g>
<g>
</g>
<g>
</g>
<g>
</g>
<g>
</g>
<g>
</g>
<g>
</g>
<g>
</g>
<g>
</g>
</svg>
