<?xml version="1.0" encoding="iso-8859-1"?>
<!-- Generator: Adobe Illustrator 21.0.0, SVG Export Plug-In . SVG Version: 6.00 Build 0)  -->
<svg version="1.1" id="Capa_1" xmlns="http://www.w3.org/2000/svg" xmlns:xlink="http://www.w3.org/1999/xlink" x="0px" y="0px"
	 viewBox="0 0 512 512" style="enable-background:new 0 0 512 512;" xml:space="preserve">
<path style="fill:#1195B2;" d="M512,256c0,87.186-43.583,164.195-110.153,210.411c-13.897,9.655-28.787,17.972-44.502,24.754
	c-5.977,2.581-12.079,4.932-18.286,7.064C313.02,507.152,285.079,512,256,512c-24.942,0-49.058-3.563-71.847-10.219
	c-3.783-1.108-7.523-2.288-11.233-3.563c-6.207-2.132-12.309-4.493-18.286-7.064c-15.715-6.792-30.605-15.099-44.492-24.754
	C43.583,420.185,0,343.186,0,256C0,114.615,114.615,0,256,0S512,114.615,512,256z"/>
<g>
	<path style="fill:#EFB691;" d="M154.634,491.154c-9.456-4.086-18.62-8.725-27.439-13.887c-5.831-3.385-11.515-7.022-17.053-10.867
		c-15.6-92.076,11.494-134.572,11.494-134.572l34.053-1.358l4.18,31.347c-2.069,4.211-3.835,8.61-5.329,13.134
		C140.978,415.963,149.473,467.602,154.634,491.154z"/>
	<path style="fill:#EFB691;" d="M401.847,466.411c-9.028,6.269-18.463,11.975-28.285,17.053c-5.298,2.748-10.71,5.319-16.217,7.701
		c5.747-26.143,15.579-86.936-5.224-129.348l8.37-36.571l29.863,6.583c0,0,2.435,3.824,5.423,11.672
		C402.766,361.785,412.766,401.951,401.847,466.411z"/>
</g>
<path style="fill:#C5DEEA;" d="M405.41,320.021l-53.29,41.796l-13.061-8.359v144.771C313.02,507.152,285.079,512,256,512
	s-57.031-4.848-83.08-13.782v-144.76l-13.051,8.359l-23.594-18.505l-29.696-23.291l60.763-84.22
	c3.503-4.855,9.125-7.731,15.111-7.731h147.073c5.986,0,11.608,2.876,15.111,7.73L405.41,320.021z"/>
<path style="fill:#91C6E0;" d="M229.491,228.07l-2.445,5.235c-54.126-5.235-67.176,36.561-105.409,98.523l-15.057-11.807
	l60.763-84.22c3.503-4.855,9.125-7.731,15.111-7.731L229.491,228.07L229.491,228.07z"/>
<g>
	<path style="fill:#EFB691;" d="M255.993,262.262L255.993,262.262c-15.99,0-28.952-12.962-28.952-28.952v-33.371h57.904v33.371
		C284.945,249.299,271.983,262.262,255.993,262.262z"/>
	<circle style="fill:#EFB691;" cx="181.645" cy="125.942" r="24.972"/>
	<circle style="fill:#EFB691;" cx="329.916" cy="125.942" r="24.972"/>
</g>
<path style="fill:#FFCDA8;" d="M255.993,216.501L255.993,216.501c-41.06,0-74.346-33.285-74.346-74.346V46.719h148.69v95.436
	C330.338,183.216,297.053,216.501,255.993,216.501z"/>
<path style="fill:#EFB691;" d="M266.629,215.741c-3.474,0.502-7.019,0.757-10.632,0.757c-41.062,0-74.349-33.279-74.349-74.341
	V46.721h21.272v95.436C202.92,179.605,230.609,210.584,266.629,215.741z"/>
<g>
	<path style="fill:#263E82;" d="M197.355,62.853l-23.011,11.582v52.695l0,0c12.708,0,23.011-10.303,23.011-23.011V62.853z"/>
	<path style="fill:#263E82;" d="M314.631,22.318h23.011V127.13l0,0c-12.708,0-23.011-10.303-23.011-23.011V22.318z"/>
</g>
<path style="fill:#384E99;" d="M303.818,74.434H174.344l0,0c0-41.108,33.325-74.433,74.433-74.433h129.474l0,0
	C378.251,41.109,344.926,74.434,303.818,74.434z"/>
<path style="fill:#263E82;" d="M283.685,0.001h-34.908c-41.108,0-74.433,33.325-74.433,74.433l0,0h34.908l0,0
	C209.251,33.326,242.576,0.001,283.685,0.001z"/>
<g>
	<path style="fill:#332131;" d="M237.89,118.444c0-7.676-6.222-13.898-13.898-13.898s-13.898,6.222-13.898,13.898"/>
	<path style="fill:#332131;" d="M301.588,118.444c0-7.676-6.222-13.898-13.898-13.898c-7.676,0-13.898,6.222-13.898,13.898"/>
</g>
<path style="fill:#EFB691;" d="M267.787,131.61h-23.59c-4.04,0-7.314,3.275-7.314,7.314l0,0c0,4.04,3.275,7.314,7.314,7.314h23.59
	c4.04,0,7.314-3.275,7.314-7.314l0,0C275.103,134.885,271.828,131.61,267.787,131.61z"/>
<path style="fill:#FFFFFF;" d="M221.249,153.958c0,19.189,15.555,34.744,34.744,34.744s34.744-15.555,34.744-34.744"/>
<path style="fill:#FF5B47;" d="M197.971,400.505c0,0.798,0.007,1.596,0.022,2.39c1.389,75.241,114.616,75.241,116.005,0
	c0.015-0.795,0.022-1.591,0.022-2.39c0-44.713-23.106-84.025-58.024-106.661C221.076,316.48,197.971,355.792,197.971,400.505z"/>
<path style="fill:#FFFFFF;" d="M296.868,375.877h-19.336c-3.278,0-5.935-2.657-5.935-5.935v-19.336c0-3.278-2.657-5.935-5.935-5.935
	h-19.336c-3.278,0-5.935,2.657-5.935,5.935v19.336c0,3.278-2.657,5.935-5.935,5.935H215.12c-3.278,0-5.935,2.657-5.935,5.935v19.336
	c0,3.278,2.657,5.935,5.935,5.935h19.336c3.278,0,5.935,2.657,5.935,5.935v19.336c0,3.278,2.657,5.935,5.935,5.935h19.336
	c3.278,0,5.935-2.657,5.935-5.935v-19.337c0-3.278,2.657-5.935,5.935-5.935h19.336c3.278,0,5.935-2.657,5.935-5.935v-19.336
	C302.802,378.534,300.146,375.877,296.868,375.877z"/>
<path style="fill:#91C6E0;" d="M184.153,342.215v159.566c-3.783-1.108-7.523-2.288-11.233-3.563v-144.76L184.153,342.215z"/>
<g>
	<path style="fill:#FFCDA8;" d="M154.634,491.154c-9.456-4.086-18.62-8.725-27.439-13.887c-11.24-36.308-6.091-76.087-1.332-98.809
		c1.945-9.285,12.576-13.752,20.58-8.659l8.097,5.151C140.978,415.963,149.473,467.602,154.634,491.154z"/>
	<path style="fill:#FFCDA8;" d="M401.847,466.411c-9.028,6.269-18.463,11.975-28.285,17.053
		c7.304-39.814,3.798-88.054,1.753-108.483c-0.635-6.348,1.625-12.643,6.136-17.154l14.327-14.327
		C402.766,361.785,412.766,401.951,401.847,466.411z"/>
</g>
<polygon style="fill:#91C6E0;" points="339.059,353.458 339.059,325.245 365.296,351.483 352.12,361.817 "/>
<path style="fill:#E6E5E5;" d="M416.914,405.964v20.104c0,7.22-5.851,13.072-13.072,13.072H367.7
	c-7.21,0-13.061-5.851-13.061-13.072v-20.104c0-7.21,5.851-13.061,13.061-13.061h36.143
	C411.063,392.902,416.914,398.754,416.914,405.964z"/>
<path style="fill:#FFFFFF;" d="M416.914,405.964v20.104c0,7.22-5.851,13.072-13.072,13.072h-10.021
	c-7.21,0-13.061-5.851-13.061-13.072v-20.104c0-7.21,5.851-13.061,13.061-13.061h10.021
	C411.063,392.902,416.914,398.754,416.914,405.964z"/>
<g>
</g>
<g>
</g>
<g>
</g>
<g>
</g>
<g>
</g>
<g>
</g>
<g>
</g>
<g>
</g>
<g>
</g>
<g>
</g>
<g>
</g>
<g>
</g>
<g>
</g>
<g>
</g>
<g>
</g>
</svg>
