<?xml version="1.0" encoding="iso-8859-1"?>
<!-- Generator: Adobe Illustrator 21.0.0, SVG Export Plug-In . SVG Version: 6.00 Build 0)  -->
<svg version="1.1" id="Capa_1" xmlns="http://www.w3.org/2000/svg" xmlns:xlink="http://www.w3.org/1999/xlink" x="0px" y="0px"
	 viewBox="0 0 511.996 511.996" style="enable-background:new 0 0 511.996 511.996;" xml:space="preserve">
<circle style="fill:#1195B2;" cx="255.998" cy="256.311" r="255.685"/>
<polygon style="fill:#C5DEEA;" points="366.637,105.792 472.429,0 494.604,0.567 510.991,0.988 386.413,125.567 "/>
<polygon style="fill:#91C6E0;" points="378.008,117.163 494.604,0.567 510.991,0.988 386.413,125.567 "/>
<g>
	<path style="fill:#384E99;" d="M376.942,92.372l20.918,20.918c5.691,5.691,5.691,14.917,0,20.608l-18.369,18.369l-41.526-41.526
		l18.369-18.369C362.024,86.68,371.25,86.68,376.942,92.372z"/>
	
		<rect x="49.262" y="361.198" transform="matrix(0.7071 -0.7071 0.7071 0.7071 -236.6218 189.1602)" style="fill:#384E99;" width="121.527" height="38.019"/>
</g>
<g>
	
		<rect x="55.981" y="377.425" transform="matrix(0.7071 -0.7071 0.7071 0.7071 -239.4069 195.8801)" style="fill:#263E82;" width="121.527" height="19.01"/>
	<path style="fill:#263E82;" d="M300.765,103.452l19.03-19.03c3.757-3.757,9.841-3.764,13.599-0.006l72.425,72.425
		c3.751,3.751,3.751,9.841-0.006,13.599l-19.03,19.03c-3.751,3.751-9.841,3.751-13.592,0l-72.425-72.425
		C297.008,113.287,297.014,107.203,300.765,103.452z"/>
</g>
<path style="fill:#384E99;" d="M300.765,103.452l19.03-19.03c3.757-3.757,9.841-3.764,13.599-0.006l47.752,47.751
	c3.757,3.757,3.757,9.849,0,13.606l-19.03,19.03c-3.751,3.751-9.841,3.751-13.599-0.006l-47.752-47.751
	C297.008,113.287,297.014,107.203,300.765,103.452z"/>
<rect x="104.348" y="171.772" transform="matrix(0.7071 -0.7071 0.7071 0.7071 -108.0067 243.5914)" style="fill:#FF5B47;" width="271.378" height="160.798"/>
<rect x="146.867" y="274.411" transform="matrix(0.7071 -0.7071 0.7071 0.7071 -125.6152 286.1086)" style="fill:#E53E2D;" width="271.378" height="40.549"/>
<g>
	<path style="fill:#91C6E0;" d="M295.26,85.833l109.138,109.138c4.537,4.537,4.537,11.893,0,16.43l-16.198,16.198
		c-4.537,4.537-11.893,4.537-16.43,0L262.632,118.46c-4.537-4.537-4.537-11.893,0-16.43l16.198-16.198
		C283.367,81.296,290.723,81.296,295.26,85.833z"/>
	<path style="fill:#91C6E0;" d="M140.1,475.692l-5.625,5.625c-11.793-6.376-23.033-13.661-33.615-21.749
		c-37.267-28.491-66.457-66.989-83.583-111.479c0.198-0.104,0.386-0.198,0.584-0.292c0.511-0.24,1.044-0.438,1.576-0.595
		c2.15-0.637,4.467-0.637,6.627,0c0.532,0.157,1.064,0.355,1.586,0.595c0.334,0.167,0.678,0.344,1.012,0.532
		c0.324,0.188,0.647,0.407,0.96,0.637c0.47,0.344,0.918,0.731,1.346,1.158l81.454,81.454c0.052,0.052,0.104,0.104,0.157,0.157
		l27.52,27.53C144.639,463.805,144.639,471.162,140.1,475.692z"/>
	<path style="fill:#91C6E0;" d="M70.74,293.926l16.196-16.196c4.536-4.536,11.892-4.536,16.426,0l109.141,109.141
		c4.536,4.536,4.536,11.892,0,16.426l-16.196,16.196c-4.542,4.542-11.898,4.542-16.434,0.006L70.734,310.36
		C66.198,305.824,66.198,298.468,70.74,293.926z"/>
</g>
<g>
	<path style="fill:#C5DEEA;" d="M262.637,102.029l16.196-16.196c4.536-4.536,11.892-4.536,16.426,0l81.455,81.455
		c4.536,4.536,4.536,11.892,0,16.426l-16.196,16.196c-4.542,4.542-11.898,4.542-16.434,0.006l-81.455-81.455
		C258.096,113.927,258.096,106.57,262.637,102.029z"/>
	<path style="fill:#C5DEEA;" d="M70.74,293.926l16.196-16.196c4.536-4.536,11.892-4.536,16.426,0l81.455,81.455
		c4.536,4.536,4.536,11.892,0,16.426l-16.196,16.196c-4.542,4.542-11.898,4.542-16.434,0.006L70.734,310.36
		C66.198,305.824,66.198,298.468,70.74,293.926z"/>
	<path style="fill:#C5DEEA;" d="M112.423,448.005l-11.563,11.563c-37.267-28.491-66.457-66.989-83.583-111.479
		c0.198-0.104,0.386-0.198,0.584-0.292c0.511-0.23,1.044-0.438,1.576-0.595c2.15-0.637,4.467-0.637,6.627,0
		c0.532,0.157,1.064,0.355,1.586,0.595c0.334,0.167,0.678,0.344,1.012,0.532c0.324,0.198,0.647,0.407,0.96,0.637
		c0.47,0.344,0.918,0.731,1.346,1.158l81.454,81.454c0.052,0.052,0.104,0.104,0.157,0.157
		C116.952,436.285,116.9,443.528,112.423,448.005z"/>
</g>
<g>
</g>
<g>
</g>
<g>
</g>
<g>
</g>
<g>
</g>
<g>
</g>
<g>
</g>
<g>
</g>
<g>
</g>
<g>
</g>
<g>
</g>
<g>
</g>
<g>
</g>
<g>
</g>
<g>
</g>
</svg>
