<?xml version="1.0" encoding="iso-8859-1"?>
<!-- Generator: Adobe Illustrator 21.0.0, SVG Export Plug-In . SVG Version: 6.00 Build 0)  -->
<svg version="1.1" id="Capa_1" xmlns="http://www.w3.org/2000/svg" xmlns:xlink="http://www.w3.org/1999/xlink" x="0px" y="0px"
	 viewBox="0 0 512 512" style="enable-background:new 0 0 512 512;" xml:space="preserve">
<circle style="fill:#384E99;" cx="256" cy="256" r="256"/>
<path style="fill:#C5DEEA;" d="M483.312,256.005c0,125.534-101.773,227.307-227.307,227.307c-16.917,0-33.395-1.849-49.257-5.35
	C104.892,455.466,28.688,364.633,28.688,256.005c0-111.303,79.987-203.922,185.626-223.493c13.511-2.518,27.449-3.824,41.691-3.824
	C381.539,28.688,483.312,130.461,483.312,256.005z"/>
<path style="fill:#91C6E0;" d="M172.016,443.23l34.732,34.732C104.892,455.466,28.688,364.633,28.688,256.005
	c0-111.303,79.987-203.922,185.626-223.493l-38.118,33.51l-30.302,49.11l-19.853,79.412v101.355l13.584,81.502L172.016,443.23z"/>
<path style="fill:#384E99;" d="M127.273,371.322c-17.585,6.649-34.62,14.658-50.955,23.92c3.917,5.048,8.042,9.929,12.362,14.624
	c14.322-7.928,29.2-14.843,44.517-20.672c2.778,7.634,5.807,15.054,9.09,22.23c10.934,23.906,24.338,44.016,39.375,59.441
	c8.164,2.824,16.532,5.207,25.088,7.097c8.08,1.784,16.322,3.132,24.699,4.032c-0.399-0.149-0.798-0.294-1.196-0.45
	c-33.057-12.977-60.925-49.577-78.727-98.74c13.415-4.256,27.114-7.711,41.033-10.29c17.678-3.295,35.815-5.19,54.042-5.679V483.1
	c3.121,0.128,6.254,0.212,9.406,0.212c3.151,0,6.282-0.082,9.402-0.208V366.828c32.741,0.867,64.705,6.28,95.187,15.905
	c-4.988,13.707-10.817,26.572-17.455,38.37c-17.638,31.348-39.257,52.216-62.514,60.877c17.307-1.864,34.03-5.672,49.95-11.2
	c10.661-10.99,20.546-24.437,29.414-40.196c7.191-12.78,13.492-26.702,18.864-41.519c15.316,5.809,30.189,12.738,44.547,20.698
	c4.309-4.688,8.422-9.559,12.33-14.598c-12.171-6.894-24.758-13.115-37.75-18.611c-4.39-1.857-8.814-3.597-13.255-5.275
	c9.701-32.445,15.191-68.448,15.98-105.871h82.399c0.128-3.12,0.209-6.253,0.209-9.404c0-3.151-0.082-6.284-0.209-9.404h-82.399
	c-0.785-37.209-6.218-73.012-15.815-105.312c4.385-1.659,8.754-3.378,13.089-5.212c13.112-5.546,25.814-11.828,38.09-18.799
	c-3.892-5.046-7.986-9.928-12.281-14.624c-14.414,8.016-29.35,14.993-44.732,20.837c-5.415-15.026-11.786-29.135-19.067-42.075
	c-8.867-15.76-18.752-29.207-29.414-40.198c-15.921-5.528-32.644-9.335-49.95-11.2c23.257,8.662,44.876,29.53,62.514,60.878
	c6.729,11.961,12.629,25.017,17.662,38.936c-30.543,9.666-62.579,15.102-95.393,15.971V28.897c-3.12-0.126-6.251-0.209-9.402-0.209
	c-3.151,0-6.285,0.074-9.406,0.202V145.81c-22.109-0.595-44.121-3.283-65.561-8.014c-10.056-2.22-19.985-4.911-29.766-8.026
	c3.012-8.363,6.331-16.407,9.95-24.062c18.37-38.859,43.212-65.597,70.223-75.696c-5.777,0.622-11.494,1.448-17.131,2.499
	c-11.21,2.076-22.126,4.984-32.693,8.64c-14.347,14.715-27.206,33.716-37.879,56.292c-3.906,8.261-7.484,16.935-10.722,25.952
	c-15.388-5.874-30.333-12.854-44.72-20.85c-4.305,4.702-8.412,9.587-12.314,14.639c16.408,9.333,33.523,17.408,51.191,24.102
	c-9.606,32.44-15.084,68.448-15.883,105.314H28.887c-0.127,3.12-0.2,6.253-0.2,9.404c0,3.15,0.071,6.285,0.197,9.404h82.404
	C112.067,302.916,117.505,338.778,127.273,371.322z M265.407,164.626c34.674-0.869,68.566-6.573,101.22-16.974
	c8.908,30.28,13.97,63.907,14.74,98.95H265.407V164.626z M265.407,265.409h115.96c-0.774,35.261-5.894,69.092-14.908,99.518
	c-32.602-10.366-66.438-16.053-101.052-16.92L265.407,265.409L265.407,265.409z M145.444,147.65
	c10.363,3.304,20.883,6.158,31.539,8.511c22.77,5.025,46.145,7.861,69.616,8.461v81.98H130.631
	C131.415,211.893,136.52,178.078,145.444,147.65z M246.599,265.409v82.608c-19.382,0.494-38.678,2.501-57.478,6.006
	c-14.745,2.731-29.255,6.396-43.464,10.912c-8.9-30.11-14.225-64-15.028-99.525L246.599,265.409L246.599,265.409z"/>
<path style="fill:#FF5B47;" d="M160.825,279.56c0,1.309,0.013,2.616,0.037,3.92c2.278,123.415,187.999,123.415,190.277,0
	c0.024-1.304,0.037-2.611,0.037-3.92c0-73.34-37.898-137.822-95.175-174.951C198.724,141.738,160.825,206.22,160.825,279.56z"/>
<path style="fill:#FFFFFF;" d="M323.042,239.165h-31.716c-5.376,0-9.734-4.358-9.734-9.734v-31.716c0-5.376-4.358-9.734-9.734-9.734
	h-31.716c-5.376,0-9.734,4.358-9.734,9.734v31.716c0,5.376-4.358,9.734-9.734,9.734h-31.716c-5.376,0-9.734,4.358-9.734,9.734
	v31.716c0,5.376,4.358,9.734,9.734,9.734h31.716c5.376,0,9.734,4.358,9.734,9.734v31.716c0,5.376,4.358,9.734,9.734,9.734h31.716
	c5.376,0,9.734-4.358,9.734-9.734v-31.716c0-5.376,4.358-9.734,9.734-9.734h31.716c5.376,0,9.734-4.358,9.734-9.734v-31.716
	C332.776,243.523,328.418,239.165,323.042,239.165z"/>
<g>
</g>
<g>
</g>
<g>
</g>
<g>
</g>
<g>
</g>
<g>
</g>
<g>
</g>
<g>
</g>
<g>
</g>
<g>
</g>
<g>
</g>
<g>
</g>
<g>
</g>
<g>
</g>
<g>
</g>
</svg>
