<?xml version="1.0" encoding="iso-8859-1"?>
<!-- Generator: Adobe Illustrator 21.0.0, SVG Export Plug-In . SVG Version: 6.00 Build 0)  -->
<svg version="1.1" id="Capa_1" xmlns="http://www.w3.org/2000/svg" xmlns:xlink="http://www.w3.org/1999/xlink" x="0px" y="0px"
	 viewBox="0 0 512 512" style="enable-background:new 0 0 512 512;" xml:space="preserve">
<path style="fill:#1195B2;" d="M512,256c0,59.925-20.585,115.043-55.077,158.657c-22.455,28.39-50.782,51.9-83.163,68.712
	c-19.195,9.958-39.821,17.565-61.492,22.423C294.17,509.858,275.331,512,256,512C114.615,512,0,397.385,0,256S114.615,0,256,0
	S512,114.615,512,256z"/>
<path style="fill:#00A6F9;" d="M456.923,414.657c-35.767,45.223-86.465,78.085-144.656,91.136l-46.226-64.773l51.963-35.213
	l94.605-64.115L456.923,414.657z"/>
<path style="fill:#91C6E0;" d="M373.76,483.37c-19.195,9.958-39.821,17.565-61.492,22.423l-46.226-64.773l51.963-35.213l2.957-0.951
	L373.76,483.37z"/>
<g>
	<path style="fill:#EFB691;" d="M65.64,230.268c-18.273,0-33.086-14.814-33.086-33.086s14.814-33.086,33.086-33.086h70.858v66.171"
		/>
	<path style="fill:#EFB691;" d="M159.082,296.44H65.64c-18.273,0-33.086-14.814-33.086-33.086s14.814-33.086,33.086-33.086h117.375"
		/>
	<path style="fill:#EFB691;" d="M182.72,149.452l-76.523-76.523c-12.921-12.921-33.869-12.921-46.791,0s-12.921,33.869,0,46.791
		l67.321,67.321"/>
</g>
<path style="fill:#FFCDA8;" d="M412.613,341.691c-2.18,6.035-4.803,11.897-7.833,17.55c-32.06,59.943-109.405,96.757-180.568,75.93
	c-22.255-6.515-37.996-22.132-48.944-39.043l-57.442-91.842l0.715-0.357l183.943-92.766l5.985-1.367
	c-3.671-21.196-2.931-43.106,2.414-64.599c4.84-19.521,24.583-31.419,44.104-26.578c19.533,4.853,31.431,24.607,26.578,44.117
	c-5.419,21.836-2.02,44.461,9.594,63.748C391.159,226.486,432.393,286.81,412.613,341.691z"/>
<path style="fill:#EFB691;" d="M404.78,359.242c-32.06,59.943-109.405,96.757-180.568,75.93
	c-22.255-6.515-37.996-22.132-48.944-39.043l-57.442-91.842l0.715-0.357l183.943-20.999
	C302.482,318.648,324.787,376.435,404.78,359.242z"/>
<path style="fill:#565454;" d="M88.891,146.804V53.736c0-18.346,14.87-33.226,33.216-33.226h153.313
	c18.346,0,33.216,14.879,33.216,33.226v309.168c0,18.346-14.87,33.216-33.216,33.216H122.107c-18.346,0-33.216-14.87-33.216-33.216
	V342.37V146.804z"/>
<polyline style="fill:#FFFFFF;" points="308.636,337.183 88.891,337.183 88.891,79.447 308.636,79.447 "/>
<path style="fill:#EFB691;" d="M328.752,264.062L328.752,264.062c-21.615-35.951-27.982-78.158-17.871-118.863
	c4.919-19.842,25.234-31.807,45.064-26.327c0.001,0.005,0,0.002,0.001,0.007c-27.808,15.678-21.415,76.909-15.818,109.314
	C342.392,241.292,338.152,254.663,328.752,264.062z"/>
<path style="fill:#FF5B47;" d="M140.739,232.235c0,0.798,0.007,1.596,0.022,2.39c1.389,75.241,114.616,75.241,116.005,0
	c0.015-0.795,0.022-1.591,0.022-2.39c0-44.713-23.106-84.025-58.024-106.661C163.844,148.21,140.739,187.522,140.739,232.235z"/>
<path style="fill:#FFFFFF;" d="M239.636,207.607H220.3c-3.278,0-5.935-2.657-5.935-5.935v-19.336c0-3.278-2.657-5.935-5.935-5.935
	h-19.335c-3.278,0-5.935,2.657-5.935,5.935v19.336c0,3.278-2.657,5.935-5.935,5.935h-19.336c-3.278,0-5.935,2.657-5.935,5.935
	v19.336c0,3.278,2.657,5.935,5.935,5.935h19.336c3.278,0,5.935,2.657,5.935,5.935v19.336c0,3.278,2.657,5.935,5.935,5.935h19.336
	c3.278,0,5.935-2.657,5.935-5.935v-19.337c0-3.278,2.657-5.935,5.935-5.935h19.336c3.278,0,5.935-2.657,5.935-5.935v-19.336
	C245.571,210.264,242.914,207.607,239.636,207.607z"/>
<g>
</g>
<g>
</g>
<g>
</g>
<g>
</g>
<g>
</g>
<g>
</g>
<g>
</g>
<g>
</g>
<g>
</g>
<g>
</g>
<g>
</g>
<g>
</g>
<g>
</g>
<g>
</g>
<g>
</g>
</svg>
