<?xml version="1.0" encoding="iso-8859-1"?>
<!-- Generator: Adobe Illustrator 21.0.0, SVG Export Plug-In . SVG Version: 6.00 Build 0)  -->
<svg version="1.1" id="Capa_1" xmlns="http://www.w3.org/2000/svg" xmlns:xlink="http://www.w3.org/1999/xlink" x="0px" y="0px"
	 viewBox="0 0 512 512" style="enable-background:new 0 0 512 512;" xml:space="preserve">
<path style="fill:#FFCDA8;" d="M512,256c0,83.153-39.643,157.038-101.063,203.797C367.929,492.554,314.243,512,256,512
	c-43.092,0-83.707-10.647-119.327-29.456c-12.528-6.614-24.44-14.232-35.621-22.747C39.633,413.027,0,339.143,0,256
	c0-34.44,6.802-67.302,19.143-97.301C37.794,113.33,69.11,74.501,108.68,46.623C150.34,17.241,201.153,0,256,0
	s105.66,17.241,147.32,46.623c39.57,27.878,70.875,66.696,89.527,112.055C505.198,188.688,512,221.55,512,256z"/>
<g>
	<path style="fill:#FF5B47;" d="M357.081,238.736h126.583c5.072,0,9.184-4.112,9.184-9.184v-45.895H357.081V238.736z"/>
	<path style="fill:#FF5B47;" d="M28.328,238.736h112.696v-49.445H19.145v40.261C19.145,234.625,23.256,238.736,28.328,238.736z"/>
</g>
<g>
	<path style="fill:#E53E2D;" d="M28.328,238.736h27.065v-49.445H19.145v40.261C19.145,234.625,23.256,238.736,28.328,238.736z"/>
	<rect x="410.676" y="189.294" style="fill:#E53E2D;" width="36.25" height="49.445"/>
</g>
<path style="fill:#C5DEEA;" d="M492.847,141.782v63.728h-81.91v254.286C367.929,492.554,314.243,512,256,512
	s-111.94-19.446-154.948-52.203V205.511h-81.91v-63.728c0-50.709,39.581-92.17,89.537-95.159c1.923-0.125,3.856-0.188,5.81-0.188
	H397.5c1.954,0,3.897,0.063,5.82,0.188C453.277,49.612,492.847,91.073,492.847,141.782z"/>
<path style="fill:#91C6E0;" d="M165.24,46.434h-50.752c-52.657,0-95.344,42.687-95.344,95.344v63.728h36.25v-63.728
	C55.394,77.782,112.584,46.434,165.24,46.434z"/>
<path style="fill:#FF5B47;" d="M157.948,46.434c0,54.151,43.898,98.049,98.049,98.049s98.049-43.898,98.049-98.049"/>
<g>
	<path style="fill:#91C6E0;" d="M185.921,46.434c0,38.702,31.374,70.076,70.076,70.076s70.076-31.374,70.076-70.076"/>
	<path style="fill:#91C6E0;" d="M410.939,155.305L410.939,155.305v50.202h11.34v-38.862
		C422.28,160.382,417.203,155.305,410.939,155.305z"/>
	<path style="fill:#91C6E0;" d="M136.673,190.924v291.621c-12.528-6.614-24.44-14.232-35.621-22.747V155.303
		C120.728,155.303,136.673,171.248,136.673,190.924z"/>
</g>
<path style="fill:#FF5B47;" d="M278.362,256.827c0,0.798,0.007,1.596,0.022,2.39c1.389,75.241,114.616,75.241,116.005,0
	c0.015-0.795,0.022-1.591,0.022-2.39c0-44.713-23.106-84.025-58.024-106.661C301.468,172.801,278.362,212.113,278.362,256.827z"/>
<path style="fill:#FFFFFF;" d="M377.259,232.198h-19.336c-3.278,0-5.935-2.657-5.935-5.935v-19.336c0-3.278-2.657-5.935-5.935-5.935
	h-19.335c-3.278,0-5.935,2.657-5.935,5.935v19.336c0,3.278-2.657,5.935-5.935,5.935h-19.336c-3.278,0-5.935,2.657-5.935,5.935
	v19.336c0,3.278,2.657,5.935,5.935,5.935h19.336c3.278,0,5.935,2.657,5.935,5.935v19.336c0,3.278,2.657,5.935,5.935,5.935h19.336
	c3.278,0,5.935-2.657,5.935-5.935v-19.336c0-3.278,2.657-5.935,5.935-5.935h19.336c3.278,0,5.935-2.657,5.935-5.935v-19.336
	C383.194,234.855,380.537,232.198,377.259,232.198z"/>
<g>
</g>
<g>
</g>
<g>
</g>
<g>
</g>
<g>
</g>
<g>
</g>
<g>
</g>
<g>
</g>
<g>
</g>
<g>
</g>
<g>
</g>
<g>
</g>
<g>
</g>
<g>
</g>
<g>
</g>
</svg>
