<?xml version="1.0" encoding="iso-8859-1"?>
<!-- Generator: Adobe Illustrator 21.0.0, SVG Export Plug-In . SVG Version: 6.00 Build 0)  -->
<svg version="1.1" id="Capa_1" xmlns="http://www.w3.org/2000/svg" xmlns:xlink="http://www.w3.org/1999/xlink" x="0px" y="0px"
	 viewBox="0 0 512 512" style="enable-background:new 0 0 512 512;" xml:space="preserve">
<path style="fill:#384E99;" d="M512,256c0,31.065-5.538,60.834-15.673,88.388c-9.853,26.802-24.074,51.503-41.796,73.237
	c-5.204,6.395-10.71,12.528-16.509,18.38c-16.039,16.227-34.231,30.313-54.115,41.796C346.279,499.555,302.592,512,256,512
	s-90.279-12.445-127.906-34.2c-19.884-11.483-38.076-25.569-54.115-41.796c-5.799-5.851-11.306-11.985-16.509-18.38
	c-17.721-21.734-31.943-46.435-41.796-73.237C5.538,316.834,0,287.065,0,256s5.538-60.834,15.673-88.388
	c8.464-23.03,20.156-44.513,34.513-63.885C96.831,40.793,171.656,0,256,0s159.169,40.793,205.814,103.727
	c14.357,19.372,26.049,40.856,34.513,63.885C506.462,195.166,512,224.935,512,256z"/>
<path style="fill:#91C6E0;" d="M426.315,205.083H85.679V52.959c0-16.395,13.291-29.688,29.688-29.688h281.262
	c16.395,0,29.688,13.291,29.688,29.688v152.125H426.315z M127.474,163.287h257.045v-98.22H127.474
	C127.474,65.067,127.474,163.287,127.474,163.287z"/>
<path style="fill:#C5DEEA;" d="M496.327,135.084v209.304c-9.853,26.802-24.074,51.503-41.796,73.237
	c-5.204,6.395-10.71,12.528-16.509,18.38c-16.039,16.227-34.231,30.313-54.115,41.796H128.094
	c-19.884-11.483-38.076-25.569-54.115-41.796c-5.799-5.851-11.306-11.985-16.509-18.38c-17.721-21.734-31.943-46.435-41.796-73.237
	V135.084c0-17.314,14.033-31.357,31.357-31.357h417.928C482.283,103.727,496.327,117.77,496.327,135.084z"/>
<path style="fill:#FFFFFF;" d="M454.531,145.523v272.102c-5.204,6.395-10.71,12.528-16.509,18.38H73.979
	c-5.799-5.851-11.306-11.985-16.509-18.38V145.523H454.531z"/>
<path style="fill:#FF5B47;" d="M358.984,251.058h-47.15c-8.909,0-16.131-7.222-16.131-16.131v-47.15
	c0-8.909-7.222-16.131-16.131-16.131h-47.15c-8.909,0-16.131,7.222-16.131,16.131v47.15c0,8.909-7.222,16.131-16.131,16.131h-47.15
	c-8.909,0-16.131,7.222-16.131,16.131v47.15c0,8.909,7.222,16.131,16.131,16.131h47.15c8.909,0,16.131,7.222,16.131,16.131v47.15
	c0,8.909,7.222,16.131,16.131,16.131h47.15c8.909,0,16.131-7.222,16.131-16.131v-47.15c0-8.909,7.222-16.131,16.131-16.131h47.15
	c8.909,0,16.131-7.222,16.131-16.131v-47.15C375.115,258.28,367.893,251.058,358.984,251.058z"/>
<g>
</g>
<g>
</g>
<g>
</g>
<g>
</g>
<g>
</g>
<g>
</g>
<g>
</g>
<g>
</g>
<g>
</g>
<g>
</g>
<g>
</g>
<g>
</g>
<g>
</g>
<g>
</g>
<g>
</g>
</svg>
