<?xml version="1.0" encoding="iso-8859-1"?>
<!-- Generator: Adobe Illustrator 21.0.0, SVG Export Plug-In . SVG Version: 6.00 Build 0)  -->
<svg version="1.1" id="Capa_1" xmlns="http://www.w3.org/2000/svg" xmlns:xlink="http://www.w3.org/1999/xlink" x="0px" y="0px"
	 viewBox="0 0 512 512" style="enable-background:new 0 0 512 512;" xml:space="preserve">
<circle style="fill:#1195B2;" cx="256" cy="256" r="256"/>
<path style="fill:#C5DEEA;" d="M256,124.767c-20.928-25.496-62.724-54.478-112.481-54.478c-22.771,0-46.385,6.26-70.185,18.604
	c-8.812,4.574-16.851,9.965-24.015,16.098h-0.876l-7.944,8.368c-6.602,6.969-12.305,14.777-16.951,23.204
	c-5.417,9.835-9.418,20.55-11.895,31.861c-10.932,49.228,6.422,108.855,47.629,163.517
	c42.777,56.742,106.967,102.38,180.746,128.508L256,466.104l15.972-5.656c73.779-26.128,137.97-71.766,180.746-128.508
	c41.207-54.662,58.56-114.289,47.628-163.516c-2.477-11.311-6.477-22.027-11.895-31.861c-4.647-8.427-10.35-16.235-16.951-23.204
	l-7.944-8.368h-0.875c-7.165-6.133-15.204-11.524-24.015-16.098c-23.8-12.345-47.413-18.604-70.185-18.604
	C318.724,70.289,276.928,99.272,256,124.767L256,124.767z"/>
<path style="fill:#FF5B47;" d="M256.014,435.199c0,0-0.01-0.01-0.042-0.031c0-0.021-0.021-0.021-0.042-0.031c-0.01,0-0.01,0-0.021,0
	C118.108,386.298,38.884,274.88,42.384,193.201h427.227C473.143,274.891,393.898,386.371,256.014,435.199z"/>
<path style="fill:#E7F5FC;" d="M450.354,206.126c0,30.009-16.844,54.335-37.616,54.335c-20.773,0-37.616-24.325-37.616-54.335
	c0-4.451,0.376-8.788,1.076-12.925c4.012-23.771,18.85-41.409,36.54-41.409c17.69,0,32.528,17.638,36.551,41.409
	C449.978,197.338,450.354,201.675,450.354,206.126z"/>
<path style="fill:#FC8980;" d="M450.354,206.126c0,30.009-16.844,54.335-37.616,54.335c-20.773,0-37.616-24.325-37.616-54.335
	c0-4.451,0.376-8.788,1.076-12.925h73.091C449.978,197.338,450.354,201.675,450.354,206.126z"/>
<path style="fill:#E53E2D;" d="M255.909,435.136C118.108,386.298,38.884,274.88,42.384,193.201h81.962
	C109.947,334.784,251.521,432.148,255.909,435.136z"/>
<g>
</g>
<g>
</g>
<g>
</g>
<g>
</g>
<g>
</g>
<g>
</g>
<g>
</g>
<g>
</g>
<g>
</g>
<g>
</g>
<g>
</g>
<g>
</g>
<g>
</g>
<g>
</g>
<g>
</g>
</svg>
