<?xml version="1.0" encoding="iso-8859-1"?>
<!-- Generator: Adobe Illustrator 21.0.0, SVG Export Plug-In . SVG Version: 6.00 Build 0)  -->
<svg version="1.1" id="Capa_1" xmlns="http://www.w3.org/2000/svg" xmlns:xlink="http://www.w3.org/1999/xlink" x="0px" y="0px"
	 viewBox="0 0 512.001 512.001" style="enable-background:new 0 0 512.001 512.001;" xml:space="preserve">
<circle style="fill:#384E99;" cx="255.998" cy="256.001" r="255.998"/>
<path style="fill:#DEAB85;" d="M323.47,296.439L137.124,482.785c-11.922-6.259-23.291-13.437-34.011-21.431
	c-30.187-22.517-55.254-51.534-73.101-84.971c-1.588-2.967-3.114-5.977-4.587-9.017c-2.257-4.671-4.378-9.414-6.353-14.242
	l180.547-180.536L323.47,296.439z"/>
<path style="fill:#BD8062;" d="M229.43,202.399L39.375,392.454c-3.323-5.224-6.437-10.595-9.362-16.07
	c-1.588-2.967-3.114-5.977-4.587-9.017c-2.257-4.671-4.378-9.414-6.353-14.242l180.547-180.536L229.43,202.399z"/>
<path style="fill:#DEAB85;" d="M447.596,262.272c-15.439,4.424-37.741,26.71-37.869,26.837c0,0-86.332,85.519-148.392,23.458
	c-23.203-23.203-55.867-55.867-55.867-55.867c-45.801-45.801-24.797-118.55,15.535-158.883L310.579,8.24
	c10.354-10.354,27.157-10.354,37.511,0c5.181,5.181,7.764,11.972,7.772,18.756c0,6.791-2.599,13.583-7.771,18.755L386.072,7.77
	c10.362-10.362,27.157-10.354,37.511,0c5.181,5.181,7.772,11.964,7.772,18.755c0,6.792-2.59,13.574-7.772,18.756l29.244-29.244
	c10.362-10.362,27.157-10.354,37.519,0.008c5.173,5.173,7.771,11.964,7.771,18.756c-0.008,6.783-2.59,13.574-7.772,18.756
	l-23.618,23.618c10.362-10.362,27.148-10.362,37.502-0.007c5.181,5.181,7.772,11.964,7.772,18.756c0,6.791-2.59,13.574-7.771,18.755
	L403.614,215.293c8.552-4.71,17.687-8.489,27.308-11.239c16.077-4.615,32.84,4.686,37.447,20.771
	C472.975,240.911,463.673,257.674,447.596,262.272z"/>
<g>
	<path style="fill:#BD8062;" d="M218.219,269.454c-7.628-7.628-12.753-12.753-12.753-12.753
		c-45.801-45.801-24.797-118.55,15.535-158.882l89.576-89.576c10.354-10.354,27.157-10.354,37.511,0
		c2.24,2.24,3.994,4.774,5.261,7.493c-9.82-4.607-21.904-2.854-30.018,5.261l-89.576,89.576
		C193.423,150.904,172.42,223.653,218.219,269.454z"/>
	<path style="fill:#BD8062;" d="M298.354,95.487l87.278-87.278C395.878-2.037,412.601-2.69,423.096,7.3
		c2.472,2.353,4.388,5.053,5.744,7.964c-9.82-4.607-21.904-2.854-30.018,5.261l-87.716,87.716c-3.521,3.521-9.232,3.521-12.753,0
		l0,0C294.833,104.718,294.833,99.009,298.354,95.487z"/>
	<path style="fill:#BD8062;" d="M343.716,125.147l109.109-109.11c10.246-10.246,26.969-10.899,37.465-0.909
		c2.472,2.353,4.387,5.053,5.744,7.964c-9.82-4.607-21.904-2.854-30.018,5.261L356.469,137.9c-3.521,3.521-9.232,3.521-12.753,0l0,0
		C340.195,134.378,340.195,128.668,343.716,125.147z"/>
	<path style="fill:#BD8062;" d="M375.129,168.771l91.598-91.598c10.246-10.246,26.969-10.899,37.465-0.909
		c2.472,2.353,4.388,5.053,5.744,7.964c-9.82-4.607-21.904-2.854-30.018,5.261l-92.035,92.035c-3.521,3.521-9.232,3.521-12.753,0
		l0,0C371.606,178.003,371.606,172.294,375.129,168.771z"/>
	<path style="fill:#BD8062;" d="M469.468,231.058c-7.054-10.912-20.637-16.428-33.765-12.658
		c-22.127,6.329-41.743,18.102-57.398,34.139c-24.219-24.218-61.778-26.939-88.987-8.169c-2.872,1.981-6.738,1.668-9.207-0.799l0,0
		c-3.046-3.046-2.743-8.061,0.629-10.74c27.424-21.787,67.421-19.999,92.781,5.361c15.655-16.038,35.271-27.811,57.398-34.139
		c16.077-4.615,32.84,4.686,37.447,20.771C468.958,226.898,469.325,228.986,469.468,231.058z"/>
</g>
<path style="fill:#F2F1F1;" d="M100.313,336.741L100.313,336.741c0-15.293,12.397-27.69,27.69-27.69h86.726
	c15.293,0,27.69,12.397,27.69,27.69l0,0c0,15.293-12.397,27.69-27.69,27.69h-86.726C112.71,364.43,100.313,352.034,100.313,336.741z
	"/>
<path style="fill:#FFFFFF;" d="M171.365,407.793L171.365,407.793c-15.293,0-27.69-12.397-27.69-27.69v-86.726
	c0-15.293,12.397-27.69,27.69-27.69l0,0c15.293,0,27.69,12.397,27.69,27.69v86.726C199.055,395.397,186.658,407.793,171.365,407.793
	z"/>
<g>
</g>
<g>
</g>
<g>
</g>
<g>
</g>
<g>
</g>
<g>
</g>
<g>
</g>
<g>
</g>
<g>
</g>
<g>
</g>
<g>
</g>
<g>
</g>
<g>
</g>
<g>
</g>
<g>
</g>
</svg>
