<?xml version="1.0" encoding="iso-8859-1"?>
<!-- Generator: Adobe Illustrator 21.0.0, SVG Export Plug-In . SVG Version: 6.00 Build 0)  -->
<svg version="1.1" id="Capa_1" xmlns="http://www.w3.org/2000/svg" xmlns:xlink="http://www.w3.org/1999/xlink" x="0px" y="0px"
	 viewBox="0 0 512 512" style="enable-background:new 0 0 512 512;" xml:space="preserve">
<path style="fill:#00A6F9;" d="M512,256c0,56.31-18.181,108.377-48.985,150.643c-6.207,8.495-12.905,16.603-20.083,24.263
	C396.215,480.81,329.749,512,256,512c-42.914,0-83.351-10.553-118.878-29.215c-11.922-6.259-23.291-13.437-34.011-21.431
	c-25.234-18.829-46.895-42.193-63.739-68.901c-3.323-5.224-6.437-10.595-9.362-16.071c-1.588-2.967-3.114-5.977-4.587-9.017
	c-2.257-4.671-4.378-9.415-6.353-14.242C6.771,323.166,0,290.377,0,256C0,114.615,114.615,0,256,0
	c27.857,0,54.68,4.451,79.788,12.685c3.385,1.108,6.75,2.288,10.083,3.542c11.201,4.19,22.037,9.153,32.423,14.817
	c0.575,0.313,1.139,0.627,1.703,0.951c39.946,22.141,73.341,54.68,96.549,93.947C499.075,164.059,512,208.52,512,256z"/>
<path style="fill:#FFCDA8;" d="M323.469,296.438L137.122,482.785c-11.922-6.259-23.291-13.437-34.011-21.431
	c-30.187-22.518-55.254-51.534-73.101-84.971c-1.588-2.967-3.114-5.977-4.587-9.017c-2.257-4.671-4.378-9.415-6.353-14.242
	l180.548-180.537L323.469,296.438z"/>
<path style="fill:#EFB691;" d="M229.428,202.397L39.372,392.453c-3.323-5.224-6.437-10.595-9.362-16.071
	c-1.588-2.967-3.114-5.977-4.587-9.017c-2.257-4.671-4.378-9.415-6.353-14.242l180.548-180.537L229.428,202.397z"/>
<path style="fill:#FFCDA8;" d="M447.596,262.27c-15.439,4.424-37.742,26.71-37.869,26.837c0,0-86.333,85.52-148.393,23.458
	c-23.203-23.203-55.868-55.868-55.868-55.868c-45.801-45.801-24.798-118.551,15.536-158.884l89.577-89.577
	c10.354-10.354,27.157-10.354,37.511,0c5.181,5.181,7.764,11.972,7.772,18.756c0,6.791-2.599,13.583-7.771,18.755l37.979-37.979
	c10.362-10.362,27.157-10.354,37.511,0c5.181,5.181,7.772,11.964,7.772,18.755c0,6.792-2.59,13.574-7.772,18.756l29.245-29.245
	c10.362-10.362,27.157-10.354,37.519,0.008c5.173,5.173,7.771,11.964,7.771,18.756c-0.008,6.783-2.59,13.574-7.772,18.756
	l-23.618,23.618c10.362-10.362,27.149-10.362,37.502-0.007c5.181,5.181,7.772,11.964,7.772,18.756c0,6.791-2.59,13.574-7.771,18.755
	L403.612,215.293c8.552-4.71,17.687-8.489,27.308-11.239c16.077-4.615,32.84,4.686,37.447,20.772
	C472.975,240.909,463.672,257.671,447.596,262.27z"/>
<g>
	<path style="fill:#EFB691;" d="M218.218,269.452c-7.628-7.628-12.753-12.753-12.753-12.753
		C159.664,210.898,180.667,138.148,221,97.816l89.577-89.577c10.354-10.354,27.157-10.354,37.511,0
		c2.24,2.24,3.994,4.774,5.261,7.493c-9.82-4.607-21.904-2.854-30.018,5.261l-89.577,89.577
		C193.42,150.901,172.418,223.651,218.218,269.452z"/>
	<path style="fill:#EFB691;" d="M298.353,95.484l87.278-87.278C395.877-2.041,412.6-2.694,423.096,7.297
		c2.472,2.353,4.388,5.053,5.744,7.964c-9.82-4.607-21.904-2.854-30.018,5.261l-87.716,87.716c-3.521,3.521-9.232,3.521-12.753,0
		l0,0C294.832,104.715,294.832,99.006,298.353,95.484z"/>
	<path style="fill:#EFB691;" d="M343.715,125.143L452.824,16.034c10.246-10.246,26.969-10.899,37.465-0.909
		c2.472,2.353,4.388,5.053,5.744,7.964c-9.82-4.607-21.904-2.854-30.018,5.261L356.468,137.897c-3.521,3.521-9.232,3.521-12.753,0
		l0,0C340.194,134.375,340.194,128.666,343.715,125.143z"/>
	<path style="fill:#EFB691;" d="M375.127,168.769l91.599-91.599c10.246-10.246,26.969-10.899,37.465-0.909
		c2.472,2.353,4.388,5.053,5.744,7.964c-9.82-4.607-21.904-2.854-30.018,5.261l-92.036,92.036c-3.521,3.521-9.232,3.521-12.753,0
		l0,0C371.605,178,371.605,172.291,375.127,168.769z"/>
	<path style="fill:#EFB691;" d="M469.467,231.056c-7.054-10.912-20.637-16.428-33.765-12.658
		c-22.127,6.329-41.743,18.102-57.398,34.139c-24.219-24.219-61.779-26.94-88.988-8.169c-2.872,1.981-6.739,1.668-9.207-0.799l0,0
		c-3.046-3.046-2.743-8.061,0.629-10.741c27.424-21.787,67.421-19.999,92.782,5.361c15.655-16.038,35.272-27.811,57.398-34.139
		c16.077-4.615,32.84,4.686,37.447,20.772C468.958,226.895,469.324,228.984,469.467,231.056z"/>
</g>
<path style="fill:#FF5B47;" d="M463.015,406.643c-6.207,8.495-12.905,16.603-20.083,24.263l-42.851-42.851
	c-9.456-9.467-22.037-14.67-35.412-14.67s-25.955,5.204-35.412,14.67l-77.845,77.845c-15.882,15.872-36.728,23.813-57.584,23.813
	s-41.702-7.941-57.584-23.813c-31.744-31.754-31.744-83.414,0-115.169l17.763-17.763l22.173,22.173l-17.763,17.763
	c-19.529,19.529-19.529,51.294,0,70.823c9.456,9.467,22.037,14.67,35.412,14.67s25.955-5.204,35.412-14.67l77.845-77.845
	c31.754-31.744,83.414-31.744,115.169,0L463.015,406.643z"/>
<g>
	
		<rect x="154" y="316.164" transform="matrix(0.7071 -0.7071 0.7071 0.7071 -192.558 218.3024)" style="fill:#FFFFFF;" width="26.47" height="50.852"/>
	
		<rect x="165.839" y="318.925" transform="matrix(0.7071 -0.7071 0.7071 0.7071 -180.714 223.2036)" style="fill:#FFFFFF;" width="26.47" height="21.635"/>
</g>
<path style="fill:#EFB691;" d="M208.53,284.996l-27.741,27.741l15.299,15.299l27.741-27.741c4.225-4.225,4.225-11.074,0-15.299l0,0
	C219.605,280.771,212.755,280.771,208.53,284.996z"/>
<g>
</g>
<g>
</g>
<g>
</g>
<g>
</g>
<g>
</g>
<g>
</g>
<g>
</g>
<g>
</g>
<g>
</g>
<g>
</g>
<g>
</g>
<g>
</g>
<g>
</g>
<g>
</g>
<g>
</g>
</svg>
