<?xml version="1.0" encoding="iso-8859-1"?>
<!-- Generator: Adobe Illustrator 21.0.0, SVG Export Plug-In . SVG Version: 6.00 Build 0)  -->
<svg version="1.1" id="Capa_1" xmlns="http://www.w3.org/2000/svg" xmlns:xlink="http://www.w3.org/1999/xlink" x="0px" y="0px"
	 viewBox="0 0 512 512" style="enable-background:new 0 0 512 512;" xml:space="preserve">
<path style="fill:#384E99;" d="M512,256c0,135.189-104.782,245.896-237.568,255.342C268.34,511.781,262.196,512,256,512
	c-6.207,0-12.351-0.219-18.442-0.658C104.782,501.896,0,391.189,0,256C0,114.615,114.615,0,256,0S512,114.615,512,256z"/>
<path style="fill:#91C6E0;" d="M274.432,464.98v46.362C268.34,511.781,262.196,512,256,512c-1.63,0-3.25-0.01-4.859-0.052
	c-4.566-0.073-9.091-0.282-13.584-0.606V464.98H274.432z"/>
<path style="fill:#A4D8F2;" d="M274.432,488.333v23.009C268.34,511.781,262.196,512,256,512c-1.63,0-3.25-0.01-4.859-0.052v-23.615
	H274.432z"/>
<rect x="219.951" y="429.035" style="fill:#91C6E0;" width="72.098" height="47.02"/>
<g>
	<rect x="235.102" y="455.596" style="fill:#A4D8F2;" width="56.947" height="20.459"/>
	<path style="fill:#A4D8F2;" d="M385.593,439.993c-86.397,10.828-172.796,10.828-259.193,0
		c-25.27-3.167-44.938-23.575-47.299-48.934c-10.096-108.42-10.096-216.839,0-325.259c2.361-25.358,22.03-45.767,47.299-48.934
		c86.397-10.828,172.795-10.828,259.193,0c25.27,3.167,44.938,23.575,47.299,48.934c10.096,108.42,10.096,216.839,0,325.259
		C430.531,416.417,410.863,436.826,385.593,439.993z"/>
</g>
<path style="fill:#91C6E0;" d="M168.252,439.992c29.247,5.413,58.493,8.119,87.751,8.119c-43.207,0-86.403-2.706-129.599-8.119
	c-25.276-3.166-44.941-23.583-47.303-48.933c-10.094-108.419-10.094-216.848,0-325.266c2.361-25.36,22.026-45.767,47.303-48.933
	c43.196-5.413,86.392-8.119,129.599-8.119c-29.257,0-58.504,2.706-87.751,8.119c-17.105,3.166-30.427,23.573-32.026,48.933
	c-6.834,108.419-6.834,216.848,0,325.266C137.824,416.409,151.147,436.826,168.252,439.992z"/>
<path style="fill:#FF5B47;" d="M401.68,388.148c-0.993,10.689-9.404,19.414-19.989,20.741c-41.702,5.224-83.999,7.879-125.691,7.879
	c-38.525,0-77.542-2.267-116.151-6.729c-3.187-0.366-6.374-0.752-9.55-1.149c-10.585-1.327-18.986-10.052-19.989-20.741
	c-7.314-78.608-9.206-158.03-5.663-237.066l27.857-7.868l109.014-30.762l165.836,38.63
	C410.896,230.118,409.004,309.541,401.68,388.148z"/>
<path style="fill:#E53E2D;" d="M139.849,410.039c-3.187-0.366-6.374-0.752-9.55-1.149c-10.585-1.327-18.986-10.052-19.989-20.741
	c-7.314-78.608-9.206-158.03-5.663-237.066l27.857-7.868c-2.727,82.62-1.484,165.24,3.72,247.85
	C136.652,397.814,137.906,404.219,139.849,410.039z"/>
<path style="fill:#FC8980;" d="M356.167,388.153h-41.218c-11.123,0-20.14-9.017-20.14-20.14V104.381
	c0-11.123,9.017-20.14,20.14-20.14h41.218c11.123,0,20.14,9.017,20.14,20.14v263.632
	C376.307,379.136,367.29,388.153,356.167,388.153z"/>
<path style="fill:#00A6F9;" d="M407.353,151.082H104.647c1.223-27.523,3.114-55.003,5.663-82.38
	c1.003-10.679,9.404-19.404,19.989-20.731c3.176-0.397,6.363-0.784,9.55-1.149c38.609-4.462,77.625-6.729,116.151-6.729
	c41.691,0,83.989,2.654,125.691,7.879c10.585,1.327,18.996,10.052,19.989,20.731C404.229,96.078,406.12,123.559,407.353,151.082z"/>
<path style="fill:#E7F5FC;" d="M376.31,104.385v46.696h-81.502v-46.696c0-11.128,9.017-20.146,20.146-20.146h41.211
	C367.292,84.24,376.31,93.257,376.31,104.385z"/>
<g>
	<rect x="318.318" y="164.174" style="fill:#414142;" width="79.935" height="29.78"/>
	<rect x="318.318" y="233.127" style="fill:#414142;" width="79.935" height="29.78"/>
	<rect x="318.318" y="302.09" style="fill:#414142;" width="79.935" height="29.78"/>
</g>
<g>
	<rect x="318.318" y="164.174" style="fill:#5D5D5E;" width="57.992" height="29.78"/>
	<rect x="318.318" y="233.127" style="fill:#5D5D5E;" width="57.992" height="29.78"/>
	<rect x="318.318" y="302.09" style="fill:#5D5D5E;" width="57.992" height="29.78"/>
</g>
<path style="fill:#C5DEEA;" d="M139.849,46.822c-1.944,5.82-3.197,12.215-3.626,18.975c-1.787,28.432-3.114,56.853-3.96,85.285
	h-27.617c1.223-27.523,3.114-55.003,5.663-82.38c1.003-10.679,9.404-19.404,19.989-20.731
	C133.475,47.574,136.662,47.188,139.849,46.822z"/>
<g>
</g>
<g>
</g>
<g>
</g>
<g>
</g>
<g>
</g>
<g>
</g>
<g>
</g>
<g>
</g>
<g>
</g>
<g>
</g>
<g>
</g>
<g>
</g>
<g>
</g>
<g>
</g>
<g>
</g>
</svg>
