<svg id="Layer_3" enable-background="new 0 0 64 64" height="512" viewBox="0 0 64 64" width="512" xmlns="http://www.w3.org/2000/svg"><path d="m25.172 27.172-.343-.343c-1.812-1.812-2.829-4.268-2.829-6.829 0-1.956.579-3.869 1.664-5.496l8.336-12.504 8.336 12.504c1.085 1.627 1.664 3.54 1.664 5.496 0 2.561-1.017 5.017-2.828 6.828l-.343.343c-1.812 1.812-4.268 2.829-6.829 2.829-2.561 0-5.017-1.017-6.828-2.828z" fill="#b24e4a"/><path d="m37.336 14.504-6.836-10.254-6.836 10.254c-1.085 1.627-1.664 3.54-1.664 5.496 0 2.561 1.017 5.017 2.828 6.828l.343.343c1.453 1.453 3.324 2.384 5.328 2.7 2.005-.316 3.875-1.247 5.328-2.7l.343-.343c1.813-1.811 2.83-4.267 2.83-6.828 0-1.956-.579-3.869-1.664-5.496z" fill="#ed6863"/><path d="m38 18h-4v-4h-4v4h-4v4h4v4h4v-4h4z" fill="#d1f2fd"/><path d="m46 34v-14c0-1.105.895-2 2-2 1.105 0 2 .895 2 2v10-12c0-1.105.895-2 2-2 1.105 0 2 .895 2 2v12-10c0-1.105.895-2 2-2 1.105 0 2 .895 2 2v10-8c0-1.105.895-2 2-2 1.105 0 2 .895 2 2v11.343c0 3.622-1.439 7.096-4 9.657v19h-12v-19c-2.561-2.561-4-6.035-4-9.657v-3.343c0-1.105.895-2 2-2 1.105 0 2 .895 2 2v4c2.209 0 4 1.791 4 4" fill="#f7c77a"/><path d="m18 34v-14c0-1.105-.895-2-2-2-1.105 0-2 .895-2 2v10-12c0-1.105-.895-2-2-2-1.105 0-2 .895-2 2v12-10c0-1.105-.895-2-2-2-1.105 0-2 .895-2 2v10-8c0-1.105-.895-2-2-2-1.105 0-2 .895-2 2v11.343c0 3.622 1.439 7.096 4 9.657v19h12v-19c2.561-2.561 4-6.035 4-9.657v-3.343c0-1.105-.895-2-2-2-1.105 0-2 .895-2 2v4c-2.209 0-4 1.791-4 4" fill="#f7c77a"/><path d="m10 48h4v4h-4z" fill="#b24e4a"/><path d="m10 48h2v4h-2z" fill="#ed6863"/><path d="m50 48h4v4h-4z" fill="#b24e4a"/><path d="m50 48h2v4h-2z" fill="#ed6863"/><path d="m30 62c-1.654 0-3-1.346-3-3v-13c0-.551-.448-1-1-1s-1 .449-1 1v2c0 1.654-1.346 3-3 3h-8v-2h8c.552 0 1-.449 1-1v-2c0-1.654 1.346-3 3-3s3 1.346 3 3v13c0 .551.448 1 1 1s1-.449 1-1v-7c0-1.654 1.346-3 3-3s3 1.346 3 3v2c0 .551.448 1 1 1s1-.449 1-1v-2c0-1.654 1.346-3 3-3h8v2h-8c-.552 0-1 .449-1 1v2c0 1.654-1.346 3-3 3s-3-1.346-3-3v-2c0-.551-.448-1-1-1s-1 .449-1 1v7c0 1.654-1.346 3-3 3z" fill="#868992"/></svg>