<svg id="Layer_3" enable-background="new 0 0 64 64" height="512" viewBox="0 0 64 64" width="512" xmlns="http://www.w3.org/2000/svg"><path d="m15 62c-4.971 0-9-4.029-9-9v-43h18v43c0 4.971-4.029 9-9 9z" fill="#868992"/><path d="m13.5 61.865c4.255-.715 7.5-4.407 7.5-8.865v-43h-15v43c0 4.458 3.245 8.15 7.5 8.865z" fill="#b3b6c2"/><path d="m45 62c-4.971 0-9-4.029-9-9v-43h18v43c0 4.971-4.029 9-9 9z" fill="#868992"/><path d="m43.5 61.865c4.255-.715 7.5-4.407 7.5-8.865v-43h-15v43c0 4.458 3.245 8.15 7.5 8.865z" fill="#b3b6c2"/><path d="m2 2h26v8h-26z" fill="#434549"/><path d="m2 2h23v8h-23z" fill="#65676e"/><path d="m32 2h26v8h-26z" fill="#434549"/><path d="m32 2h23v8h-23z" fill="#65676e"/><path d="m6 16h10v32h-10z" fill="#a1a1aa"/><path d="m6 16h7v32h-7z" fill="#d7d7e2"/><path d="m36 16h10v32h-10z" fill="#a1a1aa"/><path d="m36 16h7v32h-7z" fill="#d7d7e2"/><path d="m47.688 41.11c-1.093-1.366-1.688-3.063-1.688-4.812 0-2.157.598-4.271 1.729-6.108l6.271-10.19 6.271 10.191c1.131 1.837 1.729 3.951 1.729 6.107 0 1.749-.595 3.446-1.688 4.811-1.461 1.827-3.674 2.891-6.014 2.891h-.597c-2.339 0-4.552-1.064-6.013-2.89z" fill="#b24e4a"/><path d="m52.5 22.437-4.771 7.753c-1.131 1.838-1.729 3.952-1.729 6.108 0 1.749.595 3.445 1.688 4.811 1.208 1.51 2.931 2.487 4.812 2.785 1.881-.298 3.605-1.275 4.812-2.785 1.093-1.365 1.688-3.062 1.688-4.811 0-2.157-.598-4.271-1.729-6.108z" fill="#ed6863"/><path d="m17.688 41.11c-1.093-1.366-1.688-3.063-1.688-4.812 0-2.157.598-4.271 1.729-6.108l6.271-10.19 6.271 10.191c1.131 1.837 1.729 3.951 1.729 6.107 0 1.749-.595 3.446-1.688 4.811-1.461 1.827-3.674 2.891-6.014 2.891h-.597c-2.339 0-4.552-1.064-6.013-2.89z" fill="#b24e4a"/><path d="m22.5 22.437-4.771 7.753c-1.131 1.838-1.729 3.952-1.729 6.108 0 1.749.595 3.445 1.688 4.811 1.208 1.51 2.931 2.487 4.812 2.785 1.881-.298 3.605-1.275 4.812-2.785 1.093-1.365 1.688-3.062 1.688-4.811 0-2.157-.598-4.271-1.729-6.108z" fill="#ed6863"/><g fill="#fff"><path d="m27 39h-2v-7c0-.551-.449-1-1-1s-1 .449-1 1v7h-2v-7c0-1.654 1.346-3 3-3s3 1.346 3 3z"/><path d="m22 35h4v2h-4z"/><path d="m6 19h7v2h-7z"/><path d="m6 23h5v2h-5z"/><path d="m6 27h7v2h-7z"/><path d="m6 31h5v2h-5z"/><path d="m6 35h7v2h-7z"/><path d="m6 39h5v2h-5z"/><path d="m6 43h7v2h-7z"/><path d="m36 19h7v2h-7z"/><path d="m36 23h5v2h-5z"/><path d="m36 27h7v2h-7z"/><path d="m36 31h5v2h-5z"/><path d="m36 35h7v2h-7z"/><path d="m36 39h5v2h-5z"/><path d="m36 43h7v2h-7z"/><path d="m54 35h-2c-.552 0-1-.448-1-1v-4c0-.552.448-1 1-1h2c1.654 0 3 1.346 3 3s-1.346 3-3 3zm-1-2h1c.551 0 1-.449 1-1s-.449-1-1-1h-1z"/><path d="m54 39h-2c-.552 0-1-.448-1-1v-4c0-.552.448-1 1-1h2c1.654 0 3 1.346 3 3s-1.346 3-3 3zm-1-2h1c.551 0 1-.449 1-1s-.449-1-1-1h-1z"/></g></svg>