<svg id="Layer_3" enable-background="new 0 0 64 64" height="512" viewBox="0 0 64 64" width="512" xmlns="http://www.w3.org/2000/svg"><path d="m6 22h38v18h-38z" fill="#d7d7e2"/><path d="m12 30h6v4h-6z" fill="#4a83aa"/><path d="m12 30h3v4h-3z" fill="#63afe3"/><path d="m22 30h6v4h-6z" fill="#4a83aa"/><path d="m22 30h3v4h-3z" fill="#63afe3"/><path d="m32 30h6v4h-6z" fill="#4a83aa"/><path d="m32 30h3v4h-3z" fill="#63afe3"/><path d="m32 26h-16v-8h14" fill="#63afe3"/><path d="m4 40h42v18h-42z" fill="#b3b6c2"/><path d="m22 58v-7c0-1.657 1.343-3 3-3 1.657 0 3 1.343 3 3v7" fill="#9db5be"/><path d="m23.5 48.416c-.893.52-1.5 1.476-1.5 2.584v7h3v-7c0-1.108-.607-2.064-1.5-2.584z" fill="#d1f2fd"/><path d="m14 42h4v16h-4z" fill="#868992"/><path d="m32 42h4v16h-4z" fill="#868992"/><path d="m12 38h26v4h-26z" fill="#4a83aa"/><path d="m12 38h23v4h-23z" fill="#63afe3"/><path d="m2 58h46v4h-46z" fill="#4a83aa"/><path d="m2 58h42v4h-42z" fill="#63afe3"/><path d="m42.988 40-10.087-13.396c-7.387-10.375.188-24.604 13.099-24.604 12.911 0 20.486 14.229 13.099 24.604l-13.099 17.396z" fill="#7ec95f"/><circle cx="46" cy="18" fill="#d7d7e2" r="12"/><path d="m46 26c1.281 0 2.509-.509 3.414-1.414 1.016-1.016 1.586-2.393 1.586-3.829v-.354c0-.92-.234-1.825-.681-2.629l-4.319-7.774-4.252 7.654c-.491.883-.748 1.876-.748 2.885v.218c0 1.436.57 2.813 1.586 3.828.905.906 2.133 1.415 3.414 1.415z" fill="#ed6863"/><path d="m19 21h10v2h-10z" fill="#fff"/><path d="m46 24v-2c.552 0 1-.448 1-1h2c0 1.654-1.346 3-3 3z" fill="#773432"/></svg>