<svg id="Layer_3" enable-background="new 0 0 64 64" height="512" viewBox="0 0 64 64" width="512" xmlns="http://www.w3.org/2000/svg"><g fill="#868992"><path d="m48 10v-2c0-1.105.895-2 2-2h6c1.105 0 2 .895 2 2v2z"/><path d="m6 10v-2c0-1.105.895-2 2-2h6c1.105 0 2 .895 2 2v2z"/><path d="m38 10v-4h-12v4h-4v-4c0-2.209 1.791-4 4-4h12c2.209 0 4 1.791 4 4v4z"/></g><path d="m16 62h20c1.105 0 2-.895 2-2 0-1.105-.895-2-2-2h-4c-1.105 0-2-.895-2-2 0-1.105-.895-2-2-2h-20c-1.105 0-2 .895-2 2 0 1.105.895 2 2 2h4c1.105 0 2 .895 2 2 0 1.105.895 2 2 2z" fill="#ed6863"/><path d="m2 10h60v36h-60z" fill="#868992"/><path d="m2 10h57v36h-57z" fill="#b3b6c2"/><path d="m43.688 59.11c-1.093-1.366-1.688-3.063-1.688-4.812 0-2.157.598-4.271 1.729-6.108l6.271-10.19 6.271 10.191c1.131 1.837 1.729 3.951 1.729 6.107 0 1.749-.595 3.446-1.688 4.811-1.461 1.827-3.674 2.891-6.014 2.891h-.597c-2.339 0-4.552-1.064-6.013-2.89z" fill="#b24e4a"/><path d="m48.5 40.437-4.771 7.753c-1.131 1.838-1.729 3.952-1.729 6.108 0 1.749.595 3.445 1.688 4.811 1.208 1.51 2.931 2.487 4.812 2.785 1.881-.298 3.605-1.275 4.812-2.785 1.093-1.365 1.688-3.062 1.688-4.811 0-2.157-.598-4.271-1.729-6.108z" fill="#ed6863"/><circle cx="32" cy="28" fill="#ed6863" r="10"/><path d="m30 22h4v4h4v4h-4v4h-4v-4h-4v-4h4z" fill="#d1f2fd"/><path d="m50 59v-2c1.654 0 3-1.346 3-3h2c0 2.757-2.243 5-5 5z" fill="#b3b6c2"/><path d="m12 49h16v2h-16z" fill="#b3b6c2"/><path d="m8 49h2v2h-2z" fill="#b3b6c2"/></svg>